<svg xmlns="http://www.w3.org/2000/svg" width="693" height="701" fill="none">
  <path fill="#FF5678" fill-rule="evenodd" d="M132.348 274.558c-.638-8.128-3.622-21.14-14.243-20.532-8.862.508-16.47 14.384-14.829 22.489 1.191 5.883 3.105 2.541 4.726-.287.212-.37.419-.732.619-1.062 2.036-3.373 5.722-7.453 10.098-6.588 3.767.746 5.36 4.469 6.808 7.855.422.984.831 1.94 1.277 2.786 3.43 6.496 4.62.213 5.417-3.998l.127-.663Zm-44.083 23.829c-7.544 2.736.666 11.917 4.236 13.906-.692 1.996-3.847 3.802-6.22 5.161l-.002.001c-.648.371-1.237.708-1.703 1.007-2.808 1.804-6.395 2.903-9.69 3.912l-.393.12-.328.101c-9.297 2.86-18.333 3.276-27.928 1.874-9.22-1.347-19.778-4.349-25.726-11.906-2.573-3.268-4.938-8.243-2.47-12.335 1.152-1.911 3.181-2.9 5.246-3.907 1.921-.937 3.873-1.888 5.176-3.611.61-.805 1.054-1.748 1.492-2.678.401-.85.796-1.69 1.31-2.403.18-.251.333-.471.468-.664.49-.7.73-1.042 1.056-1.186.314-.138.708-.092 1.481-.003.351.041.781.09 1.316.136 5.31.45 10.972.792 16.2-.487 2.242-.548 4.45-1.369 6.647-2.185 1.655-.615 3.303-1.227 4.955-1.719 4.081-1.217 7.951-3.775 11.107-6.532 7.28-6.361 14.407-13.273 21.148-20.205 3.701-3.806 6.667-8.215 9.638-12.631 2.408-3.579 4.819-7.163 7.628-10.435 1.433-1.669 2.855-3.432 4.298-5.22 5.714-7.082 11.748-14.562 20.067-18.201 4.716-2.062 5.649-.782 7.422 1.65.477.655 1.017 1.394 1.708 2.174 2.755 3.11 6.576 2.581 10.299 2.064.794-.11 1.583-.219 2.356-.293-.374.852-.782 1.716-1.195 2.591-1.645 3.487-3.375 7.153-3.455 10.953-.026 1.263.309 2.453.641 3.63.316 1.122.628 2.231.621 3.379-.01 1.553-.852 3.036-1.678 4.493-.416.732-.828 1.459-1.128 2.183-4.033 9.719-5.008 22.887-5.159 33.323-.311 21.59 6.152 44.587 19.898 61.515 2.9 3.572 6.161 6.872 9.806 9.691.678.524 2.193 1.295 3.91 2.168h.001c3.3 1.679 7.346 3.738 7.627 5.153.674 3.388-5.401 3.748-9.067 3.965h-.001c-.84.05-1.553.092-2.03.162-2.477.361-4.941.795-7.404 1.228h-.002v.001h-.001c-2.885.507-5.771 1.015-8.677 1.406-21.588 2.903-42.899 5.222-64.663 4.049-.876-.047-2.03.082-3.252.218-2.138.239-4.487.501-5.935-.112-2.133-.903-1.984-2.52-1.804-4.474.046-.496.094-1.013.107-1.546.122-4.98-.373-9.901-.869-14.832-.177-1.765-.355-3.531-.505-5.301-.362-4.288.336-4.742 2.602-6.219.607-.396 1.327-.865 2.168-1.5 4.121-3.111 8.15-8.887 9.495-13.837 2.475 1.996 2.195 3.396 1.832 5.205-.199.993-.422 2.109-.229 3.514.666 4.837 3.936 4.044 6.093.807 3.346-5.022 3.05-12.96-.077-17.979-2.801-4.494-12.795-11.395-18.464-9.339ZM260.812 476.68c2.055 1.654 4.109 3.306 6.2 4.918 2.108 1.625 3.702 3.236 5.269 5.354l.32.431c1.653 2.221 1.84 2.472.566 5.032-1.398 2.805-3.445 5.036-5.486 7.26-1.49 1.624-2.978 3.245-4.207 5.084-1.073 1.606-2.023 3.273-2.968 4.934l-.001.001c-1.98 3.477-3.945 6.928-6.997 9.733-2.017-4.548-4.623 2.099-1.274 1.398-.971 2.88-2.691 5.494-4.411 8.107-1.035 1.573-2.07 3.145-2.942 4.776-2.743 5.13-5.742 9.79-8.989 14.613l-.1-.363-.266-.961-.232-.836-.395-1.425c-2.409.576-1.508 2.06-.843 3.158.207.341.391.645.447.872.058.242.16.42.262.596.239.417.475.828.132 2.071-.261.941-.976 1.782-1.659 2.585-.281.331-.557.655-.793.977-1.586 2.165-3.077 4.385-4.572 6.61l-.657.978c-1.231 1.828-1.879 3.424-2.561 5.103a60.487 60.487 0 0 1-.81 1.933c-.598 1.347-1.166 1.709-1.88 2.163-.446.284-.95.604-1.553 1.225-1.023 1.053-2.043 2.599-3.019 4.079-.569.862-1.124 1.702-1.655 2.409-4.294 5.711-8.152 12.25-11.083 18.747-1.275 2.827-3.042 5.27-4.812 7.715-2.107 2.914-4.217 5.83-5.499 9.401-.674 1.874-1.109 3.802-1.544 5.729-.343 1.522-.687 3.044-1.148 4.54-.377 1.221-.847 2.409-1.317 3.597-.748 1.889-1.495 3.777-1.866 5.794-.298 1.614-.306 3.38-.314 5.048-.005 1.149-.01 2.252-.109 3.228-.06.589-.177 1.274-.303 2.018l-.001.001c-.293 1.722-.64 3.763-.471 5.685.513 5.801 2.919 10.835 5.792 15.668-13.105 4.441-28.015 5.689-41.764 5.367-7.027-.166-15.035-.232-21.911 1.394-.827.195-1.614.401-2.38.601-2.915.761-5.519 1.441-8.827 1.182-2.769-.217-5.536-.463-8.304-.709-1.403-.124-2.805-.249-4.208-.37 1.064-2.144 4.234-4.774 6.507-6.66.328-.272.637-.529.919-.766.621-.525 1.438-.856 2.227-1.177.847-.343 1.662-.674 2.172-1.217.848-.903 1.254-2.819 1.574-4.33.106-.5.202-.956.302-1.315 3.093-11.098 5.377-22.297 7.314-33.65 3.423-20.06 4.75-40.484 6.014-60.669.041-.66.21-1.382.379-2.103.202-.866.405-1.731.385-2.483-.024-.918-.113-1.671-.198-2.387-.121-1.021-.234-1.967-.134-3.214.052-.648.451-1.4.843-2.139.422-.793.834-1.571.798-2.185-.027-.467-.4-.566-.803-.673-.498-.133-1.042-.277-1.041-1.142.003-1.344 1.149-3.04 2.217-4.618.721-1.068 1.406-2.081 1.677-2.896.151-.456-.11-1.003-.374-1.553-.219-.457-.439-.916-.425-1.329-.01.281.75-3.142.78-3.276.098-.426.316-.73.533-1.033.302-.422.602-.841.575-1.585-.015-.414-.252-.875-.496-1.35-.406-.792-.833-1.622-.287-2.337.291-.382.956-.279 1.619-.176.696.108 1.389.215 1.64-.241.319-.58-.234-1.868-.818-3.23-.569-1.328-1.168-2.725-1.017-3.6.265-1.524.964-3.059 1.668-4.605.63-1.382 1.264-2.774 1.595-4.174.102-.435.134-.951.166-1.487.067-1.09.138-2.26.826-2.993.975-1.038 1.875-.852 2.935-.634.76.157 1.601.33 2.609.081-2.463-2.09-2.94-3.921-2.213-6.973.569-2.382 1.702-5.027 4.307-2.648-.389-3.556-.375-4.111 2.28-6.805.436-.442.884-.987 1.345-1.548.9-1.095 1.852-2.253 2.87-2.837l1.399-1.469c.631.658 1.382 1.031 2.251 1.116 1.411-.075 2.688-.19 3.878-.298 5.089-.46 8.582-.776 14.125 2.842.772.504 1.543.975 2.306 1.44 2.088 1.273 4.116 2.509 5.932 4.305 1.167 1.154 2.238 2.394 3.31 3.635 1.467 1.698 2.935 3.397 4.647 4.874.947.817 1.89 1.592 2.823 2.359 2.331 1.916 4.601 3.782 6.71 6.123.387.429.772.867 1.158 1.308 2.052 2.339 4.152 4.733 6.906 6.126.23-3.61-1.57-6.869-3.319-10.036-.15-.272-.3-.542-.447-.812-.225-.41-1.856-1.512-1.82-1.39-.099-.343.039-.663.173-.973.134-.31.263-.61.147-.915.966.873 1.942 1.89 2.939 2.928 1.931 2.011 3.936 4.098 6.079 5.365 4.916 2.907 3.249-2.141 2.173-5.398v-.001c-.085-.255-.165-.5-.239-.728-2.884-8.968-8.109-17.562-14.15-24.8-10.57-12.661-28.202-26.797-45.076-18.828-16.724 7.899-25.534 21.165-30.333 38.811-5.568 20.483-8.125 40.054-8.654 61.271-.304 12.147-1.543 24.194-2.82 36.273-.366 3.466-.669 7.016-.975 10.596-.733 8.596-1.481 17.363-3.16 25.533-1.493-2.173-2.373-3.812-3.118-6.253-.131-.427-.134-.85-.137-1.272-.005-.553-.009-1.103-.302-1.654-.122-.229-.499-.326-.867-.421-.351-.091-.695-.18-.805-.378l-.214-.387c-1.834-3.304-4.274-7.701-5.093-11.402-.177-.8-.22-1.468-.261-2.097-.063-.966-.12-1.84-.645-2.957-.376-.797-.666-.878-.9-.943-.273-.076-.469-.131-.636-1.281-.013-.089.104-.197.261-.341.36-.332.934-.861.641-1.824-.758-2.488-1.357-1.522-1.823-.769-.188.303-.355.571-.5.565-.638-.027-.019-2.661.528-4.986.356-1.516.682-2.9.608-3.344-.119-.709-.353-.817-.59-.926-.194-.089-.39-.179-.523-.604a26.659 26.659 0 0 1-.787-3.265c-.252-1.503-.636-2.584-1.003-3.616-.513-1.442-.992-2.79-1.028-5.063-.045-2.861-.707-5.103-1.395-7.431-.444-1.501-.898-3.038-1.204-4.801-.074-.419.123-.865.313-1.297.185-.421.364-.828.283-1.185-.173-.772-.544-1.476-.922-2.194-.36-.685-.727-1.381-.934-2.159-.505-1.895-.149-3.643.206-5.387.27-1.323.538-2.645.431-4.029.041.526-.996-2.362-1.06-2.617-.203-.794-.249-1.734-.295-2.683-.04-.804-.08-1.615-.215-2.349-.068-.364-.174-.758-.283-1.166-.34-1.27-.718-2.674-.092-3.735.28-.473.73-.649 1.202-.834.487-.191.998-.391 1.373-.933a16.23 16.23 0 0 0-1.408-.383c-.402-.093-.64-.148-.814-.285-.25-.198-.369-.568-.656-1.472a81.912 81.912 0 0 0-.25-.777c-.937-2.862-1.028-5.26 2.076-3.368a35.041 35.041 0 0 0-.895-1.951c-.702-1.456-1.45-3.006-1.667-4.417-.153-.99-.034-1.964.085-2.938.107-.883.215-1.766.12-2.66a51.706 51.706 0 0 0-.446-3.104c-.558-3.382-1.003-6.081 1.225-9.882-2.68-1.37-2.632-5.157-2.589-8.545.017-1.381.034-2.697-.135-3.755a50.816 50.816 0 0 0-.402-2.131c-.642-3.169-1.236-6.098 1.201-8.23-2.952-2.121-2.42-7.964-2.016-12.418.113-1.24.216-2.373.231-3.287.033-2.009-.028-4.032-.092-6.136-.064-2.103-.13-4.289-.107-6.622.021-1.98-.393-3.496-.867-5.233-.157-.576-.32-1.177-.478-1.827-.484-2.003-.386-3.729-.287-5.485.068-1.19.136-2.395.024-3.709-.102-1.192-.365-2.386-.63-3.597-.312-1.415-.628-2.852-.699-4.334-.05-1.038-.05-2.123-.049-3.218 0-1.866.001-3.76-.249-5.498-.113-.788-.253-1.499-.389-2.194-.258-1.317-.505-2.575-.543-4.188-.006-.278-.06-.64-.119-1.019-.095-.619-.197-1.283-.104-1.705l.03-.061c.164-.364.987-2.182.981-1.241.011-1.515-.276-3.016-.57-4.564-.469-2.443-.958-5.003-.33-7.916.735-3.409 1.367-3.357 4.133-3.127h.003c.404.034.853.071 1.355.102l.614.038c2.905.179 5.81.359 8.72.37 1.141.004 2.997-.216 5.138-.47 5.433-.645 12.704-1.509 14.8.532 1.785 1.739 1.487 8.268 1.275 12.924-.076 1.653-.14 3.069-.097 3.952.147 3.026-1.386 4.892-3.035 6.899-1.338 1.629-2.752 3.35-3.404 5.859-2.774 10.675 1.809 24.766 14.317 25.678 11.667.852 22.859-8.741 21.257-20.532-.643-4.732-2.823-9.882-6.938-12.651-1.871-1.259-4.731-1.481-7.525-1.697-3.15-.243-6.216-.48-7.685-2.191-.953-1.111-.925-4.585-.904-7.122.007-.904.013-1.69-.026-2.206a44.25 44.25 0 0 0-.249-2.168c-.385-2.948-.874-6.702.605-7.765 2.128-1.531 8.699-1.561 11.127-1.567l.207-.001c3.361-.008 6.436-.016 9.782-.582 3.277-.555 6.55-.86 9.812-1.163v-.001c4.26-.396 8.501-.791 12.706-1.739 7.372-1.662 14.183-3.399 21.128-6.369 1.101 7.399 3.491 14.105 5.915 20.907v.002c.711 1.995 1.425 3.997 2.11 6.029 1.428 4.235 3.655 8.551 5.842 12.442.271.483.556 1.093.858 1.739v.001c1.274 2.726 2.849 6.097 4.948 3.269.199.845.185 1.49.172 2.106-.016.717-.03 1.395.292 2.302.607 1.711 3.041 3.724 5.07 5.401v.001c.796.657 1.529 1.264 2.066 1.78 1.281 1.234 2.652 2.267 4.035 3.309l.001.001c.6.452 1.202.905 1.8 1.378.187.147.47.166.749.186.305.021.605.041.771.228.356.405.296.906.248 1.307-.032.263-.059.483.04.607 2.26 2.839 5.731 5.079 9.008 7.193 1.218.786 2.408 1.554 3.499 2.329 5.76 4.09 11.492 8.178 17.105 12.464 2.328 1.778 4.599 3.606 6.868 5.432h.001v.001Zm-85.455-149.726c4.245 4.892 10.82 12.36 17.397 13.835 6.433 1.443 16.53-.56 22.271-3.72-.252-1.442 1.161-3.944 2.478-6.279.802-1.421 1.569-2.779 1.904-3.798.323-.984.377-1.748.432-2.514.039-.555.079-1.11.221-1.75.117-.525.328-.801.52-1.053.271-.355.506-.661.389-1.549-.198-1.532-1.305-2.369-2.388-3.188-.827-.626-1.641-1.241-2.023-2.148-.158-.372.018-1.702.162-2.798.077-.586.146-1.105.149-1.373.033-2.149-.158-3.517-1.246-5.362-1.724-2.925-4.317-5.299-6.872-7.639-1.373-1.257-2.735-2.505-3.946-3.823-1.058-1.151-1.69-2.354-2.352-3.613-.329-.625-.665-1.264-1.064-1.917-.426-.698-.982-1.33-1.53-1.955-.734-.835-1.457-1.658-1.841-2.604-.326-.802-.42-1.758-.515-2.723-.087-.875-.174-1.758-.435-2.541-.496-1.482-1.263-2.814-2.03-4.146-.578-1.001-1.155-2.003-1.617-3.07-2.196-5.072-2.763-11.109-3.285-16.659l-.152-1.604-.31.072c-6.61 1.543-12.964 3.025-16.621-4.312-.472-.947-.56-2.881-.644-4.735-.088-1.944-.173-3.8-.691-4.343-.712-.745-7.84-.273-8.652.398-2.924 2.418-2.902 10.714-2.887 16.095.003 1.305.006 2.439-.033 3.275-.121 2.558-.316 5.122-.511 7.688-.385 5.068-.771 10.145-.588 15.206.544 15.023 6.346 33.163 16.31 44.647Zm115.382 97.306c1.039 5.2 2.083 10.424 3.459 15.523.579 2.145.847 4.26 1.115 6.374.344 2.714.688 5.425 1.687 8.196-.097.631-.156 1.357-.219 2.123-.239 2.94-.526 6.474-3.201 7.516-3.048 1.186-5.029-1.711-6.162-4.221-2.003-4.445-2.272-9.863-2.533-15.123-.137-2.766-.272-5.488-.657-8.001-.744-4.868-1.091-9.695-1.44-14.53-.268-3.714-.536-7.433-.984-11.178-.265-2.215-.715-4.601-1.177-7.054-1.123-5.958-2.322-12.317-1.138-17.619 1.135-.028 3.235 6.916 4.604 11.441.482 1.593.873 2.887 1.099 3.471 1.964 5.062 2.97 10.161 4.006 15.413.218 1.105.437 2.217.667 3.337.296 1.44.585 2.885.874 4.332Z" clip-rule="evenodd"/>
  <path fill="#000" fill-rule="evenodd" d="M652.369 668.659c-4.621 1.434-8.953 3.547-13.406 5.434-5.055 2.143-8.583 2.519-14.103 2.51-21.368-.032-42.515 1.065-63.923 1.497-5.847.118-11.783.176-17.63.07-2.362-.043-4.677-.311-7.026-.505-1.519-.125-8.138.785-9.021.253-2.482-1.493-1.008-11.109-1.309-14.19-.524-5.35-1.879-10.506-3.766-15.533-6.75-17.984-18.101-35.531-32.454-48.367 19.407-8.15 40.578-18.896 62.115-14.061 8.203 1.841 19.075 4.251 23.3 12.187 4.508 8.472 8.457 17.787 13.611 25.899 5.76 9.064 11.875 16.831 20.214 23.63 3.291 2.683 19.872 19.165 17.353 6.442-.807-4.081-3.792-7.874-6.176-11.206-1.212-1.695-7.748-7.253-6.731-9.217 1.142-2.202 12.928-3.754 15.454-4.455 5.218-1.446 10.407-2.99 15.604-4.508-1.879 3.542-12.103 16.944-5.571 20.369 2.4 1.259 8.607-3.199 11.237-3.982 4.48-1.333 8.575-.455 12.979.865-.114 2.162-4.361 2.19-5.773 3.667-2.065 2.161-3.515 7.988-1.896 10.577 3.016 4.824 14.69-.099 19.911 1.732-5.868 6.055-15.074 8.434-22.993 10.892Zm-291.585-199.12c.061.125-.05.299-.752.908-.214-.769-.595-.938-1.064-.726.377-.411.688-.627 1.064.726a4.06 4.06 0 0 0 .752-.908Zm1.785-2.539c-.14.463-.459.68-.945.668l.068-.215c.323-1.01.754-.838.61-2.697.194.311.341.624.233.937.308.472.318.907.034 1.307Zm-51.941 87.279c.493-1.19.623-2.573 1.26-3.668-.624 1.11-.634 2.479-1.26 3.668ZM511.395 677.16c-7.735-.309-15.273-.171-23.006.165-16.523.72-33.12.826-49.612 2.151-8.067.649-15.822.896-23.914.625-7.074-.238-14.174.014-21.227-.579-7.744-.651-14.994-2.792-22.81-2.908-7.472-.111-16.371-.975-23.619.116-1.252.188-1.926.986-3.402 1.178-2.04.266-4.911-.565-6.999-.706-3.665-.247-7.717.159-11.293-.696-1.228-.292-2.088-.743-3.279-1.224-1.075-.433-3.485-.767-4.076-.922 3.408-1.27-4.152-3.86-4.761-4.001-.153.516.186 1.239.745 1.939-1.935-1.484.137-.936-3.027-2.44-1.33-.633-3.845-1.04-5.336-1.208-1.435-.161-2.21.009-2.863-.028.132-.146.262-.342.388-.603 1.056-2.178-2.161-4.665-3.969-3.202.209.426.548 1.213.958 1.985-.018-.021-.034-.037-.052-.059-.67-.774-1.931-2.754-3.186-4.086 1.591-.878-.355-2.072-1.089-3.297-.502.276-1.059.51-1.347.894.418-.873 1.454-1.663.846-3.36-.173-.485-.633-1.216-1.209-1.729.547.427 1.117.903 1.854.801-.922-1.396-1.26-1.922-1.612-3.322-.247-.984 1.131-1.936-.178-2.826.04-.929.592-5.193-1.724-3.705l-.001.001.002-.005c1.482-4.534 4.004-9.215 5.877-13.648 4.365-10.323 8.852-20.724 13.42-30.957 7.553-16.928 15.439-33.813 24.13-50.286 8.615-16.331 18.021-32.125 26.153-48.681 7.843-15.972 16.993-31.255 24.891-47.202 3.721-7.511 8.706-13.722 9.975-22.449.41-2.827.54-8.721-3.738-7.66-2.781.689-6.673 7.651-8.468 9.915-1.608-2.207-10.679-15.18-13.112-7.451-2.087 6.627 10.977 9.513 5.765 16.188-.517.662-2.658 1.33-3.361 1.942-1.368 1.191-2.62 3.292-3.677 4.728-2.409 3.275-4.402 6.755-6.629 10.142-.418.638-1.95 2.079-2.068 2.825-.062.396.27.803.53 1.215-1.812 1.603-4.097 3.02-4.521 5.617a.581.581 0 0 0 .352.043c-1.684 1.761-3.816 6.03-4.121 6.475-2.269 3.301-4.496 6.754-6.738 10.236-1.212 1.883-3.332 4.097-4.027 6.212-.241.731.464 2.042-.194 2.727-1.729 1.8-3.419 1.417-4.713 5.037-.508 1.425-.554 3.418-1.372 4.641-1.312 1.961-3.188 2.885-4.414 4.995-2.325 4.004-5.112 8.4-6.577 12.44-.005.017-.006.032-.013.049a18.82 18.82 0 0 0-.2-1.034c-.831 1.491-1.66 2.982-2.489 4.474 1.435-.28 2.203-.671 2.553-1.309a2.14 2.14 0 0 1-.24.667 7.507 7.507 0 0 1-2.313.642 42.863 42.863 0 0 0-1.563 2.812c-.238.484-1.038 3.434-1.375 5.668-.124-.867-.248-1.645-.262-1.748l-3.158 6.077c1.91-1.468 1.803-1.717 3.621-1.753-2.292.046-5.761 3.265-6.079 6.358-.052.502.256 1.052.528 1.571a3.2 3.2 0 0 0-.198-.023c-2.4-.204-1.698.28-2.608 2.28.347-.139 2.368-.927 3.128-1.542.082.263.096.504-.032.709-.595.945-5.456.335-2.334 2.433-2.594-1.743-3.89 3.98-3.008 5.947-.698 1.008-1.53 1.937-2.312 2.87-1.923 2.293-2.985 4.032-4.245 6.824-2.145 4.754-4.703 9.473-7.047 14.136-.89 1.773-1.928 3.283-3.019 4.929-1.937 2.921-1.596 2.192-.069 5.374-.573-.186-1.421.265-2.241.92.446-.757 1.014-1.319 2.241-.92-1.938-4.037-3.602.883-4.494 3.196.04 0 .073-.011.11-.013-.121.18-.213.34-.269.467-.911 1.877-1.985 3.027-1.208 4.995.224-1.095 1.112-1.942 1.489-2.883-.531 2.295-3.035 5.045-3.791 6.565-.628 1.263-.717 2.588-1.489 3.962-.724 1.29-1.377 2.159-1.934 3.635-2.692 7.136-4.003 15.085-5.701 22.58-2.008 8.857-2.835 18.269-3.265 27.334-.125 2.635-.194 4.964.755 7.466.138.363 1.616 2.293 1.578 2.999-.205 3.688-7.131 2.921-9.795 2.815-4.235-.17-7.118.514-11.186 1.103-3.753.542-7.436.245-11.247 1.166-6.329 1.529-15.754 3.952-21.874.592-2.959-1.624-6.685-6.333-8.832-8.976-2.643-3.252-3.532-6.564-4.006-10.707-.808-7.088-.863-14.919 1.601-21.692 11.449-31.474 31.09-60.085 48.029-88.728 15.895-26.878 33.714-52.354 49.641-79.16 8.42-14.17 18.549-28.189 28.564-41.285 10.236-13.385 17.54-27.949 24.757-43.1 7.48 3.967 15.398 8.046 23.763 9.839 4.755 1.019 9.477.71 14.273 1.039 3.534.242 6.491 1.077 10.091 1.169 15.784.402 34.022-1.489 49.11-6.151 3.62-1.119 6.857-2.279 10.251-3.891 4.332-2.057 5.503-2.93 5.749 1.852.476 9.257 1.987 18.256 2.698 27.459.694 8.971 2.501 17.817 4.099 26.68.809 4.489 1.681 8.974 2.345 13.486.504 3.424 2.024 8.186 1.42 11.609-.666 3.778-4.246 7.612-6.295 10.836-2.079 3.271-4.169 6.535-6.242 9.809-3.889 6.142-7.76 11.969-12.352 17.603-8.512 10.446-15.76 21.369-23.832 32.156-8.571 11.454-15.695 23.826-24.107 35.397-4.443 6.113-8.987 11.878-11.899 18.762-2.416 5.71-7.277 10.963-10.249 16.614-3.904 7.419-8.869 14.215-12.746 21.672-2.706 5.208-7.933 10.505-8.481 16.558-.919 10.155 8.736.007 10.971-2.824 2.997-3.798 6.284-10.444 10.787-12.503 3.216-1.47 7.915-1.31 11.405-2.461 3.659-1.206 7.25-2.458 10.945-3.56 7.196-2.151 14.138-5.186 21.134-7.916 7.241-2.826 14.48-5.678 21.585-8.82 3.29-1.455 6.061-2.201 9.575-2.834 1.512-.273 6.923-2.829 8.114-2.612 2.001.364 4.759 6.245 6.276 7.757 2.338 2.332 4.968 4.238 7.152 6.746 4.303 4.942 8.861 10.207 12.592 15.576 8.336 11.996 16.133 25.103 19.098 39.553 1.331 6.486-.222 6.917-6.494 6.665ZM294.59 661.477a1.424 1.424 0 0 1-.104-.314c.027.101.05.2.104.314.987-.586 1.249-.275 1.349.204-.496-.319-.96-.435-1.349-.204Zm-2.299-6.697a2.73 2.73 0 0 1-.065-.507c.014.168.027.336.065.507.54-.362.991-.259 1.424 0-.461-.25-.958-.313-1.424 0Zm.992-4.384c.303-.022.648-.187 1.037-.578-.319.321-.619.658-.893 1.009.005-.043.012-.084.015-.129.006-.084-.063-.188-.159-.302Zm-98.292-36.719c-2.247 5.298-3.182 11.095-5.091 16.521-1.46 4.151-2.043 8.251-2.426 12.592 1.332.982 1.302 1.846-.089 2.594a20.559 20.559 0 0 0-.101 2.84c-.362 2.764.171 5.169.903 7.818 1.158 4.201 2.627 7.219 4.782 10.85-13.08 4.438-27.983 5.687-41.707 5.366-7.417-.174-15.738-.19-22.966 1.639-7.783 1.971-14.607 1.148-22.603.459 1.168-2.353 5.632-6.279 7.893-7.914 1.151-.831 3.044-.973 3.916-1.904 1.246-1.328 1.392-3.905 1.875-5.645 3.084-11.099 5.367-22.291 7.304-33.643 3.413-20.012 4.999-40.497 6.006-60.659.085-1.705.966-3.62.923-5.235-.056-2.122-.663-2.817-.492-4.95.111-1.391 1.778-3.279 1.658-4.516-.077-.775-1.975-.106-1.861-1.622.178-2.337 3.202-5.416 3.889-7.513.305-.933-.833-1.862-.798-2.881-.01.291.751-3.152.78-3.276.229-.989 1.156-1.405 1.106-2.617-.046-1.102-1.651-2.545-.782-3.687.879-1.155 2.7.593 3.254-.417.63-1.145-2.14-5.055-1.832-6.828.539-3.104 2.65-6.442 3.477-9.593.31-1.182-.189-2.642.772-3.665 1.673-1.781 3.124.046 5.537-.552-2.394-2.033-2.92-3.993-2.21-6.972.576-2.419 1.687-5.037 4.301-2.647-.345-3.15-.713-3.47 1.549-6.101 1.953-2.272 4.484-4.993 6.822-6.733 3.494-2.603 9.072-3.941 13.216-4.247 4.523-.333 10.083 2.091 13.507 5.509 4.163 4.158 9.548 7.189 14.272 11.164 5.044 4.244 9.375 9.285 14.221 13.784.995.923 2.827 3.506 4.364 3.062 2.507-.725.482-4.466-.067-6.131-3.908-11.839-10.93-23.767-20.591-31.844-4.981-4.167-9.938-9.437-15.729-12.471-4.678-2.452-8.332-2.066-13.306-2.241-4.251-.15-5.125-.401-8.916 1.388-2.688 1.268-5.349 2.506-7.885 4.057-4.055 2.478-8.238 5.491-11.235 9.236-7.979 9.974-11.093 22.656-14.229 34.81-3.45 13.368-5.825 26.43-6.244 40.301-.425 14.114-1.079 28.02-2.47 42.077a727.577 727.577 0 0 1-2.502 21.89c-.87 6.717-.915 13.936-2.269 20.532-1.704-2.484-2.234-4.402-3.175-7.078-.635-1.802-1.279-1.74-2.198-3.069-1.947-2.811-4.381-8.144-5.148-11.615-.469-2.122-.035-3.186-.905-5.053-.269-.577-1.73-.125-1.965-1.039-.168-.655.748-1.162.707-1.385-.096-.517 1.326-1.091.098-2.717-1.745-2.308-.852.588-1.794.548-.785-.033 1.57-8.001 1.293-9.157-.098-.409-1.433-.463-1.54-.843-.324-1.149-.25-2.813-.567-4.06-.773-3.044-1.92-4.264-1.976-7.74-.075-4.594-1.777-7.846-2.596-12.229-.158-.843.77-1.755.596-2.482-.352-1.484-1.45-2.783-1.854-4.353-.778-3.023.261-7.288.048-9.746-.187-2.151-.79-5.643-1.187-8.315-.646-4.35.515-2.93 2.404-5.667-2.619-.845-2.286-.102-3.123-2.917-.966-3.251-.877-5.168 2.073-3.368-.784-1.931-2.239-4.297-2.559-6.367-.297-1.922.406-3.688.205-5.597-.545-5.166-2.157-7.97.778-12.983-3.772-1.932-2.129-8.586-2.72-12.298-.637-4.007-2.184-7.749.798-10.359-3.066-2.206-1.852-8.534-1.839-11.913.005-1.533.525-4.231.393-5.592-.092-.957-.743-1.6-.932-2.714-.697-4.131.842-8.221-.084-12.33-1.043-4.63-1.165-8.58-1.523-13.118-.346-4.398-1.026-8.969-1.319-13.478-.216-3.346-1.52-6.966-.92-10.432.048-.273.844-2.739.867-2.182-.037-.891-.686-1.994-.716-2.525-.213-4.012-.29-7.283-.118-11.355-.008 0-.017-.002-.025-.001.497-.302.764-.93.785-1.908 3.753-.363 7.86.554 11.651.655 4.088.108 8.162-.096 12.245-.284 2.626-.122 8.287-1.366 10.287.827 1.448 1.589.537 9.765.634 11.891.114 2.513 1.386 6.456-.084 8.655-.912 1.364-2.973 1.909-4.035 3.406-.647.911-1.173 2.439-1.516 3.429-1.038 2.982-1.452 6.201-1.293 9.349.75 14.741 12.563 21.51 25.827 15.57 11.555-5.174 14.697-20.824 4.769-29.593-2.337-2.065-4.828-2.589-7.811-3.099-1.896-.324-7.069-.125-8.308-1.478-1.23-1.342-.93-5.53-1.066-7.273-.219-2.797-1.344-6.953-.734-9.652-.999-2.249-.333-3.2 2.002-2.855l2.217-.446c1.862-.337 3.691-.744 5.582-.874 3.37-.231 6.656.169 10.029-.282 3.308-.443 6.55-1.27 9.864-1.698 3.522-.455 6.98.051 10.465-.547 7.234-1.238 15.006-2.904 21.773-5.747 1.813-.761 4.885-2.954 6.896-2.592 2.408.434 1.764 1.966 2.458 4.257 3.848 12.706 11.842 25.259 20.303 35.361 7.988 9.535 18.517 17.225 28.04 25.222 5.774 4.849 11.318 9.946 16.678 15.245 3.89 3.847 8.065 9.861 13.089 12.08 1.146.042 5.562-.464 6.369.364.932.953.875 1.486.503 2.081 1.067-2.812-4.011-2.338-6.872-2.445.325.545 3.537 6.988 4.332 3.404l1.384.825c-2.283 5.044-5.24 10.1-8.451 14.614-2.341 3.292-5.365 5.673-7.465 9.084-2.652 4.305-4.86 8.773-8.219 12.608-6.699 7.651-10.427 17.938-16.267 26.427-2.807 4.08-4.272 7.872-7.193 11.933-2.284 3.178-5.984 7.198-7.316 10.854-.531 1.462.039 2.73-.934 4.084-.615.856-2.437 1.785-3.296 2.672-3.413 3.525-6.074 8.554-8.75 12.701-2.851 4.416-4.838 8.997-7.253 13.597-2.477 4.72-6.576 8.064-8.722 13.122Zm-88.584 13.538c.184.496-.922 1.339-3.86 1.028 2.91.308 4.024-.528 3.86-1.028Zm-7.224 16.593ZM80.86 678.505c-2.393-.836-8.617-2.315-12.67-4.063 1.808.506 3.69.923 4.414 1.176l8.256 2.887c3.898-14.052 18.534-19.408 31.058-24.597-6.033-.253-8.188-5.49-11.835-9.234 3.639 3.734 5.829 8.982 11.835 9.234-12.522 5.188-27.16 10.546-31.058 24.597Zm-13.69-14.147c-.138.228-.274.464-.41.72-.374.699-1.78 3.821-2.37 5.871-.12-2.107 1.131-4.572 2.78-6.591Zm13.78-266.817a1.22 1.22 0 0 1 .565-.091c-.654.03-.832.808-.86 1.886-.569-.604-.705-1.396.294-1.795Zm45.456 32.472c4.265 2.118 8.404 3.351 12.473 5.913-4.992 3.881-20.929 10.148-20.453-1.845.056-1.397.873-5.152 2.148-5.983 1.94-1.264 4.141 1.075 5.832 1.915ZM77.58 374.17c18.782 6.554 40.663 4.934 59.752 1.737 20.51-3.434 40.987-5.456 60.855-11.885.02 2.767 1.22 5.664-.972 7.945-1.719 1.788-5.444 2.126-7.715 2.879-5.94 1.97-11.042 4.839-17.251 6.016-6.954 1.319-13.901 1.292-20.916 2.072-2.54.283-4.929.738-7.315 1.197-3.304.049-5.893.497-9.192 1.413-11.8.056-23.52.406-35.27-1-5.969-.715-11.872-1.59-17.855-2.199-5.604-.57-4.353-2.986-4.12-8.175Zm-7.185-50.415c-11.06 3.055-22.469 2.141-33.35-1.357-7.87-2.528-18.31-6.233-19.965-15.81-1.093-6.318 2.694-7.463 7.147-10.086 2.131-1.255 3.167-2.203 4.6-4.329.851-1.263 1.615-4.431 2.57-5.295 2.326-2.105 9.667-.257 13.307-.42 5.424-.242 9.1-2.065 14.09-3.674 8.814-2.843 14.392-6.29 21.234-12.794 6.655-6.326 14.47-12.761 19.851-20.217 6.027-8.348 11.794-16.472 18.359-24.434 4.865-5.9 13.69-17.71 22.419-17.656 4.381.028 3.733 4.16 7.212 6.26 3.177 1.917 7.333.583 10.825.251-2.302 5.231-5.494 10.612-4.365 16.532.634 3.315.97 4.46-.325 7.597-1.183 2.866-2.463 5.406-3.196 8.475-2.854 11.961-4.205 25.422-3.008 37.652 2.073 21.171 9.327 43.03 25.196 57.976 3.618 3.407 7.597 6.131 12.027 8.373 4.42 2.236 4.786 4.565-.689 5.564-10.664 1.945-21.49 3.274-32.23 4.718-10.726 1.442-21.643 2.949-32.459 3.17-5.351.11-10.669.777-16.019.397-2.664-.19-5.31-.666-7.983-.739-2.332-.065-5.814 1.1-7.985.181-3.398-1.438-1.708-11.383-1.957-14.836-.287-3.963-2.788-11.395-1.303-15.141 1.044-2.63 4.874-3.733 6.858-5.78 3.257-3.359 6.336-7.341 7.58-11.92 4.123 3.328.576 5.463 1.827 9.521 1.366 4.428 3.885 3.036 5.857-.002 3.291-5.072 3.071-12.91-.077-17.967-1.822-2.924-4.782-5.122-7.819-6.686-2.457-1.265-7.896-3.746-10.617-2.647-7.385 2.985.475 11.804 4.23 13.898-.903 2.605-7.3 6.364-9.739 7.477-3.623 1.653-8.214 2.674-12.103 3.748Zm101.361-80.774c.097 1.419.248 2.775.717 4.133.955 2.768 2.866 5.167 5.499 6.537 5.108 2.66 15.468-1.17 19.958-4.307 0 9.51 1.705 17.075 4.434 26.097 2.639 8.729 8.041 15.833 12.637 23.583 2.383 4.019 4.571 8.168 7.936 11.468 3.421 3.354 3.99 4.639 3.678 9.585-.513 8.145-4.392 13.7-11.725 17.073-5.809 3.22-17.804 5.836-24.133 3.146-6.653-2.83-13.133-10.154-17.442-15.792-9.789-12.808-14.753-32.099-14.158-48.023.31-8.294.748-16.781 1.542-25.045.578-6.021.367-14.677 9.125-11.964 2.83.876 1.704.223 1.932 3.509Zm33.606 111.217c.844-1.72 8.277-3.449 9.571-2.44 1.963 1.53 2.044 10.456 2.734 12.996a77.522 77.522 0 0 0 4.265 11.82c3.638 7.976 8.856 16.214 15.048 22.427 6.417 6.435 13.79 10.894 21.581 15.506 2.226 1.319 4.381 2.909 6.668 4.106.96.502 2.739.737 3.495 1.492 1.87 1.87 1.005 5.706.983 8.14-.09 9.752-.057 19.187 1.235 28.806-7.634-5.908-14.531-13.408-21.327-20.297-7.126-7.224-16.303-11.993-23.06-19.643-6.148-6.959-10.987-15.071-15.504-23.121-1.978-3.527-5.747-8.023-5.883-12.146-.147-4.445 1.88-9.151 1.904-13.755.015-3.257-2.965-11.333-1.71-13.891Zm91.668 99.547c-.464 2.945-.093 9.258-4.19 9.891-2.82.438-4.554-2.239-5.588-4.48-3.122-6.776-2.09-15.813-3.255-23.092-1.377-8.593-1.41-17.066-2.474-25.672-.939-7.588-4.069-17.16-2.363-24.638 1.547-.038 5.726 14.594 6.628 16.914 1.856 4.777 3.993 8.797 5.599 13.75 2.127 6.56 3.972 12.824 4.952 19.688.689 4.825 3.274 13.393.691 17.639Zm22.659-32.352c-3.822 5.934-7.95 12.118-13.337 17.068 0-2.768-2.07-11.768-.667-13.908 1.671-2.549 11.156-2.666 14.004-3.16ZM171.406 187.685c3.248-1.474 6.871-1.938 10.147-3.462 3.131-1.456 5.457-2.335 8.933-2.621 12.08-.991 24.381 2.101 35.558 5.483 6.151 1.861 11.004 5.939 16.2 9.472 5.375 3.654 8.323 6.836 10.663 13.019 5.036 13.301 8.134 25.877 10.137 39.903 2.033 14.23-1.268 28.614-1.062 42.874.202 14.068 1.207 28.715 5.676 42.11 3.455 10.357 9.579 27.029 22.486 28.062 12.252.98 22.617-11.653 27.682-21.136 13.391-25.073 18.423-53.734 19.149-81.874 1.89-9.417 2.972-19.57 6.249-28.601 3.644 5.699 6.616 11.815 9.966 17.689 3.677 6.447 3.441 11.707 3.122 19.033-.247 5.696-2.256 11.139-2.987 16.811-.844 6.548-2.393 12.933-2.766 19.546-.437 7.799-.002 15.679-.659 23.458-.551 6.542-1.996 13.112-3.044 19.594-1.018 6.298-1.143 12.499-.993 18.777.145 6.077 2.246 11.979 7.395 15.231-7.653 9.444-17.194 23.351-30.014 25.589-4.298.75-8.312 1.335-12.664 1.653-3.539.258-7.674 2.244-10.726.038-5.253-3.798-6.289-12.262-8.274-17.797-1.373-3.829-14.989-35.187-22.156-26.303-1.277 1.583-.976 7.392-1.171 9.621-.282 3.214-.152 6.482-.254 9.707-.131 4.105-.495 8.268-.21 12.372.173 2.475 1.659 5.147-1.144 5.743-2.594.552-8.063-4.602-9.951-5.937-2.533-1.791-5.265-3.135-7.831-4.861-5.276-3.546-9.462-8.012-13.216-13.073-3.78-5.093-7.145-10.808-9.702-16.623-1.299-2.951-2.36-5.975-3.445-9.005.024.067-1.61-3.755-1.52-4.022.288-.855 3.743-2.274 4.596-2.947 9.748-7.694 11.7-26.826 9.109-38.017-1.569-6.771-6.757-12.72-10.442-18.484-3.56-5.569-7.326-11.023-10.279-16.95-3.256-6.528-5.772-13.383-8.693-20.059-1.41-3.222-3.101-4.88-.996-7.831 1.29-1.809 3.96-2.55 5.109-4.53 1.157-1.992 1.277-5.836-.804-7.26-2.277-1.559-5.586.618-7.672 1.467-2.784 1.132-5.565 1.681-8.406 2.551-3.226.99-6.129 3.177-9.553 3.177 1.841-6.341 9.796-5.739 12.377-11.636 1.763-4.03 1.533-11.529-3.964-12.193-3.122-.378-5.584 2.004-7.905 3.602-3.055 2.102-5.361 2.494-8.94 3.153-1.318.243-3.457 1.478-4.707 1.058-2.028-.68-.858-.26.204-1.927 1.579-2.479 5.313-4.899 7.57-6.708 5.074-4.067 12.107-6.999 16.503-11.728 2.905-3.127 4.333-13.64-1.188-15.318-2.214-.674-5.816 1.522-7.985 2.194-3.666 1.134-7.4 2.037-11.017 3.331-6.425 2.298-12.595 5.028-19.113 7.09 3.713-5.287 10.767-9.846 16.622-12.505Zm217.268-1.549c0 3.633 1.386 10.539-.178 13.842-1.41 2.974-9.976 4.632-13.001 5.768-9.797 3.68-19.513 7.778-29.527 10.825 10.321-15.285 25.657-24.159 42.706-30.435Zm-1.444-49.356c-2.538 3.646-6.951 8.589-12.114 6.866-5.565-1.857-9.925-10.379-7.082-15.787 2.43-4.619 9.362-7.518 13.642-3.877.934.794 1.543 2.825 2.437 3.446.574.398 1.483-.667 2.183-.241 2.071 1.257 2.868 4.326 5.854 4.069 1.383-.118 5.812-3.729 6.719-4.652 2.425-2.471 1.58-5.003 1.963-8.25.529-4.474 3.615-5.16 7.167-7.468 3.382-2.199 6.1-5.477 9.445-7.594 3.994-2.529 1.705.677 5.353.994.658.058 2.128-2.129 3.27-2.093 1.481.048 2.124 1.033 2.968 2.108 1.839 2.335.486 3.068 3.69 3.612 2.312.393 3.744-1.287 5.721-1.254 1.617-1.831 4.012-5.654 6.903-4.525 1.957.764 2.657 4.864 3.077 6.576 1.589 6.49 1.469 14.118 1.528 20.774-3.719-2.61-4.201-4.363-5.363-8.571-.755-2.734-2.578-6.752-4.567-2.645-.565 1.166-.08 2.953-.454 4.234-.433 1.485-1.47 2.217-1.632 3.837-.39 3.931 2.829 5.278 5.607 7.192-2.592 2.794-10.051.685-8.062 6.651 2.103 6.303 10.182 2.813 14.212 1.231 3.435 13.022-11.828 19.296-21.128 22.857-5.462 2.091-7.598 3.256-8.349 9.632a33.66 33.66 0 0 0 2.097 16.166c.803 2.046 1.572 4.842 2.668 6.736.929 1.604 2.779 1.716 3.403 2.611 2.298 3.301.643 10.464.374 14.426-.735 10.833-4.11 20.699-5.56 31.271-.744 5.407-2.972 10.469-3.927 15.813-.876 4.903-1.222 9.532-5.354 13.038-8.303 7.045-14.724-3.359-17.601-10.198-4.098-9.741-4.507-22.543-3.831-32.93.736-11.292 5.901-22.139 6.174-33.347.292-11.986-1.518-23.365-4.516-34.954-1.311-5.065-3.219-9.599-4.837-14.496-1.322-4.004.867-7.62-2.078-11.258Zm21.583-118.575.003.026c-.053-.059-.106-.115-.163-.184.06.072.112.12.16.158Zm.248-1.123c-.124-.846-.395-1.91-.58-2.39.449.277.96.51.977.8.048.832-.191 1.224-.397 1.59Zm12.326 2.137c-.086.05-.17.103-.257.15-.206 0-.378-.043-.531-.111.059.012.123.022.197.028.2.014.397-.016.591-.067Zm6.443-2.123c-1.154-.009-2.37-.116-3.718.468.214-.128.428-.244.645-.32.604-.215 1.88-.191 3.073-.148Zm-65.351 316.748c.248-5.423.245-7.05 4.505-10.546 3.552-2.915 6.988-5.974 10.577-8.845 7.946-6.359 16.437-13.091 25.471-17.84 5.062-2.659 18.874-8.02 15.383 2.481-3.294 9.909-9.65 18.711-15.122 27.515-5.579 8.974-11.159 17.955-16.954 26.791-2.521 3.843-5.181 7.613-7.593 11.524-2.373 3.851-2.617 6.447-7.485 4.853-3.537-1.159-7.533-2.571-10.87-4.078-2.93-1.324-2.755-2.133-2.835-5.577 1.814-8.902 4.503-17.066 4.923-26.278Zm22.674-108.496c-1.232 4.961-10.067 5.551-14.834 6.513-.819.165-4.971 1.508-5.745 1.048-1.53-.91-.778-3.539-1.429-4.812-3.569-6.968-3.621 1.94-4.638 4.038-2.782 5.748-7.044-5.759-8.606-8.577-1.203-2.168-2.492-3.271-1.246-5.091 1.036-1.515 6.803-2.556 8.574-3.209a2900.244 2900.244 0 0 0 19.343-7.248c2.773-1.047 11.312-6.531 11.219-1.261-.921 6.065-1.165 12.666-2.638 18.599Zm-4.829 59.232c-2.718.845-10.098 4.231-12.847 2.634-2.32-1.348-.717-6.073-.456-8.533.492-4.636.42-9.68.157-14.33-.388-6.868-.959-7.411 5.818-9.258 2.618-.715 10.614-4.582 12.559-2.401.909 1.018.524 4.256.724 5.491.433 2.67 1.178 5.281 2.154 7.803 1.686 4.359 4.148 8.273 6.723 12.149-4.619 2.842-9.668 4.839-14.832 6.445Zm-15.344-48.567c1.173-1.687 7.013-1.927 8.944-2.335 3.412-.722 6.827-1.436 10.24-2.157.183 4.157 2.533 15.014-.457 18.013-1.681 1.688-7.305 2.122-9.686 2.708-2.594.638-5.192 1.265-7.79 1.892-.294-4.007-.539-8.016-.966-12.012-.156-1.469-1.239-4.737-.285-6.109Zm.674 54.882c1.795-2.067 6.654-2.007 9.356-2.638 4.302-1.007 8.38-2.381 12.453-4.083 2.278-.952 6.768-4.212 9.287-3.386.706.231 2.183 3.139 2.72 3.684.918.934 2.104 1.567 3.169 2.305 2.933 2.032 4.713 2.664 8.171 3.352-18.089 7.418-32.623 20.616-47.586 32.791-1.062-.89-.472-8.849-.355-10.675.216-3.389.361-6.821.616-10.221.208-2.794.261-8.934 2.169-11.129Zm54.934 72.169c-.546 3.087-.629 7.327-1.952 10.179-1.214 2.612-1.066 2.43-4.293 2.508-4.077.099-8.753.782-12.701-.459 3.525-7.785 6.459-16.245 11.282-23.348 1.515-2.23 4.44-7.94 7.609-7.6 3.18.342 2.482 3.531 2.23 5.838-.471 4.308-1.421 8.615-2.175 12.882Zm15.881-121.438c2.448-16.794 2.241-33.213 2.241-50.125 3.907.517 8.212.191 11.978 1.296-1.216 3.878-4.723 7.376-1.251 11.058 3.525 3.74 11.743 5.379 16.507 6.756 5.581 1.613 11.271 3.585 17.006 4.543 2.577.43 5.385.848 7.985.348 4.117-.79 4.48-1.883 7.187 2.358l.052.082c-.782-.449-3.262-.179-2.602-.16.098.342.242.682.327.999-.731-.601-2.346-1.107-2.57-1.147-2.692-.473-6.108.735-8.701 1.333-5.814 1.344-11.585 2.807-17.216 4.796-4.74 1.674-9.435 3.548-13.956 5.748-3.491 1.697-11.552 4.687-12.653 8.846-2.112 7.975 18.956 14.034 24.093 16.734 4.852 2.549 3.32 6.33 3.375 11.395.059 5.501.558 10.95.176 16.439-.295 4.253-.621 3.594-4.863 3.518-3.177-.057-6.355-.185-9.53.004-4.478.266-9.077.887-13.28 2.515-6.288 2.436-18.365 14.033-6.331 17.567 4.956 1.455 11.345.923 16.424.572 4.405-.304 11.307-2.31 15.558-.795 2.216-.628 3.015.178 2.398 2.416l.306 4.603.616 9.263c.421 6.318.84 12.637 1.259 18.955-3.693-5.234-8.773-15.559-16.642-14.379-6.754 1.012-10.747 11.485-12.922 16.89-1.768 4.391-2.91 8.994-4.105 13.565-1.149 4.395-1.568 10.609-3.668 14.592-2.069 3.923-4.944 2.606-9.179 3.01-5.295.504-3.161-2.46-2.319-6.96 1.282-6.855 5.818-18.681 1.444-25.07-5.586-8.155-13.477 6.956-15.622 11.037-2.006 3.815-3.717 7.769-5.252 11.794-.992 2.599-1.794 8.209-4.354 9.63-3.134 1.743-8.104-1.043-10.983-1.954-3.382-1.07-7.077-1.517-10.55-2.217 9.887-15.477 20.168-30.721 29.76-46.38 4.795-7.828 10.844-16.048 13.478-24.905.5-1.677 1.113-3.28.908-5.064-.176-1.523-2.465-3.917-2.319-4.974.215-1.566 3.359-2.873 4.83-4.519 5.108-5.72 6.391-12.527 7.978-19.798 1.725-7.913 3.817-16.221 4.982-24.215Zm19.302-47.997c7.53-1.622 16.086 2.704 22.383 6.197 4.154 2.304 15.241 7.121 15.668 12.764-.115-1.53-10.311-.575-12.327-.526-8.614-1.865-17.801-4.38-25.839-8.097-2.927-1.354-6.365-2.68-5.298-6.155.699-2.283 3.278-3.723 5.413-4.183Zm-8.735 111.023c-4.76-.274-22.042-.086-13.345-8.715 5.445-5.404 15.472-6.577 22.715-6.606 2.595-.01 5.152.194 7.73.458.706.085 1.414.168 2.121.252 2.16-.429 2.833.465 2.022 2.681.387 1.297 1.008 8.988-.131 10.07-1.512 1.435-6.324.802-8.097.94-4.354.34-8.646.946-13.015.92Zm25.276 65.371c-12.523 1.866-25.025 4.245-37.724 4.444 1.896-9.256 4.104-18.492 7.554-27.309 2.207-5.634 6.211-17.8 13.929-17.201 6.161.478 13.351 11.034 15.068 16.427 2.239 7.029 1.173 16.328 1.173 23.639Zm32.161-140.697c-.249 1.283-5.87 3.59-7.072 4.288-8.67 5.038-16.392 12.506-21.581 20.993-.577-3.276-.485-9.488-3.231-11.815-4.832-4.096-3.839 5.081-4.417 7.884-.541 2.629.132 2.203-2.135 2.437-2.011.207-7.143-3.559-8.998-4.508-5.129-2.623-10.045-5.478-14.972-8.456 4.082-6.743 16.119-9.839 22.973-12.536 9.851-3.876 19.562-5.86 29.986-7.465 1.744.907 1.97-1.133 3.272-1.59a.516.516 0 0 0 .101-.277c1.53 2.275 6.447 9.135 6.074 11.045Zm12.753 90.871c4.852 22.292 6.06 45.484 12.188 67.506 5.827 20.934 11 41.776 17.731 62.427 3.877 11.895 7.477 23.909 12.659 35.332 3.614 7.966 6.483 24.957 15.287 28.686 5.764 2.441 8.32.28 7.704-5.565-.534-5.086-3.171-8.281-5.348-12.673-.758-1.53-3.227-5.848-2.958-7.471.334-2.018.847-1.801 2.952-2.799 4.468-2.119 8.923-3.554 13.68-4.781-1.919 2.977-5.753 7.234-6.061 10.875-.255 3.004 1.903 8.514 4.888 9.667 2.821 1.089 6.139-1.208 8.555-2.609 2.795-1.623 5.46-2.074 8.537-3.226-3.922 5.651-10.347 10.153-7.596 17.927 2.935 8.292 12.04 1.51 17.863.573-1.663 6.425-9.042 13.75-14.349 17.326-3.563 2.4-7.429 4.564-11.253 6.507-1.48.752-3.425 1.211-4.785 2.107-.516.341-1.386 1.787-1.856 2.014-6.605 3.189-15.613 4.003-22.799 5.536-7.917 1.689-14.732 2.102-22.883 1.71-6.743-.323-14.213-4.466-19.848-7.945-4.284-2.644-4.91-5.876-6.243-10.545-2.211-7.737-4.19-15.524-6.3-23.288-1.819-6.693-2.666-13.124-3.898-19.915-2.611-14.393-3.814-29.013-6.615-43.38-2.782-14.272-3.712-28.729-4.482-43.317-.371-7.026-1.515-14.193-1.863-21.082-.283-5.604-.187-11.243-.157-17.006.023-4.051-1.413-8.099-1.315-12.165.086-3.595.416-6.832.036-10.463-.809-7.737-1.442-15.381-2.051-23.13-1.186-15.102-4.677-30.006-6.07-45.044-.601-6.504 6.537-12.741 11.373-16.528 5.154-4.037 9.289-9.706 14.961-12.883 2.101 26.083 4.746 52.032 10.316 77.622Zm-85.418 278.866c-5.592 2.493-11.182 4.99-16.777 7.479-4.113 1.83-9.509 5.59-14.029 5.251 3.213-4.353 5.238-9.331 8.665-13.559 3.421-4.222 6.245-8.706 9.339-13.167a172.652 172.652 0 0 0 12.802 13.996Zm1.19-21.889c8.461-4.462 20.481-12.942 30.398-11.342 7.142 1.152 15.232 6.381 19.545 12.14a130.783 130.783 0 0 0 6.362 7.868c2.121 2.426 3.21 2.111 1.355 4.641-1.427 1.946-4.79 3.264-6.979 4.016 0-4.258 1.324-8.527-3.792-8.106-2.018.166-4.372.649-6.384.977-1.734.283-2.739 1.036-4.216 1.384-1.577.371-3.461-.066-5.095.062-2.814.221-5.067 1.349-7.733 1.939-5.515 1.222-10.17 2.911-15.541 4.716-2.457-3.756-4.52-8.271-7.858-11.341-3.731-3.433-5.323-4.18-.062-6.954ZM360.42 14.751c.812-.086 1.74-.59 2.367-1.644-1.098 1.843-1.745 1.926-2.367 1.644Zm-25.36 2.934c.984.179 1.955.397 2.769.779.801.376 1.234.803 1.661 1.179a42.88 42.88 0 0 0-.659-.282c-1.057-.442-2.41-1.239-3.771-1.676Zm-16.913 139.74a11.134 11.134 0 0 0 .001 0h-.001Zm-.621-.758ZM457.487 21.356c.182.053.34.075.486.083a.793.793 0 0 1-.486-.083Zm4.352 2.916c-.53-.491-.843-.972-1.004-1.453.082.05.172.097.273.137.158-.156.315-.312.472-.47-.218.407-.293.799-.125 1.15.812 1.698 1.803-.883 3.027.394-.917-.112-2.035.242-2.643.242l-4.239 5.817c1.913.955 2.512-.224 3.58 1.516.052.085.099.291.139.564-.444-1.268-1.603-1.024-3.719-2.08l4.239-5.817Zm1.971 7.371Zm-2.125 7.63c-2.02-1.081-.266-2.443-.182-4.106.007-.147.01-.273.014-.409.014.402.017.731.007.893-.137 2.348-1.804 3.002 1.23 3.714.208.05.476.075.782.086-.776.057-1.452.037-1.851-.177Zm31.324 17.456c-.126-.96 4.366-3.056 4.945-3.314-.71.317-5.065 2.403-4.945 3.314Zm5.109-8.505c-.03-.012-.063-.016-.093-.03.006-.07-.001-.137-.001-.205a.737.737 0 0 0 .094.235Zm2.392 7.757c.024-.105.072-.383.125-.715.079.41.167.794.25 1.13a3.152 3.152 0 0 0-.375-.415Zm-3.49-.06c-.003-1.627.508-1.28.825-1.23-.29.435-.827.517-.825 1.23Zm-4.74 3.576c.472-.093.869.178 1.236.491-.798-.211-1.454-.45-1.236-.491Zm-1.231 65.665c.199-.335.628-.446 1.113-.499-.61.233-1.08.732-1.191 1.456-.121-.268-.151-.571.078-.957Zm3.533-10.408c-.033-.01-.068-.023-.1-.026-.989-.077-1.419.563-1.526 1.542.066-.854.352-1.55 1.091-1.777-.039-.077-.072-.149-.108-.224.188.171.406.333.643.485Zm-1.172 5.27a16.885 16.885 0 0 0-.072-.375c.111.466.237.929.366 1.374a6.762 6.762 0 0 1-.294-.999Zm1.103-16.347Zm-.555.257Zm1.016-11.83c.013.438.014.874.027 1.287a4.553 4.553 0 0 1-.027-1.286Zm196.04 583.411c-2.701-2.428-11.751-2.59-15.344-3.272 7.774-7.438 13.618-26.241-1.234-28.655-3.288-.535-4.218.732-4.97-2.991-.462-2.282.478-4.384-.654-6.657-2.688-5.396-12.899-4.794-18.002-5.57 1.219-4.285 4.209-11.94-.295-15.419-3.553-2.744-10.949.919-14.725 2.094-10.201 3.175-20.564 6.799-29.169 13.194-3.856-5.205-7.889-10.342-11.123-15.971-3.086-5.37-4.997-11.307-7.898-16.774-2.908-5.483-5.996-11.947-10.057-16.659-3.439-3.99-8.156-4.384-12.693-6.289-11.511-4.83-21.485-4.553-33.513-2.767-12.022 1.785-22.444 8.816-32.626 14.951-3.997-13.477-13.241-28.12-27.572-32.276-6.431-1.866-13.197-.065-19.077 2.867-7.286 3.635-13.014 9.815-20.139 13.256 8.124-13.908 18.38-26.99 27.308-40.124 4.897-7.204 11.084-13.634 15.868-20.975 4.875-7.483 8.467-15.802 12.004-23.97 2.988 7.623 3.494 15.643 6.238 23.292 2.519 7.022 4.244 14.226 7.109 21.132 2.991 7.209 5.633 14.322 9.675 21.031 2.307 3.827 7.99 15.748 12.179 8.101 9.323 6.297 18.321 10.099 29.981 9.823 5.338-.126 11.283-.294 16.392-1.49 5.19-1.213 10.148-2.847 15.305-4.011 4.08-.92 7.809-3.411 11.521-5.256 4.268-2.122 8.497-5.937 11.793-9.283 4.081-4.143 8.298-8.131 12.401-12.248 4.06-4.074 3.766-8.232 5.938-13.295 2.267-5.282 3.239-9.951.241-15.282-2.197-3.905-6.083-3.367-6.992-7.322-.863-3.752-.024-7.288-2.381-10.731-1.789-2.612-8.225-4.358-8.246-7.025-.018-2.204 2.272-4.154 2.181-6.798-.082-2.361-1.237-6.157-2.506-8.154-2.384-3.757-6.015-3.885-10.111-2.736-9.894 2.773-19.594 9.904-26.399 17.394-9.33-25.553-16.677-51.666-23.501-77.802-3.015-11.544-5.376-23.241-7.293-35.013-1.897-11.655-4.772-23.396-6.054-35.111-.77-7.027-2.932-13.602-3.943-20.543-.836-5.746-1.394-11.538-2.218-17.287-1.821-12.74-4.35-25.284-6.319-37.993-1.087-7.023-3.542-13.168-5.431-19.932-1.62-5.8-2.585-10.759-5.293-16.239-5.166-10.45-10.479-23.251-20.515-29.892-8.925-5.907-17.583-10.843-28.461-12.052-6.382-.71-11.523.789-17.763 1.478-5.525.61-10.256 3.663-15.645 4.763 0-5.121-.5-5.259 4.174-7.081 2.692-1.049 5.319-2.202 8.061-3.114 2.89-.962 5.078-1.9 7.542-3.667 2.908-2.086 1.074-1.423 4.559-.703 5.494 1.138 3.875-.182 7.489-2.919 2.102-1.593 4.249-.621 6.709-.303 2.296.297 6.074 1.312 7.826-.755 1.333-1.572-.119-4.269.862-5.977 1.55-2.697 5.993-2.574 8.365-4.386 2.595-1.981 2.83-4.215 2.267-7.262-.389-2.109-3.714-6.795-3.527-8.609.125-1.209.762-1.563 1.584-1.662 6.498.328 6.184-.651 4.599-6.409-.093.853-.15 1.578-.214 2.203-.017-.894-.01-1.729.214-2.203.169-.357.777-.587 1.327-.875a17.3 17.3 0 0 1-.476.456c.278 1.224.359 4.422 1.534 5.292.841.623 3.79.559 4.385-.482 1.245-2.174-3.035-3.408-3.202-5.022 4.914-.411 3.238-2.806.668-5.251-.101-.671.288-.989 1.171-.953a2.678 2.678 0 0 0-1.524-.803c.383-.064.716-.176.891-.448.154-.239.164-.57.107-.94.096.285.179.53.24.719 4.24 1.711 2.061-7.37.302-8.918.136-2.52.271-5.039.404-7.558-1.209.798-2.13 2.042-2.445 3.341.043-1.199.743-2.217 2.445-3.341-2.725-1.2-2.993-1.346-.067-1.602 2.426 2.212 2.088.376 3.591-.975-.091.08 2.273-2.49 2.115-2.097 1.124-2.78-.116-8.642-4.642-6.733 2.458 2.2-.009 2.606-.867 4.498-.029.063-.052.13-.076.196.046-.226.107-.445.2-.646 1.517-3.26 1.876-.757.207-4.464-.002-.002-.003-.005-.004-.01.441.224 1.131.177 2.227-.284 1.366-1.668 1.779-.986 2.511-3.135.641-1.88.344-3.162-.936-3.861.146.038.292.08.439.118.566-1.446-.22-2.823-1.529-3.488-.529.865-1.058 1.73-1.584 2.597.238.077.478.146.719.219l-.008-.001c-1.678-.194-2.357.107-2.609.88-.084-.346-.107-.688.086-.998.204-.331 1.654.16 1.812-.1 2.599-4.26-.147-7.807-4.33-9.977-1.589-.824-4.721-.852-5.282-2.781-.396-1.363 1.578-4.661 1.957-6.278 2.919-1.34-2.47-2.122-2.506-2.128-.162 1.907-.057 2.752 1.044 2.604-1.109.15-1.206-.703-1.044-2.604 1.584.243 6.258-.193 8.549-1.751 3.793.108 5.745.765 8.046-2.524-2.248-.933-4.896-.43-6.914-1.864.094.431.17.822.218 1.183-.175-.533-.555-.992-1.064-1.427.329.282.158.373-.233.36.075-.1.153-.216.233-.36.136-1.596 1.309-.946 2.497-.846-.031-.514-.234-.945-.454-1.373.218.41.422.831.454 1.373l2.259-1.438c.41-.119.655-.285.751-.493l.003.012c3.598 1.073 2.503-6.55.847-6.51-.444.01-.765.173-1.002.432.051-.703.171-1.447.459-2.488.169-.448.336-.896.506-1.344-.908.058-3.843-1.695-3.896.397a2.155 2.155 0 0 0-.462-1.05c.263-2.313-1.099-2.116-3.209-2.763-.783-.24-1.648-1.74-2.531-1.11-1.327.946-.528 1.838.324 2.512a2.819 2.819 0 0 1-1.129 1.885c-.095-.09-.187-.159-.278-.229.587-.343 1.082-.89 1.407-1.656-2.713-2.146-3.858-.742-5.945.985.831.692 1.795 1.065 2.717 1.103a3.381 3.381 0 0 0-.135.325c-1.046-.13-1.907-.606-2.582-1.428 2.217-1.834 2.017-2.959-.679-4.047-.911-.367-1.488.45-2.615.018-.56-.215-.964-1.19-1.51-1.514-4.08-2.415-8.981-1.04-13.326-1.612.544-.07 1.031-.138 1.401-.187-.431-1.498-1.597-2.146-2.824-2.602.002-.854.003-1.708.002-2.562a2.623 2.623 0 0 0-.502-.061c.284-.225.453-.53.413-1.051-1.049.379-1.938.1-2.512-.66 1.141 1.458 3.364.695 4.042-1.174.711-1.959-.813-3.274-2.139-4.728.032-1.397-.562-1.9-1.329-2.033 1.384-2.717 1.694-1.37.209-4.768-.122-2.29-2.065-1.458-3.376.013.138-.337.28-.684.415-1.045l-3.092-.211c.262.836.84 2.325.081 3.035.505-.726.145-2.313-.081-3.035a3778.15 3778.15 0 0 1-3.787-2.113c.107.226.397 1.076.757 2.038-.971-1.352-1.763-2.19-3.086-3.582-.646-.68-3.175-3.94-3.876-4.143-4.286-1.242-7.528 7.14-12.756 5.993-3.084-.677-1.644-1.475-4.557-.909-1.596-2.072-12.006 1.186-12.406 3.158.195-.053.344-.075.465-.078-1.173.42-2.194 1.068-3.331 1.506-2.85 1.1-1.154 1.386-4.389-.464-1.104-.631-1.511-.434-1.941-.492 1.393-.626 2.064-4.957 2.084-6.501.05-3.69-.437-3.043 1.002-5.689-1.331-.02-2.269-.134-2.968.182.2-.627.343-1.243.34-1.839.72-1.951.085-4.25-2.144-4.793-3.371-.823-4.032 4.017-1.589 4.81-2.337-.759-1.4-3.82-4.582-4.235 1.168-.06 1.892.161 2.98 1.498l1.079-2.176c-2.533-.265-3.703-.48-5.749.71-2.002.358-3.413 1.808-4.923 3.223a197.012 197.012 0 0 0-11.599 11.8c-1.946-3.998-4.095-6.91-7.253-2.435-2.852 4.039-5.16 9.62-6.642 14.316-2.962-1.36-1.713-1.803-2.956-4.005 1.292 2.145-.022 2.638 2.956 4.005l.888-2.811c-2.594-2.956-2.484-5.892-5.292-9.043-.311 1.01.584 2.449.74 3.36.174 1.009-.945 1.71-.69 2.795 1.049-.383 1.292-.152 1.326.268-.037-.42-.284-.649-1.326-.268-.416-1.773.617-2.715.04-4.695-.233-.8-.572-1.384-.981-1.95 1.787-2.988-3.991-5.059-5.336-3.28a3.192 3.192 0 0 0-.374.634c-2.256-1.015-2.952 1.144-4.005 2.766l-.751 1.522c-1.328 1.091-2.561 3.374-3.561 4.867-2.139 3.193-3.035 7.866-5.654 10.527.089-1.714 1.023-5.514-2.055-3.981 1.016-.506 1.163-1.12.939-1.834.192.108.399.206.64.286.432.043.866.084 1.299.126-.054-2.427-1.645-4.022-3.525-5.312 0 .634-.02 1.286.021 1.91l-.031-.067c-.824-1.976-.475-2.558-1.189-3.164.28.067.602.115.997.134-2.3-3.887-5.356-4.508-9.582-3.413.288.068.589.126.896.183-.478.001-.942.086-1.375.298-1.641.799-4.069 5.391-5.208 6.983-4.008 5.605-5.874 12.471-7.973 18.95-.589 1.822-1.484 6.094-3.762 6.705-2.649.711-5.455-3.603-7.786-5.045-7.46-4.615-11.17 3.67-12.319 10.244-1.714 2.909-1.319 5.15 1.154 6.528-.692-1-1.011-2.066-1.142-3.165.328 1.868 1.887 2.516 2.167 3.316.155.438.369 3.1.364 3.636 1.275.95 1.37 1.654.287 2.109a14.22 14.22 0 0 0-1.861 1.517c-1.787 1.884-1.77 4.497-3.406 6.33-1.848 2.073-3.545 1.157-4.418 4.565-1.495 5.838 2.188 14.654 8.816 15.212-.786 2.299-1.804 4.631-2.392 6.988-.78 3.137-.726 3.455.753 6.456-11.025-1.639-10.163 10.031-3.879 15.763 1.488 1.359 3.119 2.205 5.04 2.807 1.39.436 5.587.193 6.587 1.512 2.106 2.78-2.596 6.395-3.012 9.497-.042.318-.06.863-.046 1.496-1.736 2.125-1.65 2.3.83 4.287 1.359 1.751 5.558 1.332 6.835 3.006 1.963 2.576-2.416 6.723-.221 9.733 1.746 2.392 3.567.901 6.362 1.915 1.353.618 2.705 1.237 4.056 1.859a4.843 4.843 0 0 1 2.078-.828c1.578.795.072 2.194 2.062 2.662 1.033.326 3.422 1.565 4.466.923-1.481.911-2.475 3.163-3.326 5.639-.809 1.324-1.556 2.781-1.258 3.875-.499 1.516-1.009 2.899-1.619 3.862 3.441.524 3.035 3.765 5.417 5.544 3.217 2.754 3.753.198 2.993-1.145.321.163.652.375.993.617.065.045-.626 1.681.052 2.063.95.536.949-.002 1.937-.012.93-.011 2.279-1.407 3.415-1.524.605-.062 2.393.765 2.763.52 1.03-.683.95-1.432.55-2.338l.46.92c1.109 2.896 1.667 2.244 3.348 1.414-.454.224 1.318-1.098 1.682-.992-.828-2.295-4.111-2.054-6.134-2.628 1.281.363 3.362.377 4.541.885 1.974.85 1.35 1.714 3.687 1.979.983.111 4.996-.979 5.704-1.693a.704.704 0 0 0 .15-.243c.365-.581.729-1.163 1.091-1.745 1.483.172-.122 2.452 2.205 1.545 1.739-.679.892-1.623.339-2.653a2.398 2.398 0 0 0-.599-.751c2.402.575 5.259 3.808 8.538 2.903 1.85-.511 1.953-1.773 3.309-2.954 1.812-1.577 2.373-1.334 4.568-2.097 1.328-.462 2.744-1.482 4.081-1.72 2.178-.387 1.577-.147 3.382.771 1.079.548 1.693 1.578 3.055 1.777 1.245.182 3.198-1.249 4.205-.856 2.741 1.071 2.043 4.917 2.198 7.453-13.87-4.415-30.084 2.641-40.293 12.331-2.768 2.627-4.579 5.742-7.039 8.599-2.669 3.1-5.186 4.508-5.561 8.924-.323 3.808 1.394 6.094.038 9.753-1.3 3.506-2.719 6.644-3.67 10.3-4.543 17.458-4.684 35.587-8.051 53.286-3.115 16.377-7.564 30.966-14.894 45.978-3.399 6.959-6.248 11.22-13.702 14.155-6.03 2.374-10.444-.738-13.392-6.152-7.93-14.57-9.058-29.554-8.962-45.806.045-7.807.936-15.615 1.688-23.377.78-8.045.196-15.561-.364-23.594-1.123-16.105-4.797-29.919-10.327-45.066-2.621-7.184-4.833-14.188-11.147-18.862-3.537-2.617-7.089-5.89-11.235-8.154-3.317-1.811-5.292-3.447-9.074-4.258-2.488-.533-4.755-1.356-7.157-2.13-5.669-1.823-12.226-2.387-18.172-2.367-13.884.047-29.121 4.721-41.618 10.715-6.223 2.984-12.98 7.428-17.079 13.089-1.691 2.337-2.843 4.928-3.992 7.557-1.375 3.142-.943 3.717-3.854 3.608-1.824-.069-3.864-1.757-5.953-1.847-2.287-.098-3.961.699-6.09 1.289-2.702.749-5.242 1.42-7.645 2.973-5.83 3.764-10.761 9.764-15.216 14.998-8.156 9.581-15.535 20.318-23.165 30.077-7.514 9.608-16.642 18.135-28.313 22.491-4.452 1.662-9.382 1.998-13.928 3.342-1.995.589-4.41 2.154-6.5 2.127-3.285-.042-3.032-1.65-4.169-4.257-1.352-3.096-3.307-5.506-5.75-7.819C12.681 253.696-.8 268.903.036 280.616c.49 6.845 5.62 11.359 5.438 18.076-.17 6.284.205 12.659 2.446 18.623 2.516 6.689 8.703 13.627 14.16 18.177 5.053 4.216 11.384 5.111 17.751 5.815 2.918.322 5.946 1.19 8.768 1.139 2.418-.044 4.617-1.023 7.085-.923 4.188.168 6.432.141 10.356-1.345 2.91-1.102 5.535-1.714 8.704-1.642 0 6.678.424 13.209.998 19.864.075.879.683 3.162.278 3.945-.498.967-1.09.329-1.712 1.025-1.482 1.658-2.556 2.473-3.666 4.629-3.045 5.912-3.977 12.525-2.79 19.117.93 5.168 3.97 7.297 3.251 12.788-.845 6.451-2.416 13.036-2.719 19.529-.146 3.097-.182 5.436-.838 8.441-.378 1.744-1.653 4.885-1.55 6.648.064 1.089 1.22 1.571 1.221 2.569.002.87-1.003.754-1.072 1.5-.21 2.249-.333 4.286-.285 6.547.063 3.059-.236 6.099-.12 9.158.086 2.33-.456 7.845 2.16 6.936-.699 1.646-.884 3.232-.953 4.812a1.48 1.48 0 0 1-.037-.47c.16-1.823.213-2.512.99-4.342l-1.494.519c-.912 2.355.208 4.662.46 7.006-.009.234-.017.468-.032.705-.21 3.404.047 6.737.301 10.133.58 7.755.854 16.399 2.951 23.367 2.3 7.638 1.564 17.24 2.45 25.652 1.015 9.628 2.66 19.101 3.885 28.693 1.094 8.565 1.622 17.858 3.5 26.2 1.54 6.831 2.841 13.484 3.667 20.664 1.143 9.957 4.776 17.542 8.776 26.589 1.691 3.829 1.807 3.768-1.297 6.565-1.3 1.171-2.404 2.542-3.729 3.686-2.653 2.294-5.55 3.629-9.035 4.042-8.577 1.017-17.242 4.065-22.06 11.459-4.657 7.148-1.639 15.524 1.846 22.806-4.6.391-17.038.109-14.128 8.488 1.99 5.729 12.595 3.81 17.28 3.872 6.846.092 13.74-.244 20.525-.337 3.09-.043 3.404-.363 6.412.815 2.835 1.109 4.998 1.232 8.066 1.029 3.266-.214 6.53.267 9.695-.203 3.99-.591 6.472-1.09 10.481-.381 2.897.513 5.219.261 8.11-.12 3.205-.425 6.239-.169 9.545-.258 7.722-.207 15.385-.062 23.113.025 7.511.083 15.028-.943 22.487-.606 13.009.587 26.25.052 39.319.356 6.028.141 10.684 3.649 16.727 3.288 6.141-.367 12.366-.423 18.459-1.281 10.493-1.478 20.602-3.569 31.262-4.114 6.737-.344 12.659 2.556 18.998 4.378 2.297.659 4.363.35 6.51.84 2.026.461 4.105 1.785 6.244 2.333 5.067 1.299 9.909 1.793 14.361 1.913.577 1.066 1.241 1.197 1.995.391l.919-.521c1.419-.189 2.432-.829 3.922-.923 2.296-.147 4.647.166 6.778-.039 4.462-.43 8.651-.712 13.585-.205 2.927.301 5.488-.124 8.369-.071-.033-.001 3.953.777 4.043.742.353-.137.911-1.121 1.14-1.164-.082-.943.201-1.368.852-1.276.523-.114.867.159 1.033.818-.156.019 1.242.725 1.341.741.081.012 3.681-.414 3.934-.509 1.033-.387 1.473-1.511 2.296-1.68.976-.199 1.558.877 2.404.832 1.864-.101 1.644-.931 3.077-1.19 5.031-.907 11.19.272 16.387.28 5.178.009 10.327-.465 15.314-.684 6.13-.27 12.135.894 18.312.068 5.875-.787 11.752-1.129 17.67-1.378 12.37-.521 25.063.03 37.318-1.425 12.761-1.513 25.734-.001 38.514-.228 13.475-.24 27.023-.363 40.493-.915 13.407-.55 26.759-2.146 40.113-2.467 3.398-.081 6.734-.891 10.118-1.137 3.099-.225 6.146.268 9.27-.005 5.689-.498 10.864-.117 16.581-.204 6.394-.098 12.606-1.073 18.966-1.465 6.429-.396 12.797.511 19.174-.757 3.485-.694 9.988-5.469 5.54-9.469Z" clip-rule="evenodd"/>
  <path fill="#000" fill-rule="evenodd" d="M438.561 106.71h-.025l-.096.112.121-.112ZM491.817 77.266c.808-2.808-1.238-4.82-2.608-7-.807 4.948-3.285 4.734 2.608 7ZM343.463 182.683c.021.057.048.107.065.167.023-.099-.004-.151-.065-.167ZM321.139 178.977c.184.413.586 3.273.877 3.287 2.591.123-.567-4.715-2.223-4.998-2.395 1.546 1.403 1.838 1.346 1.711ZM321 162.266c-.171-2.185-.906-2.462-3-1.4.626 1.374 1.371 1.177 3 1.4ZM292 108.767l3 .499-1.762-4-1.238 3.501ZM312.527 547.76l.003-.006c-.073.028-.084.034-.003.006ZM108.512 275.414c2.118-3.541 6.134-7.916 10.706-6.444 4.271 1.376 5.453 6.975 7.294 10.497 3.58 6.847 4.695-.505 5.488-4.661-.647-8.323-3.885-21.87-14.839-20.435-8.332 1.094-15.527 14.478-13.94 22.392 1.333 6.652 3.583 1.508 5.291-1.349ZM424.267 118.553c-4.091-1.46-4.087 2.96-4.245 6.283-.145 3.053.328 10.215 4.182 11.305 3.839 1.088 4.201-5.237 4.796-7.794-.895-3.035-1.39-8.601-4.733-9.794ZM429 111.92c-3.003-2.654-5.008-3.467-8.843-1.753-1.974.882-4.794 2.801-5.103 5.221-.965 7.532 11.3-1.923 13.946-3.468ZM429.626 157.039c6.998 1.808 7.445-7.757-.337-7.773-5.207-.01-3.571 6.763.337 7.773ZM376.132 127.305c-2.612.381-3.535 2.02-2.975 4.636.647 3.018 2.283 3.043 5.212 3.325 7.059.022 2.452-8.646-2.237-7.961ZM438.095 111.107c.646 1.792 4.154 2.601 5.988 1.918 2.181-.813 2.634-2.788.666-4.602-1.686-1.553-4.01-1.143-6.12-.999.07.678-.936 2.569-.534 3.683ZM218.561 315.266c3.337-.005.188-5.649-2.561-6 .058 1.746-.057 6.005 2.561 6Z" clip-rule="evenodd"/>
</svg>