<svg xmlns="http://www.w3.org/2000/svg" width="998" height="659" fill="none">
  <path fill="#F2F2F2" fill-rule="evenodd" d="M1.259 493.69c25.297-97.804 281.27-42.087 449.084-72.323 167.813-30.237 366.346-171.053 497.746-102.074 131.391 68.979-8.41 235.722-309.773 273.35-301.365 37.628-662.354-1.149-637.057-98.953Z" clip-rule="evenodd"/>
  <g fill-rule="evenodd" clip-rule="evenodd" opacity=".5">
    <path fill="#89C5CC" d="M218.686 71.86c-1.573 1.572-.962 7.153-.995 9.219-.051 3.215.149 6.402.418 9.606.18 2.145 1.196 22.618 4.021 21.045 1.593-.885.595-6.808.592-8.681-.007-4.164-.18-8.32-.457-12.474-.258-3.857-.421-7.67-.272-11.535.036-.943.919-11.412-3.307-7.18Z"/>
    <path fill="#89C5CC" d="M287.187 69.337c-13.513.108-27.021.775-40.528 1.183-6.5.197-12.995.446-19.487.807-2.213.122-6.958-.586-8.801.593-4.092 2.617 2.507 3.229 4.266 3.165 26.731-.97 53.47-2.246 80.223-2.306 13.124-.03 26.241.344 39.366.26 5.017-.032 10.572-2.193 11.839 3.647 1.43 6.589-.213 13.926-.66 20.548-.298 4.42-.192 8.749.007 13.165.128 2.83-.205 6.018.296 8.795.481 2.673 2.403 4.277 4.165 1.282 1.053-1.79.529-6.209.599-8.282.094-2.793.006-5.584.006-8.377-.001-6.817.961-13.607.834-20.422-.082-4.395-.315-12.362-5.858-13.418-6.104-1.163-13.607.006-19.854-.065-15.478-.177-30.93-.696-46.413-.575Z"/>
    <path fill="#89C5CC" d="M249.953 111.975c-5.096 0-10.192.031-15.287.115-4.37.072-11.24-.839-15.308.725-2.784 1.07-3.523 4.179 0 5.007 3.844.903 9.636-.574 13.657-.645 20.164-.356 40.522-.82 60.658.456 18.868 1.194 38.099 2.352 56.994 1.092 1.59-.107 9.698-.429 5.998-3.469-2.158-1.774-10.907-.607-13.712-.692-9.894-.298-19.798-.364-29.689-.739-9.763-.371-19.481-1.469-29.247-1.74-11.345-.316-22.715-.11-34.064-.11ZM244.854 82.993c7.942.346 15.8 11.864 7.764 17.431-7.539 5.223-21.667-.501-17.475-10.63-.603 1.465.762-1.59.779-1.611.797-.94 2.228-1.978 3.211-2.72 1.124-.846 2.295-1.78 3.651-2.203.89-.28.75.77 2.07-.267Zm-3.868-4.155c-3.717 1.452-5.413 3.089-7.968 6.05-1.767 2.052-4.021 3.13-4.001 5.9.005.614.792 1.288.929 1.879.188.816-.03 1.862.119 2.729 1.538 8.949 12.215 11.966 20.031 10.277 6.808-1.472 11.9-8.007 10.323-15.114-1.588-7.154-12.196-14.551-19.433-11.721Z"/>
    <path fill="#89C5CC" d="M237.675 91.332c0 3.219 5.086 3.219 5.086 0 0-3.183-5.086-3.32-5.086 0ZM244.037 90.68c0 2.558 4.041 2.558 4.041 0 0-2.53-4.041-2.637-4.041 0ZM245.288 95.955c-1.294.498-2.936-.534-3.998.146-1.881 1.204.005 2.294 1.013 2.778 4.54 2.179 5.348-3.83 2.985-2.924ZM314.628 88.82c-.136.058-.617.262 0 0Zm-19.773-2.89c-3.398.768-6.267 3.94-9.959 3.517-2.829-.326-4.745-3.056-7.538-3.453-3.573-.508-13.298 7.643-8.185 9.042 2.983.816 4.638-4.635 7.273-4.925 2.085-.23 4.92 2.327 7.08 2.69 4.03.68 6.798-1.54 10.335-2.971 3.845-1.556 6.032-.155 9.375 1.574 2.639 1.365 5.125 2.254 8.144 1.69 2.834-.528 6.394-3.442 9.247-3.143 2.794.293 4.788 3.209 7.662 3.479 1.185.112 2.949.515 2.75-1.313-.16-1.464-1.793-1.216-2.815-1.748-2.628-1.368-5.086-3.792-8.257-3.585-2.386.155-4.558 1.832-6.756 2.634-7.2 2.626-11.248-5.081-18.356-3.487Z"/>
    <path fill="#69A1AC" d="M300.871 132.3c-13.888.128-27.824.334-41.673 1.447-3.284.264-36.811 3.43-36.747 3.658.117.421 4.429 1.066 4.403 1.165-.291-.72-.955-1.019-1.993-.894 31.797 0 63.494-2.847 95.333-2.335 8.001.128 16.031.075 24.025.327 1.996.063 6.941 1.493 8.509.592 4.113-2.365-3.36-2.638-4.597-2.737-15.669-1.254-31.547-1.38-47.26-1.223ZM218.335 139.048c-2.077 2.082-.166 9.571-.084 12.385.118 4.07.022 8.168.379 12.227.408 4.636 1.039 9.576 2.255 14.074.67 2.478 3.023 6.416 3.955 1.913.665-3.216-.345-7.482-.697-10.758-.47-4.383-.584-8.709-.601-13.113-.016-3.837-.09-7.691-.405-11.516-.163-1.987-1.162-8.833-4.802-5.212Z"/>
    <path fill="#69A1AC" d="M270.573 177.187c-9.856.169-19.733.401-29.572 1.017-4.033.253-8.063.628-12.081 1.055-.819.087-9.894.455-5.839 3.804 1.83 1.512 9.359-.578 11.845-.796 4.183-.367 8.364-.605 12.558-.783 9.719-.412 19.467-.777 29.195-.608 17.767.308 35.419.446 53.19.05 2.525-.056 22.306.472 22.978-2.155.541-2.117-6.533-1.146-7.823-1.107-4.731.141-9.463.108-14.197.084-20.051-.103-40.218-.9-60.254-.561Z"/>
    <path fill="#69A1AC" d="M349.498 135.535c.313 8.776 1.807 17.541 2.285 26.342.218 4.024.475 8.044.672 12.069.064 1.298-.459 4.427 1.076 5.173 2.106 1.025 2.39-1.039 2.784-2.436 1.139-4.032.368-9.271.265-13.413-.1-4.012-.107-8.03-.403-12.034-.303-4.091-1.126-8.104-1.509-12.181-.161-1.724.404-4.592-1.426-5.662-1.582-.925-3.813.24-3.744 2.142ZM244.248 147.533c3.123.892 5.688.559 8.672 2.833 2.473 1.885 5.01 4.643 5.83 7.691 1.895 7.043-4.53 10.902-10.553 10.978-6.17.078-15.303-1.353-14.987-9.262.243-6.076 4.679-12.004 11.038-12.24Zm.22-3.98c-8.099.403-14.632 9.498-14.562 17.154.085 9.279 10.598 11.669 18.067 11.734 8.429.072 16.834-5.748 14.576-15.227-1.81-7.595-10.293-14.066-18.081-13.661Z"/>
    <path fill="#69A1AC" d="M236.32 156.011c0 2.588 4.088 2.588 4.088 0 0-2.558-4.088-2.668-4.088 0ZM244.896 154.876c0 2.608 4.12 2.608 4.12 0 0-2.578-4.12-2.689-4.12 0ZM240.169 160.777c-2.661 2.657 6.686 7.314 8.891 3.618 1.81-3.035-2.132-2.029-3.529-2.193-1.519-.179-4.123-2.661-5.362-1.425ZM314.903 154.929c-.256.108-.256.108 0 0Zm-35.102-4.324c-2.694.505-11.536 3.488-11.655 6.684-.219 5.81 8.441-.141 10.321-.905 5.108-2.076 7.792 2.159 12.924 2.382 4.456.194 8.554-3.62 12.752-3.169 4.399.473 6.514 5.152 11.592 2.668 2.687-1.314 2.619-3.341-.397-3.532-1.822-.115-3.075.638-4.975-.146-2.972-1.226-4.169-3.222-7.725-2.905-2.684.24-5.109 1.752-7.729 2.338-5.998 1.34-9.325-4.499-15.108-3.415ZM335.597 157.452c-.186.078-.186.078 0 0Zm.679-2.42c.233.295.03.013 0 0Zm-3.088-1.846c-.116.089-.116.089 0 0Zm.067-.023c.599.358 5.414 3.651 1.917 4.426-1.776.394-3.245-3.179-1.917-4.426Zm-1.594-3.648c-7.713 3.517.587 16.102 6.64 10.989 2.547-2.152 2.882-6.501.404-8.742-1.484-1.344-5.029-3.167-7.044-2.247Z"/>
    <path fill="#89C5CC" d="M259.255 199.11c-9.625.002-19.334-.2-28.946.371-1.617.096-7.779-.212-8.613 1.479-1.524 3.093 4.816 1.558 5.737 1.465 19.138-1.916 39.129-.814 58.33-.268 15.704.447 31.323.724 47.008 1.533 4.123.213 8.242.448 12.362.697 1.343.081 4.722.971 5.006-1.174.261-1.985-3.954-1.537-5.007-1.592-8.375-.441-16.744-.903-25.117-1.374-20.152-1.136-40.576-1.141-60.76-1.137Z"/>
    <path fill="#89C5CC" d="M221.387 202.549c-1.797 1.787-.955 8.61-1.005 10.866-.088 3.945-.274 7.886-.357 11.83-.087 4.122.033 8.263.277 12.379.102 1.728 1.521 10.08 3.754 5.3.998-2.136-.024-8.085-.009-10.505.028-4.405.265-8.791.484-13.189.188-3.781.195-7.566.361-11.348.052-1.206.195-9.044-3.505-5.333Z"/>
    <path fill="#89C5CC" d="M351.758 237.784c-9.367.96-18.884.506-28.286 1.215-8.103.611-16.199.861-24.323 1.033-18.396.389-36.823.767-55.166 2.3-4.18.349-8.356.72-12.547.907-2.096.094-10.893-.86-11.548 1.35-1.116 3.763 8.291 2.274 10.32 2.215 4.462-.129 8.903-.451 13.352-.79 18.704-1.425 37.478-1.851 56.222-2.444 10.193-.321 20.316-1.067 30.487-1.746 5.07-.338 10.153-.349 15.222-.677 1.327-.085 6.022.084 6.976-.984.655-.733.82-2.522-.709-2.379Z"/>
    <path fill="#89C5CC" d="M348.584 203.189c.321 8.983.829 17.957 1.132 26.94.091 2.701-.725 7.542.779 9.924 2.419 3.83 4.307-.223 4.749-2.61 1.398-7.533-.105-15.855-.496-23.434-.149-2.891.75-9.327-.647-11.915-1.331-2.465-5.637-2.218-5.517 1.095ZM332.857 215.982c3.589.972 4.113 8.774.064 9.351-6.027.859-3.391-7.742-.064-9.351Zm-1.005-3.102c-1.095-.034-3.621-.336-4.296.555-.564.746.006 2.318-.06 3.029-.237 2.538-2.301 4.004-1.378 7 .626 2.034 2.303 3.946 4.347 4.652 10.785 3.728 10.654-17.111 1.387-15.236ZM242.951 209.772l-.127-1.082c5.848 2.76 10.501 7.895 8.559 14.787-1.482 5.257-6.834 7.122-11.821 5.824-5.521-1.437-8.159-5.987-6.67-11.575.687-2.577 2.795-6.042 5.521-6.87 1.269-.386 4.075.597 4.538-1.084Zm-3.42-2.182c-1.479.099-2.919.716-4.126 1.558a6.737 6.737 0 0 1 4.126-1.558Zm.042-3.396c-3.653.111-6.048 2.323-8.215 4.98-.68.834-2.98 3.044-2.695 4.168.225.888.814 2.187 2.055 1.197-6.498 12.95 10.288 23.995 20.535 14.99 9.563-8.404.075-25.729-11.68-25.335Z"/>
    <path fill="#89C5CC" d="M236.254 216.223c0 1.725 2.677 1.725 2.677 0 0-1.724-2.677-1.724-2.677 0ZM240.823 216.518c0 1.752 2.72 1.752 2.72 0 0-1.753-2.72-1.753-2.72 0ZM242.895 222.672c-1.272.104-5.931-.329-6.748.786-1.367 1.862.814 1.927 1.885 2.129.965.181 5.159.078 5.75-.778.522-.757.4-2.246-.887-2.137ZM299.019 217.842c-.219.09-.219.09 0 0Zm-17.601-1.287c-2.868.21-5.296 1.86-8.038 2.518-2.926.703-4.193-.59-6.854-1.436-2.768-.879-4.737-.532-6.962 1.359-1.26 1.071-4.026 3.536-3.238 5.439 1.804 4.356 5.888-2.731 7.809-3.06 2.996-.514 5.662 2.106 9.118 1.356 3.131-.678 5.909-2.828 9.179-2.851 2.735-.02 5.312 1.476 8.012 1.838 4.122.553 6.828-.91 10.638-1.997 3.304-.941 5.62.301 8.728 1.346 1.42.477 6.159 2.213 5.287-.935-.247-.889-6.492-2.479-7.46-2.785-3.414-1.078-5.576-.658-8.829.582-2.712 1.035-4.994 1.538-7.902.969-3.204-.627-6.118-2.599-9.488-2.343Z"/>
  </g>
  <g fill-rule="evenodd" clip-rule="evenodd" opacity=".5">
    <path fill="#69A1AC" d="M413.354 72.2c.463-9.955 1.099-19.898 1.434-29.86.167-4.937.297-9.874.423-14.812.027-1.1.056-2.198.081-3.298.081-3.735-.362-4.041 3.397-4.372 16.769-1.481 33.605-1.971 50.394-3.31 20.249-1.615 40.603-2.731 60.909-3.231 9.023-.222 18.085-.683 27.11-.403 1.999.063 5.924-.458 6.712 1.097.34.67-.374 2.982-.464 3.757-.283 2.42-.547 4.849-.71 7.282-.96 14.347-.388 29.056 2.39 43.186-6.517-3.675-14.751-6.836-22.347-6.208-7.744.639-13.537 5.113-19.736 9.232-3.506 2.329-4.687 2.942-8.185.685-3.015-1.945-5.867-4.168-8.711-6.351-4.389-3.367-8.531-7.02-12.787-10.55-7.825-6.492-18.607-15.733-29.415-13.012-7.722 1.944-14.852 6.188-21.554 10.34-9.958 6.172-18.971 13.729-28.941 19.829ZM547.558 8.494c-38.473 0-76.658 3.73-115.023 5.747-4.007.21-8 .52-11.992.906-2.661.257-9.168-.821-10.912 1.452-1.164 1.517-.164 1.745 0 3.186.206 1.816.084 3.968.031 5.89-.128 4.634-.263 9.266-.368 13.899-.397 17.51-.646 35.016.063 52.522.155 3.817 1.546 9.103.785 12.813-.551 2.686-2.393 4.32 1.855 4.817 4.18.488 9.291-.754 13.475-1.152 4.208-.401 8.415-.835 12.628-1.183 18.317-1.509 36.812-1.281 55.178-1.783 18.53-.506 37.068-.538 55.605-.548 7.756-.005 16.619.431 24.187-1.703 2.662-.751 3.093-1.121 2.436-3.763-.124-.501-.928-.686-1.164-1.593-.321-1.233-.156-2.731-.231-4.015-.245-4.192-.331-8.391-.528-12.586-.33-7.01-1.538-13.811-2.432-20.75-1.031-8.011-.978-16.147-.999-24.212-.012-4.473.103-8.932.462-13.393.231-2.861 1.64-7.133.925-9.801-.356-1.328-.938-2.382-2.321-2.954-.876-.362-1.613-.08-2.479-.17-1.027-.11-1.668-.254-2.898-.532-5.273-1.195-10.911-1.094-16.283-1.094Z"/>
    <path fill="#89C5CC" d="M526.266 27.542c-.003 2.788-.438 6.903.848 9.528 1.63 3.33 3.67 2.29 4.21-.84.31-1.793.302-7.1-.274-8.688-.815-2.248-4.784-3.78-4.784 0Z"/>
    <path fill="#89C5CC" d="M530.945 28.618c-2.618.093-10.242-.536-12.013 1.569-3.038 3.61 2.251 4.249 4.522 4.047 2.628-.233 10.748.337 12.508-1.77 2.944-3.525-2.959-3.921-5.017-3.846ZM429.362 121.769c11.508 1.999 7.928 19.545-2.962 15.481-3.794-1.416-9.384-5.508-7.287-10.329 1.566-3.603 6.672-5.495 10.249-5.152Zm-4.765-5.456c-7.484 1.26-12.601 9.359-10.035 16.424 2.476 6.816 11.865 11.807 18.79 9.357 6.61-2.338 9.908-11.134 7.68-17.568-2.329-6.722-9.915-9.311-16.435-8.213ZM494.595 123.821c-2.865.238-5.341 2.244-8.224 2.599-2.696.332-4.93-.59-7.454-1.328-3.051-.89-5.849-1.282-8.967-.491-2.382.605-4.732 2.227-7.207 2.422-4.87.385-10.53-5.171-14.332 1.113-1.823 3.013.824 4.953 3.55 3.548 2.842-1.464 1.447-1.989 4.973-1.123 2.941.721 5.319 1.112 8.265.102 2.669-.916 5.012-2.591 7.913-2.779 2.841-.185 5.312 1.109 8.027 1.668 3.339.686 6.293.166 9.457-.88 3.009-.996 4.21-1.54 7.247-.652 1.922.562 6.123 2.349 7.994.909 3.236-2.489-1.096-2.853-2.802-3.207-2.747-.569-5.589-2.134-8.44-1.901ZM560.163 122.149l.068.053-.068-.053Zm-2.813-.589c4.183.27 8.706 7.889 3.164 8.16-3.901.19-8.266-6.482-3.164-8.16Zm-.587-6.235c-13.226 3.694-7.18 22.341 5.578 20.187 5.795-.978 7.759-7.692 5.843-12.662-.823-2.134-2.427-3.934-4.344-5.162-1.414-.906-5.46-2.813-7.077-2.363Z"/>
    <path fill="#69A1AC" d="M495.055 154.254c11.639-.399 23.279-.799 34.93-.907 6.314-.058 12.594.052 18.899.414 2.797.16 5.591.315 8.39.434.482.02 1.149-.013 1.885-.049 1.732-.085 3.847-.189 4.842.337 5.566 2.945-5.774 3.267-7.152 3.244-3.087-.052-6.171-.204-9.255-.357-2.695-.133-5.39-.266-8.088-.332-17.307-.426-34.719.352-52.056 1.126-3.974.178-7.944.355-11.908.517-4.209.173-8.416.285-12.623.397-6.015.159-12.029.319-18.043.657-2.296.129-4.592.266-6.889.402-3.289.196-6.578.392-9.869.565-2.576.136-5.153.268-7.732.333-.465.012-1.07.076-1.731.147-1.599.17-3.523.376-4.563-.049-1.25-.512-2.261-1.227-1.574-2.742.582-1.281 2.695-1.128 4.235-1.016.421.031.799.058 1.091.053 4.924-.096 9.837-.372 14.752-.673 1.798-.11 3.595-.223 5.392-.336h.001c9.357-.589 18.705-1.177 28.085-1.337 9.664-.165 19.322-.496 28.981-.828Zm60.789 76.604 3.346-.041c1.728.151 2.501 1.964 1.392 3.358-.85 1.068-4.119 1.116-6.25 1.148-.591.008-1.094.016-1.434.043-5.563.447-11.115.649-16.695.702-11.75.112-23.456.615-35.187 1.284-12.008.685-24.026.942-36.045 1.2h-.001c-8.842.189-17.685.379-26.524.738-5.062.206-10.125.36-15.189.493-.544.014-1.268.092-2.087.181-3.199.345-7.847.847-8.9-1.693-.935-2.255.364-3.293 2.264-3.765-.3-1.335-.244-3.211-.212-4.286.009-.323.017-.574.012-.715a363.865 363.865 0 0 1-.115-4.044c-.038-1.527-.075-3.054-.134-4.58-.053-1.386-.103-2.773-.153-4.16-.196-5.473-.392-10.958-.813-16.409-.195-2.516-.503-5.002-.811-7.484-.491-3.963-.982-7.915-1.004-11.961-.004-.728-.041-1.638-.082-2.664-.21-5.253-.542-13.557 2.718-16.086 5.749-3.354 4.613 6.329 4.105 10.65-.083.713-.15 1.281-.166 1.619-.33 7.186.118 14.055.842 21.195.488 4.822.203 9.628-.083 14.442-.102 1.719-.204 3.44-.271 5.162-.033.852-.062 1.704-.092 2.556-.09 2.621-.181 5.239-.378 7.857-.022.283-.029.826-.038 1.52-.026 1.958-.067 5.115-.486 7.032a45.695 45.695 0 0 1 2.473-.021c.456.005.85.009 1.152 0l4.118-.122c4.053-.119 8.107-.237 12.16-.39 9.568-.36 19.139-.48 28.71-.6 11.305-.142 22.609-.284 33.908-.821 18.622-.885 37.308-1.112 55.95-1.338Zm3.454-70.249c-.01 12.309.942 24.281 2.054 36.54a697.368 697.368 0 0 1 1.678 22.798c.021.352.017.939.014 1.674v.001c-.023 4.204-.071 13.262 4.084 11.095 3.137-1.636 1.931-11.123 1.264-16.372v-.001c-.146-1.151-.267-2.099-.31-2.715l-.271-3.938c-.418-6.094-.835-12.184-1.385-18.271l-.116-1.283c-.636-7.031-1.272-14.057-1.385-21.12-.009-.584.047-1.398.111-2.317.183-2.659.428-6.2-.677-7.613-1.554-1.987-5.058-1.399-5.061 1.522Z"/>
    <path fill="#89C5CC" d="M495.587 190.784c14.866-6.726 29.906-13.53 45.366-18.375 1.117-.35 1.824.802 1.57 1.769-.262.996-2.68 1.846-4.284 2.41-.48.169-.887.312-1.141.425-2.159.965-4.324 1.917-6.489 2.87-2.217.975-4.434 1.951-6.645 2.939-4.598 2.054-9.2 4.1-13.802 6.145-4.929 2.19-9.857 4.38-14.78 6.582l-.56.25a780.71 780.71 0 0 1 19.977 7.425c2.265.874 4.522 1.768 6.779 2.661 1.277.505 2.553 1.01 3.832 1.512.416.163 1.141.385 2.012.651 2.838.866 7.228 2.207 7.553 3.561.528 2.206-5.534.072-7.82-.733a32.87 32.87 0 0 0-.687-.237c-3.375-1.079-6.709-2.28-10.041-3.481l-.461-.167c-2.642-.951-5.279-1.913-7.916-2.875-5.152-1.878-10.303-3.757-15.483-5.559a813.61 813.61 0 0 0-2.198-.762 2379.14 2379.14 0 0 0-24.876 11.332 860.729 860.729 0 0 0-13.241 6.284c-.96.465-2.148 1.183-3.44 1.964-3.094 1.87-6.778 4.097-9.312 4.041-1.359-.03-2.275-.321-2.417-1.968-.146-1.7 2.035-2.591 3.603-3.232.375-.154.715-.293.98-.425 4.7-2.351 9.429-4.642 14.172-6.904 9.42-4.493 18.928-8.807 28.47-13.035l.164-.073a1125.769 1125.769 0 0 0-15.916-5.25c-.531-.171-1.62-.472-3.051-.869-6.761-1.872-21.163-5.861-20.522-8.191.735-2.665 14.238 2.206 20.215 4.363 1.121.404 1.977.713 2.435.859a931.566 931.566 0 0 1 21.364 7.068c2.193-.985 4.39-1.979 6.59-2.975ZM431.887 249.323c4.351.762 7.421 4.937 6.944 9.309-.646 5.907-6.533 8.614-11.972 7.843-6.171-.875-7.469-6.091-4.479-11.11.662-1.111 1.423-2.441 2.627-3.026.827-.402 1.881-.046 2.547-.37 2.336-1.137.931-2.948 4.333-2.646Zm-1.982-3.859c-5.31.678-15.121 6.823-14.625 12.971.431.713 1.079 1.005 1.944.875a9.553 9.553 0 0 0 .204 3.953c.504 1.692 1.511 3.079 2.859 4.181 2.777 2.269 6.573 2.826 10.031 2.428 6.457-.742 11.545-5.155 11.908-11.87.354-6.556-5.368-13.416-12.321-12.538ZM455.625 253.464c-2.383 1.263-6.152 3.202-7.549 5.601-1.476 2.533.052 5.304 3.162 4.106 2.469-.952 4.039-3.974 6.673-4.943 2.324-.854 3.26-.419 5.717.432 2.531.877 4.743 1.725 7.479 1.51 3.439-.27 6.417-2.264 9.783-2.718 2.834-.382 5.171.721 7.885 1.159 3.149.509 5.208-.683 8.154-1.303 2.004-.423 5.536 1.295 6.998.653 3.286-1.445-.191-3.212-2.01-3.796-3.065-.983-4.951-.115-7.866.7-3.165.885-4.532.22-7.558-.593-6.121-1.645-10.85 2.332-16.652 1.609-5.371-.67-8.586-5.398-14.216-2.417ZM555.714 250.525c5.892 5.524-.727 13.383-7.223 8.969-2.286-1.554-2.323-4.05-.544-6.283 1.628-2.042 5.203-2.838 7.767-2.686Zm-2.184-4.463c-5.504 1.07-10.696 3.596-11.195 9.949-.486 6.199 5.872 9.077 11.213 8.671 11.992-.913 11.125-20.774-.018-18.62Z"/>
  </g>
  <path fill="#C1DEE2" fill-rule="evenodd" d="M789.859.007c-6.84.099-23.703 1.965-26.21 8.03-1.904 4.606 3.75 3.595 6.78 1.919 4.1-2.266 7.7-3.622 12.78-4.311 19.35-2.628 37.94 6.795 57.1 7.987 7.26.452 16.03.746 22.96-1.02 4.93-1.256 5.58-3.997-.06-4.415-4.78-.354-10.08.763-14.99.732-20.3-.131-38.35-9.21-58.36-8.922Z" clip-rule="evenodd" opacity=".5"/>
  <g fill-rule="evenodd" clip-rule="evenodd" opacity=".5">
    <path fill="#89C5CC" d="M221.287 287.551a486.82 486.82 0 0 0-25.252.937c-7.995.507-16.67.122-24.535 1.672-2.234.44-5.251 2.476-2.281 4.714 2.087 1.574 9.724-.236 12.216-.389 9.179-.564 18.363-1.24 27.555-1.565 8.702-.308 17.403-.416 26.11-.503 1.329-.013 3.535-.439 4.859-.053 1.902.555 1.451.705 1.593 3.119.258 4.375.187 8.764.1 13.143-.084 4.236-.241 8.473-.225 12.711.01 3.024-.956 9.034.561 11.66 2.184 3.78 4.45-.326 4.613-2.838.313-4.804.173-9.668.174-14.479.001-4.515.034-9.031-.125-13.544-.116-3.26.35-8.951-1.406-11.915-1.789-3.019-6.096-2.368-9.238-2.511-4.902-.226-9.813-.21-14.719-.159Z"/>
    <path fill="#89C5CC" d="M167.688 293c.009 8.484-.973 16.911-1.248 25.386-.126 3.896-.382 8.175.604 11.999.995 3.862 4.155 4.699 4.519.388.737-8.731.557-17.784 1.13-26.584.203-3.107 1.522-8.802.291-11.711-1.084-2.563-5.301-3.054-5.296.522Z"/>
    <path fill="#89C5CC" d="M246.684 330.397c-14.63 1.937-29.924 1.231-44.659 1.535-7.069.146-14.136.155-21.206.229-2.468.026-8.734-.913-10.868.474-3.398 2.208.288 3.912 2.538 3.961 13.952.306 28.06-.336 42.009-.794 6.267-.205 12.555-.306 18.806-.839 3.848-.328 8.053-.645 11.79-1.679.796-.221 2.53-.175 2.708-1.261.11-.672-.089-1.768-1.118-1.626ZM185.848 342.729c-4.066.024-16.319-1.864-18.003 2.1-2.245 5.288 6.513 4.054 8.868 3.994 5.35-.138 10.695-.153 16.046-.15 5.25.002 10.5-.032 15.749-.157 1.521-.036 5.061.595 5.936-1.236.665-1.392.139-2.49-1.087-3.227-2.951-1.773-10.616-.745-14.07-.904-4.473-.206-8.961-.42-13.439-.42ZM235.315 343.708c-2.324.139-7.024-.819-9.106.244-2.366 1.209-1.531 3.102.511 3.933 1.415.576 7.217.274 8.595-.393 1.436-.696 3.06-3.972 0-3.784ZM260.792 293.832c-2.482.681-1.729 14.771-1.793 17.005-.175 6.119-.863 13.816 1.17 19.71 1.297 3.757 3.788 3.248 3.363-.708-.372-3.472-1.012-6.903-1.289-10.398-.625-7.907-1.477-16.341-.886-24.255.252.46 2.606 4.725 3.16 4.407-.167.099-2.715-6.027-3.725-5.761Z"/>
    <path fill="#89C5CC" d="M288.708 288.643c-5.023.074-10.045.163-15.066.302-3.993.111-10.266-.545-13.927 1.135-4.36 1.999-2.292 6.454 1.803 6.549 3.623.083 7.486-.734 11.141-.859 9.873-.338 19.764-.41 29.641-.495 8.934-.077 18.247.876 27.102-.465 1.313 11.662-2.239 23.374-1.031 35.171.187 1.831.103 4.418 2.435 4.835 2.943.527 3.064-2.388 3.175-4.475.319-5.959.146-11.923.583-17.89.404-5.53 1.2-11.181.527-16.72-.827-6.815-4.093-6.269-9.866-6.552-12.193-.598-24.31-.715-36.517-.536Z"/>
    <path fill="#89C5CC" d="M271.876 330.056c-2.56.064-6.81-.724-8.45 1.73-1.706 2.553.318 4.78 2.799 5.304 2.937.62 6.766-.23 9.814-.239 3.174-.009 6.349.026 9.523.038 13.608.054 27.274.26 40.873-.303 1.899-.078 7.289.558 8.603-1.263 1.167-1.616.351-3.065-1.186-3.888-2.52-1.351-7.696-.837-10.499-.944-3.462-.132-6.929-.175-10.392-.229-13.672-.211-27.415-.544-41.085-.206ZM283.387 341.859c-5.092.087-10.526-.136-15.568.636-4.433.679-4.979 4.965-.207 5.466 4.386.461 9.703-.4 14.11-.683 1.565-.101 3.385.042 4.135-1.688.783-1.808-.714-3.542-2.47-3.731ZM321.886 342.309c-2.718.068-10.657-1.1-12.004 2.004-2.241 5.169 8.507 3.205 10.569 3.129 2.599-.096 12.727 1.422 12.729-2.715.002-4.057-8.805-2.479-11.294-2.418Z"/>
    <path fill="#69A1AC" d="M167.248 367.993c.007 9.403-.579 18.894.279 28.272.355 3.879.294 11.31 2.541 14.598 1.595 2.335 3.807 2.171 4.678-.632.582-1.874-.349-5.621-.453-7.625-.1-1.924-.217-3.847-.306-5.771-.229-4.957-.21-9.907-.142-14.867.058-4.255 1.082-9.883.117-13.975-.901-3.813-6.714-4.705-6.714 0Z"/>
    <path fill="#69A1AC" d="M261.746 359.721c-16.313.409-32.663.044-48.961.851-8.038.398-16.045 1.273-24.043 2.144-3.929.429-7.856.871-11.778 1.354-1.184.146-11.019.527-7.32 4.267 1.615 1.634 6.755-.072 8.789-.313 3.939-.465 7.885-.87 11.828-1.287 7.505-.794 15.018-1.546 22.555-1.963 17.749-.984 35.572-.689 53.338-1.344 4.806-.177 9.598-.304 14.406-.115 1.262.049 10.54.521 6.512-2.906-1.905-1.62-9.086-.784-11.466-.833-4.62-.095-9.242.029-13.86.145Z"/>
    <path fill="#69A1AC" d="M283.984 375.562c-.08-4.344-.161-8.688-.359-13.029-.208-4.571 6.019-5.263 7.865-1.563 1.33 2.664 1.096 7.196.895 11.081-.08 1.565-.156 3.026-.121 4.216.079 2.728.28 5.55.483 8.408.512 7.194 1.041 14.625-.304 21.416-.654 3.3-3.437 5.034-5.29 3.236l-.008.011c-.697 1.027-2.866 1.025-4.464 1.023-.44 0-.837-.001-1.147.02-4.377.298-8.673.8-13.012 1.45-8.644 1.296-17.213 2.092-25.95 2.308-5.929.147-11.866.196-17.804.246-11.372.094-22.749.188-34.085.966-3.822.263-7.585.713-11.344 1.432-.32.061-.676.14-1.054.225-2.795.621-6.842 1.521-7.118-2.385-.329-4.636 9.719-5.244 14.89-5.556.79-.048 1.466-.089 1.973-.136 15.701-1.46 31.648-1.234 47.415-1.01a1725.965 1725.965 0 0 1 5.981.089c6.751.112 13.494.223 20.242-.19 3.071-.188 6.183-.285 9.3-.381 4.973-.154 9.96-.309 14.824-.836-.734-2.844-.862-6.2-.983-9.363a112.34 112.34 0 0 0-.173-3.566c-.427-6.029-.54-12.07-.652-18.112Z"/>
    <path fill="#C1DEE2" d="M297.187 365.882c-2.204.3-4.042 2.186-3.058 4.578 1.239 3.012 4.93 1.835 7.368 1.645 7.75-.608 15.842.605 23.499-.31 2.091-.25 5.124-1.389 3.247-4.198-1.411-2.112-6.553-1.741-8.739-1.944-7.475-.691-14.852-.507-22.317.229ZM310.266 379.023c-3.005.202-10.002.043-11.269 3.463-2.272 6.135 6.627 3.973 9.337 3.625 3.147-.406 10.567.68 12.243-2.373 2.997-5.458-7.675-4.897-10.311-4.715ZM302.538 392.487c-1.426 1.426-1.428 3.973 0 5.4 1.748 1.747 5.558 1.384 7.855 1.511 3.204.179 12.407 1.874 13.998-1.899 2.147-5.091-6.187-4.984-8.928-5.273-3.168-.333-10.299-2.366-12.925.261Z"/>
    <path fill="#89C5CC" d="M190.215 305.348c0 5.473 8.548 5.473 8.548 0 0-5.444-8.548-5.527-8.548 0ZM206.43 305.41c0 6.257 9.737 6.244 9.737 0 0-6.235-9.737-6.299-9.737 0ZM196.621 313.729c-4.732 1.307-.372 5.318 1.825 6.234 3.493 1.457 8.26 2.53 11.753.347 1.39-.869 2.518-2.024 1.5-3.71-1.086-1.795-2.571-.997-4.224-.832-2.093.211-3.785.179-5.806-.493-1.509-.501-3.402-1.999-5.048-1.546ZM282.468 305.694c0 3.702 5.748 3.702 5.748 0 0-3.701-5.748-3.701-5.748 0ZM295.181 306.251c0 4.113 6.386 4.114 6.386 0 0-4.113-6.386-4.113-6.386 0ZM294.707 315.177c-3.354.433-13.056 1.416-13.599 5.551-.837 6.379 9.793 1.216 12.219.715 3.091-.638 5.85-.471 8.935-.347 1.694.068 3.947.342 3.769-2.238-.291-4.237-8.392-4.056-11.324-3.681Z"/>
    <path fill="#69A1AC" d="M210.37 374.004c-2.432.648-5.612 4.852-3.939 7.424 2.743 4.219 3.952-2.259 5.1-2.882 2.089-1.135 3.784 3.011 5.967.836 3.444-3.431-4.96-5.959-7.128-5.378ZM238.229 370.885c-2.883.026-8.97 4.109-9.401 7.123-.256 1.791.931 3.511 2.862 3.535 2.629.032 3.464-3.386 5.743-4.1 2.458-.771 2.093 1.004 4.216 1.924 1.554.674 3.497.392 4.036-1.518 1.019-3.603-4.493-7.021-7.456-6.964ZM216.158 388.143c-4.612 2.702 2.976 8.495 5.607 9.22 3.971 1.093 11.964-.948 12.905-5.799.375-1.931-.833-3.68-2.964-3.334-1.754.285-2.879 2.486-4.504 3.274-2.194 1.063-4.144.991-6.008-.61-1.518-1.305-2.331-4.329-5.036-2.751Z"/>
    <path fill="#C1DEE2" d="M219.5 428.075c-4.12.878-8.309.289-12.449 1.115-4.222.843-6.745 2.438-10.667.831l-.553-.234c-3.036-1.307-6.218-1.695-9.395.39-1.881 1.233-7.59 5.498-6.902 8.101 1.491 5.643 7.915-3.206 9.553-4.068 3.124-1.644 5.265.457 8.481 1.049 3.852.711 6.951-1.325 10.58-2.135 4.243-.949 9.017-1.279 13.335-1.786 1.705-.201 8.166 1.148 8.749-.975 1.002-3.646-9.112-2.632-10.732-2.288ZM249.227 439.439c.27.204.054.04 0 0Zm11.54-11.585c3.527-.358 14.813-2.878 17.13.767 1.51 2.374-.886 11.137-3.17 12.27-1.827.905-6.08-.096-8.084-.167-3.729-.131-7.465-.189-11.19-.422-1.249-.078-5.268.152-6.247-.953-1.156-1.306-1.105-8.265-1.377-9.99 3.243 1.049 9.547-1.161 12.938-1.505Zm7.532-3.574c-4.517.196-9.034.536-13.518 1.142-2.499.337-5.032 1.235-7.34 1.661-.744.137-1.952-.243-2.864.197-2.667 1.288-.332 9.998.311 12.325.988 3.574 3.473 4.153 6.956 4.49 4.587.444 9.268.304 13.87.248 4.435-.054 10.416.929 12.905-3.522 1.609-2.878 3.334-9.579 1.959-12.786-1.809-4.219-8.564-3.91-12.279-3.755Z"/>
    <path fill="#89C5CC" d="M318.89 441.833c-.242.31-.242.31 0 0Zm.99-1.193c-.075.113-.422.479 0 0Zm-10.774-.328c1.992-.375 3.984-.746 5.977-1.109-1.887 2.642-3.875 1.55-7.101 1.32l1.124-.211Zm-9.5-.935 1.514-.507a2.06 2.06 0 0 0 .247 1.079c-.864-.093-1.727-.193-2.59-.3l.829-.272Zm-4.403-3.251c-.028-.694 1.014-.218 1.612-.264-1.152 1.014-1.69 1.102-1.612.264Zm15.745-7.865c.152-.193.353-.183.603.029-.273.092-1.323.537-.603-.029Zm10.211-1.201c.594.765.027 0 0 0Zm-.286-.25c.148.113.148.113 0 0Zm-1.275-.149c2.088.352 1.93 2.802 0 0Zm-24.528-.167c-.279.01-.424.352 0 0Zm7.984-5.217c-3.544.207-10.051-.001-13.011 1.887-3.863 2.466-1.83 10.951-1.484 14.671.51 5.499 3.098 7.064 8.276 7.641 6.18.689 12.529.818 18.741.654 5.594-.147 8.78-2.071 9.805-7.961.314-1.802 1.11-4.59 1.085-6.316-.017-1.198-.614-1.744-.839-2.762-1.285-5.797-3.434-6.484-9.375-6.737-4.373-.186-8.907-1.301-13.198-1.077Z"/>
  </g>
  <g fill-rule="evenodd" clip-rule="evenodd" opacity=".5">
    <path fill="#89C5CC" d="M490.811 288.102c9.012.192 19.236 5.18 17.811 15.746-1.044 7.74-7.745 14.024-15.507 14.565-8.342.582-17.162-5.82-18.295-14.313-1.275-9.554 7.179-16.189 15.991-15.998Zm-4.419-4.301c-3.654.545-7.145 2.464-10.362 4.182-1.228.657-7.453 4.658-2.57 5.652-11.765 18.974 15.922 36.597 31.489 24.266 6.991-5.538 10.671-16.037 6.152-24.255-4.673-8.499-15.756-11.19-24.709-9.845Z"/>
    <path fill="#89C5CC" d="M484.238 299.951c0 3.544 5.5 3.544 5.5 0 0-3.543-5.5-3.543-5.5 0ZM494.436 300.519c0 3.842 5.964 3.842 5.964 0s-5.964-3.842-5.964 0ZM487.554 308.116c-.803 2.915 8.348 4.41 8.653 1.036.145-1.611-8.095-3.069-8.653-1.036ZM514.378 306.315c10.53-1.263 21.386-.679 31.966-.376 2.648.076 5.296.15 7.944.194 1.683.029 5.319.837 6.789.049 6.017-3.227-5.787-4.788-7.458-4.936-10.524-.866-26.765-1.175-37.32-.766-3.122.121-3.797 6.06-1.921 5.835Z"/>
    <path fill="#C1DEE2" d="M561.759 358.658c.09-11.032.486-22.139 1.334-33.138.345-4.484.76-8.961 1.103-13.444.162-2.112.912-5.07-.329-6.923-1.279-1.909-4.085-2.306-5.776-.614-2.024 2.62-1.436 7.017-1.688 10.187-.387 4.873-.854 9.743-1.087 14.627-.449 9.453-.554 19.07.206 28.509.359 4.454 1.136 8.8 2.171 13.144.471 1.978 4.218 10.786 3.431 12.001-1.221 1.884-10.246 1.172-12.204 1.224-5.024.135-10.049.223-15.074.319-4.302.082-8.604.141-12.907.179-1.708.015-11.746-.289-9.519 2.244-24.9 1.735-50.275-1.162-75.023-2.155-1.25-.051-3.295-.405-5.183-.508-.226-.911-.412-1.726-.458-2.293-.325-3.977-.41-7.968-.763-11.944-.645-7.275-1.896-14.477-2.64-21.74-.743-7.255-.668-14.532-1.101-21.805-.074-1.246-.249-11.454-2.825-13.934 1.221.463 3.191.523 4.325.431 9.18-.74 18.293-2.335 27.395-3.705 2.604-.391 8.513-.114 10.673-1.415 1.869-1.127 2.609-5.078-.643-4.758-9.076.972-18.102 2.481-27.106 3.966-2.409.397-4.811.822-7.213 1.257-1.604.289-5.838.267-7.082 1.234-1.511 1.174-1.671 1.973-1.159 2.504-.712-.196-1.565.112-2.59 1.137-1.938 2.522-.116 8.733.115 11.69.277 3.547.414 7.1.575 10.653a176.715 176.715 0 0 0 2.138 20.451c1.24 7.61 2.295 15.252 3.538 22.86a52.703 52.703 0 0 0 1.284 5.827c-3.349 1.713-1.072 4.436 1.583 4.919l.058.01c.828 2.019 1.986 3.889 2.89 1.184.069-.207.102-.463.11-.75 6.859.776 14.399.294 21.152.57 14.628.598 29.346 1.495 43.989 1.04 5.797-.18 11.611-.695 17.359-1.468 3.368-.453 6.749-.994 10.063-1.745.237-.053.598-.11 1.015-.179l.201-.004a575.958 575.958 0 0 0 15.215-.424c4.256-.177 8.531-.267 12.773-.669 2.635-.249 8.204-.203 9.821-2.853 1.471-2.409-.988-8.616-1.337-11.322-.614-4.766-.849-9.576-.81-14.377Z"/>
    <path fill="#89C5CC" d="M510.335 326.803c-4.055.347-7.804 2.251-11.896 2.275-3.435.02-6.816-1.007-10.27-.855-4.051.176-6.28 2.796-9.828 3.673-2.825.697-4.605-1.465-7.09-2.422-3.137-1.208-5.455-.584-8.144 1.243-1.976 1.343-6.584 4.356-6.548 7.071.106 8.226 9.703-3.137 11.637-3.275 2.571-.183 5.443 2.747 8.178 2.914 3.616.222 5.934-2.109 9.264-2.959 3.367-.859 7.007.194 10.383.52 3.851.373 7.222-.486 10.948-1.405 3.611-.891 6.688-.844 10.357-.096 2.476.505 8.645 3.441 9.729-.334 1.475-5.141-13.886-6.591-16.72-6.35ZM511.569 342.491c-8.308.807-16.667 1.514-25.013 1.74-3.615.099-17.511-1.451-16.279 3.143 1.057 3.938 19.967 1.458 23.819 1.158 4.252-.33 8.497-.792 12.729-1.327 1.499-.19 5.12.006 6.178-1.251 1.009-1.2.512-3.657-1.434-3.463ZM454.253 363.41c-.189.08-.189.08 0 0Zm1.753-.024c2.071-.065 1.627-1.158 3.693-.588.953.262 1.051-.127 1.79.783 1.441 1.777.084 5.647-1.337 7.079-5.261 5.302-11.575-7.038-4.146-7.274Zm0-5.202c-14.403.484-8.377 22.733 4.159 18.191 5.177-1.875 8.431-10.325 5.386-15.074-1.481-2.31-3.37-2.721-5.852-2.881-.576-.037-1.301.8-1.66.762-.855-.09-.775-1.045-2.033-.998ZM490.45 364.173c-.257-.08 4.547 1.317 4.022.77 1.122 1.167-.387 3.926-1.656 4.407-3.073 1.167-4.797-3.612-2.366-5.177Zm2.132-6.033c-4.51.639-7.99 2.517-8.607 7.532-.569 4.629 2.559 9.316 7.492 9.407 10.754.196 11.081-18.33 1.115-16.939ZM541.672 364.375c.629 8.22-7.894.696 0 0Zm-3.658-8.794c-.746 1.274-.11 2.626 1.015 3.367-10.054 2.125-7.777 17.254 2.454 15.019 5.203-1.137 6.159-6.608 5.384-11.125-.369-2.148-5.722-12.615-8.853-7.261Z"/>
  </g>
  <path fill="#C1DEE2" fill-rule="evenodd" d="M600.406 376.534c-4.65.621-15.642 4.476-15.546 8.617.148 6.463 9.491-.597 11.569-1.546 11.163-5.101 25.622 1.509 37.245 2.915 5.33.644 15.755 1.836 20.462-.846 8.371-4.768-10.989-3.574-13.454-3.766-13.402-1.039-26.735-7.19-40.276-5.374Z" clip-rule="evenodd" opacity=".5"/>
  <g fill-rule="evenodd" clip-rule="evenodd" opacity=".5">
    <path fill="#C1DEE2" d="M703.364 324.457c-.003 5.678-.29 11.474.757 17.085.317 1.698.566 4.951 2.358 5.833 1.8.885 3.545-.11 3.992-1.955.522-2.146-.622-5.359-.738-7.612-.159-3.079-.17-6.161-.171-9.243-.001-2.226.731-5.807-1.897-6.952-1.953-.851-4.301.732-4.301 2.844Z"/>
    <path fill="#C1DEE2" d="M793.128 315.476c-18.81 1.889-37.893 2.281-56.774 3.266-8.727.455-19.275-.126-27.497 3.253-1.527.627-6.995 4.119-2.556 5.541 1.384.443 2.79-1.048 3.926-1.547 1.892-.831 4.083-1.088 6.101-1.413 17.156-2.755 35.101-2.275 52.43-3.562 4.45-.33 8.89-.67 13.32-1.106 3.17-.312 9.82-2.594 12.74-1.427 5 1.995 4.88 14.955 4.98 19.412.05 2.305-2.19 10.579 2.26 9.74 3.56-.671 2.27-9.267 1.99-11.618-.72-6.164-1.97-21.446-10.92-20.539Z"/>
    <path fill="#89C5CC" d="M800.068 347.334c-16.34 1.476-33.057.028-49.466.608-8.6.305-17.192.79-25.794 1.074-3.72.123-7.444.128-11.166.154-1.78.012-9.881 1.092-4.87 4.621 2.219 1.563 9.291.304 11.837.274 3.825-.045 7.647-.204 11.469-.354 8.852-.346 17.699-.826 26.556-1.065 8.472-.23 16.944-.279 25.424-.508 4.21-.115 8.49-.244 12.66-.859.95-.14 4.01-.25 4.66-1.301.62-.994.19-2.788-1.31-2.644Z"/>
    <path fill="#C1DEE2" d="M719.757 335.066c-.088.208-.088.208 0 0Zm7.076-2.151c.258.11.258.11 0 0Zm-.331-.059c3.813 3.887-2.051 8.526-5.624 4.733-3.791-4.026 3.169-4.72 5.624-4.733Zm-4.045-5.881c-13.135 2.337-8.485 19.844 3.784 17.314 5.386-1.111 8.466-6.537 6.612-11.749-.724-2.036-2.303-4.271-4.501-4.913-1.097-.32-2.066.183-3.11.066-.996-.112-1.549-.941-2.785-.718ZM772.728 331.902c-7.921.025-15.843.362-23.763.512-2.429.046-8.673-1.041-8.682 2.788-.011 4.092 6.944 2.581 9.258 2.526 7.856-.188 15.732-.532 23.557-1.28 1.98-.189 8.82.137 8.81-2.551-.01-2.847-7.58-1.995-9.18-1.995Z"/>
    <path fill="#89C5CC" d="M791.648 358.61c-19.59.526-39.152.709-58.727 1.712-7.321.375-14.633.654-21.965.654-1.412 0-4.256-.547-5.585.342-3.607 2.412.5 4.483 2.851 4.613 16.081.892 32.394-1.329 48.465-1.83 9.408-.294 18.821-.38 28.221-.859 2.57-.131 5.13-.282 7.69-.481 1.48-.114 5.37.199 6.56-.663 5.2-3.762-5.76-3.535-7.51-3.488Z"/>
    <path fill="#89C5CC" d="M701.764 368.189c-.185 5.079-.204 10.07.461 15.121.261 1.987.381 4.243 2.711 4.748 2.116.458 3.189-1.142 3.627-2.916 1.07-4.333.129-10.569.116-15.07-.005-2.226-.008-4.717-2.758-5.22-2.098-.384-4.077 1.132-4.157 3.337Z"/>
    <path fill="#89C5CC" d="M812.408 380.434c-31.71 1.671-63.378 3.13-95.112 4.471-2.475.105-21.701-.105-14.98 6.6 2.076 2.071 7.425.668 10.11.537 4.034-.199 8.071-.35 12.106-.555 15.996-.815 32.034-1.034 48.016-1.948 8.8-.503 17.58-1.29 26.33-2.314 4.16-.487 9.33-.437 13.22-2.068 2.01-.839 4.17-4.928.31-4.723Z"/>
    <path fill="#89C5CC" d="M794.178 354.669c-2.41 2.401-1.17 7.14-.99 10.108.25 4.086.55 8.174 1.06 12.236.34 2.64.16 6.747 1.57 9.027 1.65 2.67 5.28 2.374 6.77-.205 1.32-2.281.65-7.081.61-9.608-.04-3.496-.26-6.997-.47-10.486-.17-2.915.49-7.588-1.11-10.084-1.63-2.535-5.18-3.236-7.44-.988ZM721.695 373.308c-.283.218-.283.218 0 0Zm5.632-.706c5.256 1.057-3.242 7.194-5.928 2.982-.419-.658-.638-1.467.036-2.039.614-.522 1.001.403 1.581.154 1-.428 3.244-1.136 4.311-1.097Zm-.725-5.037c-3.588.284-8.521.505-10.297 4.102-2.386 4.831 1.694 9.563 6.415 10.298 4.543.707 11.325-1.809 11.689-7.107.293-4.272-3.77-7.621-7.807-7.293ZM756.56 370.119c-3.715.06-11.016-1.038-14.252.772-3.202 1.792-1.774 4.982 1.147 5.745 1.931.504 5.087-.309 7.097-.391 2.645-.108 5.291-.131 7.938-.168 4.45-.06 8.898-.009 13.349-.009 4.55 0 9.17.124 13.71-.21 5.74-.423 5.58-4.722-.03-5.259-9.54-.913-19.39-.63-28.959-.48ZM747.071 418.269c0 2.042 1.812 0 1.799 0 .013 0-1.799-2.043-1.799 0ZM706.076 401.826c.117 5.937.194 11.88.447 17.813.081 1.876-.457 5.539 1.817 6.496 2.531 1.064 3.318-1.589 3.61-3.387.923-5.697.018-12.201-.071-17.965-.03-1.935.389-4.629-1.809-5.594-1.793-.787-4.03.674-3.994 2.637Z"/>
    <path fill="#89C5CC" d="M803.718 401.919c.15.354.15.354 0 0Zm.21-.06c.61.257.12.051 0 0Zm-47.967-4.799c-9.114.143-18.235.251-27.344.641-3.887.167-7.82.302-11.694.668-2.744.26-9.56.368-11.34 2.61-3.673 4.629 4.115 3.366 5.793 2.991 3.053-.685 6.169-.904 9.288-1.069 6.767-.356 13.537-.547 20.313-.684 18.375-.369 36.761-.313 55.141-.396 1.78-.008 4.99-.724 6.64-.004 1.64.722 1.55 2.495 1.72 4.554.23 2.74-1.58 7.961-.2 10.266 2.14 3.575 5.24.539 5.72-2.067.65-3.601-.39-7.925-1.4-11.367-1.44-4.857-3.43-5.05-8.13-5.43-5.49-.443-10.96-.712-16.47-.763-9.34-.086-18.692-.095-28.037.05ZM792.008 421.603c-19.77 2.296-40.098.943-59.973 1.024-4.833.02-9.67.059-14.499.293-2.55.124-8.595-.579-10.343 1.388-3.683 4.147 2.952 4.751 5.374 4.579 4.897-.348 9.805-.507 14.715-.545 17.292-.134 34.683.673 51.966-.18 7.23-.357 14.31-1.596 21.42-2.979 1.57-.307 12.35-2.355 6.2-4.811-3.63-1.451-11.04.786-14.86 1.231Z"/>
    <path fill="#89C5CC" d="M734.291 414.011c-.138.177-.138.177 0 0Zm-.132-.031c-.047.127-.193.441 0 0Zm-1.247-1.608c.146.188.028.037 0 0Zm-.048-.012c.476.568.796 1.202.961 1.901-4.096 1.11-5.674-2.204-.961-1.901Zm-.26-.155c.578.243.002.001 0 0Zm-6.728-4.937c-2.651 3.301-4.84 7.148-1.534 10.919 2.955 3.372 8.9 3.807 12.651 1.556 3.863-2.319 3.53-7.202.834-10.389-1.735-2.052-3.141-1.995-5.659-2.33-1.714-.228-4.838-1.561-6.292.244ZM753.278 413.378c0 4.396 18.98 2.504 22.36 2.499 2.83-.004 19.93 1.556 18.7-2.967-1.01-3.717-17.85-1.87-21.44-1.875-3.1-.005-19.62-2.134-19.62 2.343Z"/>
  </g>
  <g fill="#89C5CC" fill-rule="evenodd" clip-rule="evenodd" opacity=".5">
    <path d="M505.479 454.565c9.506 1.38 19.394 5.851 19.311 16.916-.07 9.303-7.872 19.204-17.892 18.648-9.016-.499-17.508-10.36-18.637-18.81-.585-4.378.511-9.091 3.086-12.693 3.374-4.718 8.728-4.711 14.132-4.061Zm-4.49-6.014c-6.876.037-11.906 2.524-16.161 7.774-1.526 1.882-3.301 3.908-4.463 6.041-1.085 1.992-.896 7.057 2.828 4.682-.917 9.806 4.815 19.323 13.053 24.348 8.955 5.462 19.077 4.397 26.53-3.259 6.822-7.008 9.223-18.845 4.232-27.512-4.988-8.662-16.546-12.167-26.019-12.074Z"/>
    <path d="M521.604 445.923c-4.402 3.226-8.421 7.474-11.759 11.783-3.263 4.212-5.42 9.47-9.34 13.143-1.979-2.156-4.298-7.979-8.247-5.669-3.277 1.917-1.167 5.214.429 7.378 4.121 5.589 8.697 7.839 13.982 2.317 4.8-5.015 7.526-11.706 12.014-17.009 1.968-2.327 5.01-4.637 6.577-7.206 1.421-2.329-.336-7.177-3.656-4.737Z"/>
  </g>
  <g fill-rule="evenodd" clip-rule="evenodd" opacity=".5">
    <path fill="#89C5CC" d="M687.954 96.066c.007.44.013.854.022 1.234.206 8.305.087 17.035-.588 25.32-.233 2.86-2.314 6.486-4.688 2.543-1.044-1.734-.897-5.294-.79-7.914.029-.702.055-1.336.055-1.85-.002-2.922.151-5.875.305-8.835.301-5.787.604-11.605-.253-17.29l-.049-.331c-.373-2.5-.398-2.672-3.147-2.615-1.146.023-2.292.054-3.437.085a544.858 544.858 0 0 1-6.739.15c-3.51.069-7.02.136-10.529.265-.585.022-1.678.159-3.056.33-2.757.347-6.657.836-9.939.834l.003.042a.967.967 0 0 1 .004.077c.037 1.812-.43 3.834-.899 5.866-.392 1.702-.786 3.41-.887 5.007-.241 3.799-.244 7.638-.246 11.478-.004 4.674-.007 9.349-.44 13.952a18.227 18.227 0 0 0-.052.797c.149-.022.293-.038.432-.047 2.366-.15 4.751-.163 7.133-.177 1.314-.007 2.626-.014 3.933-.045 2.348-.054 4.725-.052 7.111-.049 5.267.006 10.581.011 15.733-.596 1.522-.197 2.054 1.755 1.371 2.767-.611.906-2.294 1.052-3.526 1.16-.313.027-.597.052-.827.086-3.323.492-6.69.664-10.043.812-3.521.156-7.046.273-10.569.371-.839.023-1.958.136-3.199.262-3.277.331-7.402.748-9.449-.179-2.201-.995-2.149-2.1-1.251-2.957-.394-.866-.456-2.131-.505-3.121a14.357 14.357 0 0 0-.067-.976c-.488-3.941-.783-7.832-.79-11.807-.014-7.787.002-15.873 2.156-23.41-.863-.378-1.383-.935-1.381-1.737.01-4.044 12.595-3.838 18.578-3.741 1.07.018 1.928.032 2.466.018 4.358-.114 8.717-.13 13.076-.105.921.004 1.946-.056 3.008-.118 2.259-.133 4.686-.276 6.637.178 5.126 1.19 5.249 9.353 5.323 14.266ZM720.014 82.686c4.759-.252 9.521-.31 14.286-.327 5.045-.026 10.097.065 15.14.22l.117.004c2.234.067 14.654.44 8.948 3.535-.332.18-.707.33-1.116.456.242 1.434.271 2.913.232 3.626a438.827 438.827 0 0 0-.341 8.116c-.066 1.833-.132 3.667-.214 5.5a1540.73 1540.73 0 0 0-.612 15.196c-.022.622.011 1.436.048 2.342.121 2.998.283 7.014-1.344 8.499-1.429 1.304-2.405 1.043-3.063.157-4.088 1.187-12.484.801-16.705.607-1.018-.046-1.792-.082-2.206-.082-.74 0-2.116.093-3.852.209-7.23.486-20.724 1.392-20.751-2.171a1.471 1.471 0 0 1 .318-.926c-.573-.584-1.088-1.442-1.419-2.513-1.188-3.844-1.3-7.992-1.388-11.977-.125-5.629-.126-11.263-.127-16.897-.001-2.893-.002-5.786-.019-8.677-.773-1.038-.314-2.225.65-3.053 2.053-1.762 7.149-1.784 10.835-1.8.992-.003 1.882-.007 2.583-.044Zm-7.744 43.398c4.587-.98 12.316-.664 16.456-.495 1.085.044 1.923.078 2.395.076 4.229-.016 8.459.042 12.685.211.438.018 1.086.001 1.85-.018 1.534-.038 3.535-.089 5.234.099a13.95 13.95 0 0 1-.048-.622c-.19-3.762-.052-7.556.084-11.329.029-.802.058-1.603.084-2.402.091-2.821.211-5.641.332-8.46v-.002c.076-1.775.151-3.55.22-5.325.03-.78-.015-1.838-.065-3.028-.103-2.423-.228-5.393.206-7.674-1.565-.03-3.168-.14-4.639-.242-1.417-.098-2.71-.188-3.727-.188-1.29 0-2.579-.004-3.869-.008-3.574-.011-7.146-.022-10.72.049l-1.017.02c-4.921.095-9.882.19-14.761.839-.286.038-.63.11-1.01.2.535 2.236.273 5.386.044 8.146-.112 1.34-.216 2.588-.217 3.594-.007 6.256.158 12.487.323 18.712v.001c.063 2.354.125 4.708.178 7.062.007.281 0 .542-.018.784Z"/>
    <path fill="#C1DEE2" d="M660.063 129.312c-3.127 1.827-1.441 9.135-.357 11.663 1.781 4.156 5.395 7.408 9.295 9.566 7.882 4.36 19.244 3.202 25.205 10.762.062.078 2.122 2.118 2.591-.524.385-2.168-3.461-5.479-4.952-6.566-4.239-3.09-9.675-4.086-14.578-5.63-5.229-1.647-10.967-4.682-13.16-10.072-.776-1.91.704-11.986-4.044-9.199ZM731.559 132.826c-2.867.79-.971 4.733-.976 6.708-.005 2.463-.793 5.042-2.311 7.007-3.85 4.986-11.389 5.733-17.041 7.162-4.104 1.039-13.923 3.266-14.307 8.816-.429 6.199 8.239-1.344 8.972-1.654 8.102-2.972 18.584-3.546 24.838-10.088 2.582-2.7 4.107-6.305 4.35-10.025.136-2.094.16-8.933-3.525-7.926Z"/>
    <path fill="#89C5CC" d="M672.34 187.804c-.067-11.468 10.908-18.405 20.832-21.014 11.929-3.143 23.041 5.215 24.447 17.239 1.484 12.688-8.08 22.904-20.691 23.464-11.095.492-24.517-7.451-24.588-19.689Zm26.646-15.5c.645.877 1.228 2.277-.072 3.039-1.251.729-1.875-.147-2.504-1.029-.397-.557-.796-1.117-1.355-1.274-1.45-.409-3.78 1.117-4.988 2.006-.49.361-1.188 1.138-2.004 2.046-2.596 2.892-6.387 7.114-8.482 3.481-8.356 14.429 12.476 25.227 24.322 19.767 13.01-5.997 10.478-27.922-4.917-28.036Z"/>
    <path fill="#89C5CC" d="M688.068 183.965c0 2.633 4.157 2.633 4.157 0 0-2.602-4.157-2.713-4.157 0ZM695.382 183.471c0 3.225 5.094 3.225 5.094 0 0-3.187-5.094-3.323-5.094 0ZM690.148 190.985c-4.166 2.45 7.748 7.319 8.218 2.344.203-2.147-1.876-1.568-3.262-1.726-1.326-.151-3.698-1.35-4.956-.618Z"/>
    <path fill="#C1DEE2" d="M688.341 208.37c.181 6.259.094 12.514 1.281 18.686.226 1.172.382 5.424 1.309 6.295 2.279 2.142 2.316-1.964 2.405-3.537.316-5.636-.276-11.446-.406-17.094-.029-1.215.293-3.733-.28-4.909-.911-1.868-4.398-2.422-4.309.559ZM683.885 203.295c-9.133 10.251-21.71 9.496-34.38 10.394-6.695.474-13.464 1.448-18.85 5.778-2.506 2.015-4.666 4.538-6.118 7.413-.634 1.257-3.644 8.51.876 6.789 1.603-.61 3.181-5.406 4.218-6.825 1.975-2.702 4.502-4.933 7.533-6.383 5.847-2.797 12.829-2.75 19.169-3.105 6.627-.37 13.74-.717 19.832-3.599 2.866-1.356 5.554-3.047 7.86-5.225.825-.779 2.592-2.102 2.723-3.293.151-1.361-1.157-3.854-2.863-1.944Z"/>
    <path fill="#89C5CC" d="M637.779 234.758c-8.579.287-17.148.634-25.715 1.176-1.755.111-7.609-.243-6.118 3.354 1.195 2.884 8.334.976 10.695.837 8.927-.53 17.891-.715 26.8-1.518 2.001-.18 11.047-.108 7.311-3.654-1.777-1.689-10.518-.279-12.973-.195Z"/>
    <path fill="#89C5CC" d="M600.498 238.896c-2.704 3.552-1.461 12.184-1.257 16.453.198 4.138-.606 11.703 4.795 12.344-1.715-.225 1.302.105 1.793.131 1.096.059 2.198.078 3.296.09 2.537.028 5.075-.006 7.611-.057 5.745-.115 11.505-.282 17.243-.6 2.412-.133 15.496-.022 16.014-2.527.662-3.202-11.883-1.391-14.129-1.288-5.469.25-10.947.303-16.421.375-2.713.036-5.429.062-8.142.009-1.121-.022-5.557.438-6.238-.309-.581-.636-.128-6.486-.14-7.381-.04-2.917-.037-5.841.067-8.757.07-1.963 1.131-5.698.266-7.542-.841-1.792-3.292-2.404-4.758-.941Z"/>
    <path fill="#89C5CC" d="M644.674 239.062c.157 6.497.205 13.126 1.74 19.48.511 2.115 1.226 6.476 3.351 7.571 2.229 1.149 4.155-.491 4.3-2.701.184-2.777-1.304-6.424-1.609-9.274-.356-3.325-.563-6.654-.685-9.995-.092-2.513.672-6.281-1.724-7.901-2.152-1.456-5.443.01-5.373 2.82ZM661.747 237.476c-2.668 2.658-1.476 11.073-1.142 14.488.244 2.501 2.982 14.805 7.084 8.389 1.815-2.838-.491-10.343-.474-13.653.01-2.108.756-4.773.396-6.798-.476-2.676-3.444-4.843-5.864-2.426Z"/>
    <path fill="#89C5CC" d="M680.222 235.282c8.014-.827 16.038-1.447 24.096-1.524.387-.003.794-.008 1.217-.014 5.523-.07 13.823-.175 17.54 3.972 2.025 2.26 2.942 5.753 3.742 8.797.149.568.294 1.12.441 1.646.126.45.29.962.467 1.516.835 2.613 1.964 6.151.819 8.34-.628 1.201-1.639 2.225-3.174 1.799a2.889 2.889 0 0 1-.86-.376c.588.636.849 1.542.467 2.429-.738 1.714-3.07 1.75-4.907 1.779-.445.007-.862.014-1.219.043-6.119.51-12.266.851-18.406.904-2.924.026-5.848.002-8.772-.022-3.01-.024-6.019-.049-9.028-.019-2.185.021-4.41.229-6.635.437-2.81.262-5.62.524-8.353.412-2.044-.084-4.227-.753-3.709-3.396.423-2.156 2.453-2.344 4.272-2.513.158-.015.315-.029.469-.045 5.792-.59 11.588-.798 17.41-.777 12.231.042 24.452-.021 36.683-.085.503.041.976.233 1.366.526-.44-.534-.432-1.246-.423-2.004a8.723 8.723 0 0 0-.028-1.045c-.075-.703-.144-1.403-.212-2.101-.226-2.309-.451-4.601-.891-6.924-.066-.35-.131-.736-.198-1.144-.401-2.412-.931-5.606-2.848-6.908-1.928-1.309-5.708-1.246-8.654-1.197-.796.013-1.53.025-2.151.009-7.861-.203-15.768.355-23.593 1.067a346.3 346.3 0 0 1-1.806.159c-2.977.26-5.97.52-8.904 1.053-.537.098-1.357.384-2.298.712-2.503.874-5.86 2.045-7.001.755-3.778-4.274 12.826-6.028 15.081-6.261Z"/>
    <path fill="#C1DEE2" d="M765.486 225.552c.349.448.349.448 0 0Zm-54.234-26.476c-4.868 2.861 4.141 11.256 6.436 12.554 5.164 2.922 12.261 3.363 18.027 4.184 7.298 1.041 15.24 1.424 22.254 3.815 2.988 1.019 4.887 2.609 6.844 5.053.991 1.239 3.376 6.576 5.556 5.312 4.37-2.544-7.421-13.222-10.02-14.37-5.908-2.61-12.892-3.341-19.21-4.354-5.874-.943-11.874-1.644-17.603-3.306-3.15-.913-5.389-2.387-7.205-5.208-1.132-1.758-2.06-5.446-5.079-3.68Z"/>
    <path fill="#89C5CC" d="M785.869 231.87c-5.61.125-11.21.557-16.81.988-3.144.242-6.285.484-9.427.672-.983.059-1.967.112-2.951.165-2.769.149-5.541.298-8.296.577-.419.042-.903.082-1.432.125-2.34.192-5.53.454-7.569 1.308-1.869-1.414-4.754-.212-4.799 2.308-.077 4.59-.035 9.099.525 13.661.13 1.059.799 6.42 2.255 9.211-.518 2.636 1.729 3.374 3.82 3.576 8.1.782 16.593.175 24.971-.423 4.263-.305 8.493-.607 12.633-.724 1.37-.039 2.76-.054 4.16-.07 4.58-.051 9.24-.103 13.66-.968.18-.035.37-.069.57-.105 1.75-.313 4.17-.746 4.35-2.672.11-1.156-.54-2.214-1.63-2.363.07-.963-.05-2.014-.14-2.786-.02-.18-.04-.345-.05-.49-.27-2.678-.94-5.339-1.59-7.966-.15-.591-.3-1.18-.44-1.766-.16-.65-.31-1.424-.46-2.257-.56-2.943-1.26-6.64-3.12-8.357-1.95-1.8-5.13-1.721-7.67-1.657-.19.005-.38.01-.56.013Zm9.88 25.554c-.67-1.742-.86-4.097-1.05-6.336-.12-1.405-.23-2.765-.45-3.898-.17-.85-.3-1.746-.44-2.657-.34-2.213-.69-4.512-1.52-6.451-1.12-2.597-2.11-2.498-4.45-2.263-.43.044-.92.092-1.45.129-2.39.162-4.78.368-7.16.575-1.14.099-2.29.198-3.43.292-4.9.402-9.797.712-14.696 1.021-2.862.181-5.725.361-8.587.561-2.246.156-4.439.583-6.622 1.008-1.729.337-3.453.673-5.193.872a41.96 41.96 0 0 1-.123 1.761c-.065.775-.125 1.497-.112 2.088.057 2.622.288 5.227.52 7.837l.106 1.204c.042.481.146 1.099.26 1.785.178 1.061.383 2.283.428 3.408h.63c.268.001.531.002.783-.002a884.508 884.508 0 0 0 18.498-.532l2.361-.091c5.497-.214 10.997-.429 16.507-.492 2.18-.025 4.4.044 6.62.113 2.86.088 5.73.177 8.57.068Z"/>
  </g>
  <path fill="#B28B67" fill-rule="evenodd" d="M301.96 332.773c7.274 4.387 14.421 6.507 17.776 5.642 8.413-2.17 9.187-32.969 2.677-45.111-6.509-12.141-39.973-17.434-41.66 6.623-.586 8.349 2.918 15.801 8.094 21.881l-9.281 43.29h26.96l-4.566-32.325Z" clip-rule="evenodd"/>
  <path fill="#191847" fill-rule="evenodd" d="M311.764 280.08c-3.684-1.124-9.031-1.505-11.281-1.247 1.28-3.068 1.788-6.487 1.374-9.815-.403-3.234-1.847-5.988-3.182-8.873-.616-1.331-1.314-2.653-2.354-3.671-1.06-1.036-2.401-1.72-3.807-2.047-1.44-.334-2.945-.306-4.387-.003-.637.134-1.21.426-1.835.588-.64.166-.951-.235-1.416-.638-1.12-.971-2.763-1.451-4.18-1.622-1.59-.193-3.241.047-4.757.57-1.476.51-2.894 1.337-3.962 2.541-.475.537-.906 1.147-1.187 1.821-.115.276-.134.44-.409.542-.255.093-.554.096-.817.185-2.545.863-4.722 2.831-5.906 5.358-.692 1.474-1.019 4.07-.93 6.979.09 2.909 2.715 10.499 5.17 13.268 2.192 2.471 5.413 4.102 8.521 4.816-2.063 2.36-3.437 5.309-4.452 8.309a40.684 40.684 0 0 0-2.038 10.093c-.24 3.277-.262 6.743.506 9.95.718 2.999 2.254 5.46 4.818 7.021 1.175.715 2.438 1.252 3.709 1.743 1.253.484 2.509.954 3.821 1.226 2.484.513 5.345.425 7.258-1.553.689-.713 1.447-1.609 1.95-2.48.181-.313.29-.518.071-.824-.264-.367-.689-.648-1.028-.935-1.928-1.636-3.121-3.819-3.422-6.415-.306-2.633.401-6.031 2.959-7.18 3.158-1.419 6.636.209 9.443 1.727 1.192-4.213 3.642-8.006 7.482-9.939 4.248-2.138 9.123-2.388 13.488-4.222 1.138-.478 2.297-1.021 3.134-1.995.35-.407.761-.935.901-1.473.183-.707-.273-1.3-.625-1.852-1.866-2.923-8.946-8.828-12.63-9.953Z" clip-rule="evenodd"/>
  <path fill="#C5CFD6" fill-rule="evenodd" d="M277.319 655.121c47.771 0 86.497-36.992 86.497-82.623 0-45.631-38.726-82.623-86.497-82.623s-86.497 36.992-86.497 82.623c0 45.631 38.726 82.623 86.497 82.623Z" clip-rule="evenodd"/>
  <path fill="#B28B67" fill-rule="evenodd" d="M411.794 568.091c4.179 14.646 14.587 42.404 28.98 74.282l13.677-3.993c-11.965-73.354-21.923-121.919-27.627-136.7-3.769-9.765-32.281-8.621-29.001 11.029 1.375 8.24 6.818 30.306 13.971 55.382Zm-56.215-51.955c-22.305 4.624-68.55 20.971-81.755 26.195-8.3 3.282-2.949 14.416 4.131 13.442 1.199-.165 5.441-.64 11.77-1.349 20.33-2.276 62.197-6.963 93.95-11.536 16.719-2.408 7.725-33.748-9.635-30.431-5.84 1.115-12.052 2.35-18.461 3.679Z" clip-rule="evenodd"/>
  <path fill="#1F28CF" fill-rule="evenodd" d="M427.698 493.403c-2.28-7.447-105.937-33.879-105.937-33.879h-8.495v7.921l71.429 36.388a14.598 14.598 0 0 0 .194 3.724c-.516 26.975 11.021 47.127 22.444 67.079 7.469 13.047 14.89 26.009 18.859 40.738l26.243-3.918c-.765-1.957-1.973-10.778-3.626-22.839-4.168-30.412-11.157-81.421-20.963-94.916l-.105-.141a2.29 2.29 0 0 0-.043-.157Z" clip-rule="evenodd"/>
  <path fill="#2B44FF" fill-rule="evenodd" d="M319.2 525.443c-6.535-1.309-12.554-2.478-17.704-3.382-33.266-5.838-42.966-23.658-37.231-62.537h61.292c10.012 2.878 62.044 24.714 89.041 36.327 17.868 7.687 12.235 35.397 2.116 42.608-.054.443-.237.743-.561.878-38.363 15.911-71.077 14.724-92.084 13.961-8.799-.319-15.544-.564-19.79.553l-6.653-21.002 21.574-7.406Z" clip-rule="evenodd"/>
  <path fill="#E4E4E4" fill-rule="evenodd" d="M280.822 540.972c-.039-1.17-1.026-2.105-2.19-1.986-2.382.244-6.109.746-7.888 1.614-2.731 1.333-7.527 4.801-7.527 4.801l27.775 56.986s8.421-1.36 6.673-6.432a380.05 380.05 0 0 1-2.819-8.467l-1.114-32.373a1 1 0 0 0-1.061-.964l-5.084.32s-4.225-3.422-5.575-6.192c-.856-1.756-1.115-5.097-1.19-7.307ZM437.093 635.098c-1.069-.478-2.343 0-2.746 1.1-.825 2.249-2.008 5.821-2.008 7.801 0 3.041 1.012 8.874 1.012 8.874h63.358s2.47-8.17-2.851-8.822c-5.321-.651-8.84-1.176-8.84-1.176l-29.564-13.189a1 1 0 0 0-1.332.532l-1.941 4.713s-4.926 2.3-8.006 2.3c-1.952 0-5.064-1.231-7.082-2.133Z" clip-rule="evenodd"/>
  <path fill="#B28B67" fill-rule="evenodd" d="m408.389 470.355-35.832-26.331-7.921 19.594 35.483 14.725c10.035 11.796 15.647 16.714 16.835 14.753 1.001-1.654.218-3.202-.503-4.628-.561-1.11-1.086-2.147-.7-3.102.882-2.18 7.623-1.95 14.01-1.459 6.388.492 4.527-2.353 2.986-3.757-6.52-3.906-14.639-7.171-24.358-9.795Zm-187.913 46.396c3.292-6.683 14.502-71.818 14.502-71.818l23.475.092s-21.742 70.236-23.475 74.533c-2.251 5.583 1.573 13.694 4.166 19.194.401.851.773 1.639 1.088 2.346-3.598 1.611-5.326-.336-7.148-2.389-2.058-2.319-4.236-4.772-9.362-2.386-1.98.922-3.854 2.012-5.685 3.077-6.324 3.679-12.134 7.059-20.038 2.178-1.253-.773-2.626-3.686.692-5.963 8.265-5.671 20.176-15.597 21.785-18.864Z" clip-rule="evenodd"/>
  <path fill="#E87613" fill-rule="evenodd" d="m301.69 346.361 9.713-1.667c36.041 31.155 50.844 91.009 95.02 122.715l-10.633 13.19c-76.638-9.496-95.633-82.503-94.1-134.238Z" clip-rule="evenodd"/>
  <path fill="#DDE3E9" fill-rule="evenodd" d="M259.346 468.517h85.948c3.927 0 3.187-5.675 2.619-8.539-6.552-33.049-32.13-68.675-32.13-115.72l-24.791-3.891c-20.506 33.003-27.597 73.635-31.646 128.15Z" clip-rule="evenodd"/>
  <path fill="#FF9B21" fill-rule="evenodd" d="M249.681 492.124c-3.862 9.283-7.65 17.384-11.219 23.606h-18.433c-1.983-64.166 22.293-113.54 42.61-143.311-4.511-.322-8.583-2.211-11.157-6.859-9.061-16.361-5.789-25.37 3.895-28.331 5.325-1.628 10.333-.517 16.328.814 4.906 1.088 10.472 2.324 17.413 2.324h.007c.673 0 1.285.045 1.841.132l8.226.469s33.401 113.279 18.424 151.156h-67.935Z" clip-rule="evenodd"/>
  <path fill="#000" fill-opacity=".1" fill-rule="evenodd" d="M249.681 492.124c5.069-12.181 10.266-26.399 15.267-41.082 1.862 16.17 4.962 32.411 10.124 41.082h-25.391Z" clip-rule="evenodd"/>
  <path fill="#B28B67" fill-rule="evenodd" d="M618.602 261.839c-7.285 4.391-14.443 6.512-17.803 5.646-8.426-2.171-9.2-32.994-2.681-45.145 6.519-12.152 40.033-17.448 41.722 6.628.586 8.355-2.922 15.813-8.106 21.897l9.295 43.324h-27l4.573-32.35Z" clip-rule="evenodd"/>
  <path fill="#2C2C2C" fill-rule="evenodd" d="M604.202 214.327c.619-.369 1.912-1.148 2.568-1.43.155-.068 1.241-.843 1.27-.833.823.278 3.204 1.302 3.408 2.187.032.067.063.13.093.185.338.613.647 1.242.943 1.878.648 1.397 1.207 2.857 1.742 4.305 1.04 2.82 1.944 5.707 2.776 8.6.846 2.945 1.564 5.924 2.368 8.881 1.157 4.255 2.638 8.406 3.787 12.659.734 2.716 1.142 5.464.949 8.259a1.71 1.71 0 0 1-.01.143c-.032.429-.079.86-.141 1.292-.055.37-.11.74-.168 1.111-1.049-2.093-1.851-4.399-2.701-6.588-.083-.214-.163-.43-.24-.647a79.482 79.482 0 0 0-.837-1.323c-1.783-2.769-3.572-5.527-5.282-8.346-3.075-5.07-6.121-10.247-9.767-14.902-1.076-1.375-2.178-2.728-3.241-4.114a67.182 67.182 0 0 1-1.764-2.407c-.407-.584-2.179-2.618-1.537-3.84.328-.626 4.18-4.112 5.784-5.07Z" clip-rule="evenodd"/>
  <path fill="#8991DC" fill-rule="evenodd" d="M606.575 212.999c-.602.202-.309-1.049.273-1.49 2.699-2.04 13.017-2.78 21.995-.916 6.015 1.248 13.011 4.356 17.815 8.351 4.331 3.602 7.309 9.375 8.843 14.954 1.61 5.857 1.853 11.964.956 17.97-.197 1.32-.62 2.577-.856 3.868-.266 1.455-.402 2.855-.876 4.27-.29.866-.783 1.715-1.03 2.586-.283.994-.11 1.914.096 2.925.335 1.648.752 3.292 1.343 4.866.889 2.363 1.967 4.577 2.643 7.029.899 3.264 4.661 13.883 1.912 16.777h-52.334c1.318-3.594 5.274-7.825 6.074-11.673.472-2.267.696-7.217.746-7.397 1.179-8.13 3.482-12.012 4.924-13.421 1.442-1.409 3.363-1.842 3.462-3.064.409-5.055-1.601-9.898-3.075-14.615-1.756-5.622-3.043-11.384-4.854-16.987-.802-2.482-4.934-15.082-8.057-14.033Z" clip-rule="evenodd"/>
  <path fill="#000" fill-opacity=".2" fill-rule="evenodd" d="M626.897 236.974c.424-8.556 0-11.898-1.974-18.16h1.217c1.924 2.485 3.533 10.086 1.725 18.16h-.968Zm23.848-.403c.212-.52.429-1.052.654-1.597l.774.372c-2.441 8.927-5.41 15.819-15.605 21.597l-.793-.555c9.642-6.78 11.709-11.839 14.97-19.817Zm-14.456-10.678c-.102.774-.2 1.528-.295 2.265-1.466 11.31-2.395 18.483-10.565 31.491l.926.283c8.955-12.064 10.375-21.91 10.798-33.97l-.864-.069Zm8.82 36.661.792.963c-3.968.831-6.665 3.749-9.758 7.094-3.272 3.539-6.986 7.557-13.114 10.086l-1.138-.69c6.689-3.477 9.801-6.934 12.518-9.952 2.812-3.124 5.202-5.778 10.7-7.501Z" clip-rule="evenodd"/>
  <path fill="#997659" fill-rule="evenodd" d="M658.992 389.189 616.72 527.656l-20.477 117.756h-16.056l21.638-256.223h57.167Z" clip-rule="evenodd"/>
  <path fill="#B28B67" fill-rule="evenodd" d="M674.115 389.189c-2.871 76.026.508 115.241 1.15 122.148.643 6.907 9.442 51.694 30.274 136.394l-17.109-5.887c-32.922-77.682-44.141-118.055-47.917-128.256-3.776-10.2-13.805-51.667-30.086-124.399h63.688Z" clip-rule="evenodd"/>
  <path fill="#E4E4E4" fill-rule="evenodd" d="M702.54 640.392c1.07-.478 2.345-.001 2.748 1.1.825 2.253 2.008 5.829 2.008 7.812 0 3.044-1.013 8.885-1.013 8.885h-63.358s-2.469-8.181 2.852-8.833c5.32-.652 8.84-1.178 8.84-1.178l29.563-13.205a1 1 0 0 1 1.333.532l1.941 4.719s4.926 2.303 8.005 2.303c1.952 0 5.064-1.232 7.081-2.135ZM596.947 640.392c1.07-.478 2.345-.001 2.748 1.1.824 2.253 2.007 5.829 2.007 7.812 0 3.044-1.012 8.885-1.012 8.885h-63.358s-2.47-8.181 2.851-8.833c5.321-.652 8.841-1.178 8.841-1.178l29.563-13.205a1 1 0 0 1 1.332.532l1.942 4.719s4.925 2.303 8.005 2.303c1.952 0 5.063-1.232 7.081-2.135Z" clip-rule="evenodd"/>
  <path fill="#69A1AC" fill-rule="evenodd" d="m664.609 389.189-17.973 70.547h-54.898l8.185-70.547h64.686Z" clip-rule="evenodd"/>
  <path fill="#89C5CC" fill-rule="evenodd" d="M674.719 389.189c8.871 26.642 3.37 70.547 3.37 70.547h-56.021l-15.404-70.547h68.055Z" clip-rule="evenodd"/>
  <path fill="#B28B67" fill-rule="evenodd" d="M735.846 424.673c-4.194-6.153-32.463-88.949-32.463-88.949l-24.382 3.52s40.537 86.217 42.853 90.227c3.009 5.209.344 13.766-1.462 19.569-.28.897-.539 1.729-.753 2.472 3.792 1.092 5.235-1.075 6.756-3.36 1.719-2.58 3.537-5.311 8.953-3.664 2.092.636 4.102 1.453 6.066 2.251 6.783 2.758 13.015 5.291 20.175-.638 1.135-.94 2.092-4.013-1.515-5.803-8.985-4.458-22.178-12.618-24.228-15.625Zm-210.116-4.279 27.239-35.167 13.027 16.631-30.103 23.925c-6.41 14.096-10.457 20.366-12.141 18.81-1.42-1.312-1.093-3.014-.792-4.582.235-1.221.454-2.362-.181-3.172-1.449-1.85-7.876.229-13.89 2.463s-5.006-1.011-3.91-2.784c5.201-5.549 12.118-10.924 20.751-16.124Z" clip-rule="evenodd"/>
  <path fill="#DB2721" fill-rule="evenodd" d="m619.339 277.093-9.865-.296c-7.65 55.681-80.491 103.14-82.464 123.83-.724 7.588 5.09 10.555 2.671 13.175l13.807 7.39c1.773-2.768 6.933 1.114 15.939-3.374 9.005-4.488 68.823-77.32 59.912-140.725Z" clip-rule="evenodd"/>
  <path fill="#FF4133" fill-rule="evenodd" d="M635.39 263.401a4.002 4.002 0 0 1 4.745 3.082l1.474 6.931c20.087 11.379 70.87 46.679 93.466 122.504 2.374 7.965.762 12.637-.525 16.369-.881 2.554-1.611 4.668-.809 7.096l-15.753 6.818c-.258-1.84-2.52-2.949-5.439-4.38-4.243-2.081-9.874-4.842-12.751-11.52-2.727-6.33-6.522-14.181-10.959-22.885 1.404 12.156.669 23.62-3.048 33.552-9.272 24.778-85.102 9.69-95.954-12.733-5.791-11.966-1.552-23.291 4.055-38.268 7.117-19.013 16.437-43.911 10.243-83.478l-2.515-11.825a3.998 3.998 0 0 1 3.08-4.743l30.69-6.52Z" clip-rule="evenodd"/>
</svg>