<svg xmlns="http://www.w3.org/2000/svg" width="1665" height="1118" fill="none">
  <path fill="#FF5678" fill-rule="evenodd" d="M308.697 410.325c5.27-33.461 10.243-67.656 18.071-99.822 4.897-20.13 10.086-40.07 15.281-59.99.724-2.771 1.028-5.437 2.428-6.809 1.874-1.837 5.75-1.799 7.863-2.437 30.026-8.989 60.367-15.845 90.807-19.702 34.736-4.409 68.596-2.39 102.965 6.847 29.395 7.903 58.499 18.787 87.287 31.252a745.972 745.972 0 0 1 12.672 5.627c1.967.905 5.23 1.362 6.94 3.228 3.66 4 4.903 20.388 6.275 27.329 1.839 9.304 2.913 22.083 6.456 30.005 5.276 11.779 13.308 22.006 19.852 31.795 22.822 34.194 47.851 65.38 77.334 82.282 45.611 26.148 93.708 42.536 140.959 58.733 1.097.381 2.194.752 3.298 1.124-12.235 22.111-24.463 44.212-36.698 66.313a106119.18 106119.18 0 0 1-20.686 37.384c-3.543 6.409-3.158 7.552-8.172 5.771-25.123-8.951-50.204-18.702-74.872-30.595-12.094-5.818-24.393-11.874-35.646-21.311-15.486-12.988-30.026-29.053-44.169-45.545-12.649-14.741-25-30.167-37.124-46.031-2.393-3.123-11.02-18.197-13.816-17.216-2.416.848-6.59 9.808-8.359 12.417a2376.568 2376.568 0 0 1-14.09 20.597c-7.512 10.836-15.188 24.12-23.961 32.28-9.252 8.608-19.852 14.465-29.611 21.311a6976.793 6976.793 0 0 1-16.35 11.427c-1.424.99-3.415 3.142-4.95 3.199-4.541.153-11.143-5.875-15.357-8.217-10.828-6.038-21.574-12.446-32.209-19.331-22.712-14.683-47.671-30.642-66.367-57.067-3.257-4.608-6.444-9.769-8.603-15.93-.748-2.133-1.862-5.104-1.938-7.628-.123-4.018 1.26-4.808 3.321-7.322 10.635-12.97 22.099-24.273 33.37-35.661a1464.61 1464.61 0 0 1 7.968-7.989l-131.73 17.263c-6.147.81-12.293 1.619-18.439 2.419Z" clip-rule="evenodd"/>
  <path fill="#000" fill-rule="evenodd" d="M504.856.998c13.915 1.036 28.181 2.09 41.98 5.287 13.752 3.186 26.587 11.334 39.014 21.199 22.415 17.787 45.319 39.408 59.731 73.622 6.741 15.997 12.24 32.747 21.544 45.339 2.171 2.945 4.547 6.484 7.436 7.385 2.294.716 4.32-.801 6.567-.981 4.296-.348 5.919 3.345 5.919 10.303 3.222-2.098 6.73-3.998 10.244-3.227 2.936.646 5.277 3.536 8.096 4.752 5.09 2.193 10.069-1.087 14.908-3.532 12.228-6.172 25.653-10.847 38.501-8.644 8.458 1.451 18.707 7.438 14.33 25.222-3.631 14.751-17.22 22.217-25.8 25.883-7.296 3.123-17.114.343-16.496 16.778.432 11.465 1.495 23.777 8.966 27.501 4.098 2.037 18.609 5.075 10.133 15.426-6.257 7.646-8.44 21.101-13.203 31.204-6.065 12.874-14.295 23.292-23.909 27.986-10.757 5.266-22.145 4.257-33.195 6.294 7.781 17.531 19.023 29.586 29.25 42.917 10.757 14.017 21.135 29.338 33.586 39.327 11.16 8.961 23.214 15.179 34.736 22.778 12.106 7.97 24.294 15.854 36.791 22.072 25.198 12.531 51.71 21.282 77.621 28.976 12.783 3.79 25.321 3.238 38.238 3.571 13.244.353 26.489 4.143 39.493 8.037 6.304 1.886 12.667 3.076 18.971 4.961 3.029.895 15.002 2.885 15.432 10.122.7 11.77-7.109 18.378-12.823 21.654-2.44 1.409-6.368 1.2-8.487 3.133-2.282 2.085-1.389 5.161-1.652 9.198-.379 5.866-2.306 10.094-5.259 13.351-2.428 2.685-5.353 2.571-3.678 7.646.771 2.343 2.703 3.819 3.59 6.285a22.551 22.551 0 0 1 1.279 9.141c-.362 5.675-2.656 9.999-5.861 12.008-5.119 3.209-11.125.942-16.373-.105-8.773-1.743-17.674-1.914-26.331-5.047-9.029-3.266-17.814-8.294-26.85-11.646-4.634-1.714-9.275-3.151-13.804-5.522-2.948-1.553-7.203-5.571-10.344-4.314-2.942 1.181-5.235 6.97-7.156 10.332-2.656 4.637-5.224 9.408-7.921 13.978-1.786 3.028-3.613 5.999-5.562 8.742-.637.895-4.553 4.799-4.606 5.846-.152 2.962 4.121 2.914 5.038 4.095 5.317 6.856-2.674 11.198-6.124 10.855-7.95-.79-15.94-2.38-23.815-4.285-18.748-4.542-37.444-9.436-55.37-19.692-17.733-10.131-35.034-20.92-51.436-36.023-15.742-14.502-30.965-30.899-45.838-47.658-7.214-8.132-14.476-16.56-20.569-26.92-5.96-10.132-10.816-21.758-15.76-33.204-11.832 18.644-23.22 38.251-35.927 55.353-12.095 16.254-26.629 24.948-40.69 35.508.455 4.8 14.201 7.675 16.711 8.923 11.464 5.694 22.467 14.826 33.621 21.987 18.55 11.922 36.155 27.433 42.336 60.533 6.071 32.547-.974 65.313-9.567 94.708-10.144 34.709-22.186 66.856-36.749 97.118-6.199 12.874-12.871 24.72-19.671 36.708-5.796 10.227-10.77 22.34-8.341 36.88 4.669-2.38 5.522 3.561 2.469 8.589-2.709 4.476-7.396 5.342-11.021 6.085-10.979 2.247-22.32 1.447-33.312-.219-20.015-3.047-40.077-11.284-58.195-25.472-9.018-7.056-12.275 4.323-18.48 13.141-4.874 6.932-11.592 11.426-15.299 20.396-3.052 7.38-1.062 19.035 5.277 16.274 4.927-2.152 8.884-11.132 14.108-11.474 9.264-.61-8.218 20.958-10.454 23.596 4.43 6.456 9.45-2.4 13.916-3.885 4.284-1.419 5.481 2.199 3.198 8.027-1.78 4.542-7.372 7.761-3.654 13.284 3.082 4.58 9.912 6.989 13.694 8.998 11.797 6.256 23.535 10.713 35.822 13.569 3.963.924 10.326.334 13.542 4.923 4.237 6.046 2.194 16.086.046 23.016-8.131 26.26-25.04 39.17-42.406 41.06-10.699 1.16-21.492.04-32.22.98-11.762 1.03-23.547 2.57-35.326 1.93-18.947-1.02-31-23.35-40.445-47.93-6-15.61-11.533-31.673-16.723-48.032-2.031-6.389-6.28-13.017-7.004-20.197-.654-6.456 1.874-11.645 4.331-16.216 6.462-12.036 14.237-21.225 21.836-31.166 4.337-5.685 6.007-10.38 7.933-18.645 1.628-6.961 4.757-9.932 7.506-15.483 3.03-6.114 2.078-7.19-.286-12.179-2.469-5.228-1.5-12.922-.461-18.835 1.489-8.485 4.681-10.351 9.45-13.084 4.349-2.495 8.032-6.865 11.884-10.922 19.047-20.035 36.984-42.707 56.258-62.18 19.017-19.216 38.892-36.195 57.045-57.639-14.738-3.228-27.732-16.216-41.635-23.901-7.133-3.951-14.202-8.16-21.107-13.102-2.639-1.886-5.709-3.562-8.061-6.333-2.364-2.79-4.179-6.456-6.654-9.093-5.878-6.257-12.865-9.818-19.187-14.703-6.829-5.266-13.565-11.027-19.91-17.73-5.918-6.256-11.604-13.408-16.53-21.683-3.923-6.579-7.74-15.169-13.291-18.197.584 12.627 10.162 23.073 15.415 30.672 8.523 12.322 17.377 22.796 26.903 32.975-10.681 14.931-23.704 24.663-36.213 34.747-14.067 11.341-27.737 23.91-41.752 35.432-11.867 9.751-24.352 17.274-36.411 26.339-13.017 9.779-26.413 17.978-39.99 25.425-12.288 6.732-23.857 13.912-35.452 23.367-11.272 9.189-23.332 16.217-35.391 22.111-13.549 6.627-26.474 12.931-39.505 22.015-11.749 8.19-23.547 13.427-35.982 17.883-4.107 1.467-9.381 4.171-12.258-2.323-2.18-4.914-2.509-12.503-3.134-18.283-2.398-22.13-2.587-44.621-4.743-66.78-8.186 4.028-15.938 8.989-24.574 9.627-5.428.4-8.727 1.314-10.08 10.98 3.14.58 14.361.838 14.664 8.093.274 6.552-6.515 6.618-8.922 6.79-4.308.324-8.213-.829-10.512 6.056 3.388 2.038 10.899-1.685 12.399 5.752 1.932 9.588-6.845 9.569-10.004 10.341-5.51 1.342-4.944 8.408-4.566 15.95.496 9.931.873 19.882 1.694 29.757 1.757 21.11 4.765 41.907 6.19 63.094 1.23 18.321 1.92 35.918-6.105 50.525-3.227 5.866-7.712 12.627-12.784 13.322-5.147.714-5.053-5.171-8.257-9.503-1.963-2.647-4.564-3.19-6.876-4.618-2.813-1.743-5.543-4.295-8.07-6.933-4.659-4.866-8.73-10.903-12.024-18.159C7.184 912.939 2.579 870.518 1.303 836.076c-.812-21.892-.003-43.822 1.229-65.628.663-11.751 1.33-23.501 2.202-35.213.27-3.628.72-7.266.888-10.903.096-2.086-.52-6.295.132-8.294-.832 2.552-2.307.666-3.772-1.343-3.023-4.142-2.092-12.103-.476-17.549 4.873-16.417 19.475-17.055 28.975-18.331 25.535-3.428 49.794-14.607 74.24-26.538-3.45-8.428 1.976-13.989 6.182-16.893 6.487-4.466 13.185-8.389 19.733-12.655 14.784-9.637 29.261-18.616 44.743-24.767 14.024-5.571 27.594-14.808 41.43-21.587 14.295-6.999 28.332-14.998 42.393-23.159 27.851-16.149 55.723-32.642 82.748-52.239 6.829-4.951 13.355-10.693 19.951-16.416 5.353-4.657 11.639-8.066 16.18-14.788 4.337-6.418 6.935-15.341 11.645-21.168 4.244-5.257 10.052-5.323 13.565-11.846 4.758-8.818 10.431-12.693 16.887-17.854 2.072-1.667 15.725-10.056 15.445-14.817-9.754 0-19.77 4.733-29.413 6.942-10.203 2.333-20.4 4.923-30.679 6.218-16.654 2.085-33.301 1.523-49.884-1.429-2.475-.438-12.421-3.761-14.131.572-1.308 3.304 1.938 7.237 1.973 10.788.046 5.209-2.528 8.009-5.44 6.199-5.674-3.523-4.845-18.444-4.314-26.014 1.016-14.484 3.269-28.843 5.242-43.032-11.709 9.723-22.823 22.206-32.907 35.928-7.81 10.627-14.861 25.034-24.025 32.614-8.8 7.275-14.031 1.066-13.671-14.95a104.967 104.967 0 0 1 2.635-21.14c.736-3.228 3.759-12.369 2.343-15.807-8.043 10.456-16.031 20.949-24.473 30.557-5.968 6.79-14.619 17.379-22.411 14.684-6.881-2.381-6.208-14.731-4.026-23.054 1.891-7.227 5.291-13.636 8.661-19.149 2.786-4.561 6.747-8.646 8.142-14.959-9.243 6.77-18.758 11.902-28.441 16.664-6.885 3.39-11.698 17.454-19.704 15.378-8.015-2.085-4.824-18.245-1.625-25.272 2.239-4.914 5.336-9.246 8.34-12.884 2.929-3.542 7.386-6.627 8.827-12.531-9.363 2.876-18.777 7.856-28.411 6.942-5.722-.553-15.273-4.628-14.143-17.179 1.143-12.702 11.514-13.683 17.345-16.045 7.952-3.237 15.56-9.303 23.233-13.931 15.478-9.341 31.256-16.835 47.092-24.272l5.002-2.352c17.875-8.408 35.851-15.569 53.947-22.549 8.943-3.456 17.856-7.217 26.875-10.16 8.72-2.857 17.581-4.504 26.237-7.913-7.296-17.959 1.535-32.728 11.073-41.269-6.047-2-12.199-3.2-18.194-5.619-5.125-2.066-10.057-5.237-15.217-7.065-8.867-3.144-17.721-4.796-25.292-13.755-14.305-16.931-15.521-43.874-3.468-64.261 12.165-20.577 30.015-30.212 47.199-31.168 19.227-1.072 41.11 5.011 59.1 16.12 8.843 5.459 18.048 12.398 25.624 21.693 5.155 6.323 13.303 18.438 20.22 18.438-8.283-16.351-18.451-33.26-19.951-55.405-1.413-20.966 4.413-43.251 14.196-56.812C448.651-3.24 480.895-.788 504.856.998ZM393.444 899.599c-5.101 12.94-12.152 23.453-18.812 34.194-2.3 3.704-6.911 8.418-7.133 14.217-.181 4.742 3.385 10.074 4.938 13.798 8.23 19.692 15.007 41.442 25.052 58.932 11.365 19.77 24.329 23.61 40.41 23.66 17.861.07 35.962 3.72 53.788 2.17 15.107-1.29 29.991-12.27 37.503-34.57-4.891-4.11-11.855-2.15-17.155-2.07-7.232.13-14.289-.08-21.433-2.13-6.474-1.87-12.871-4.66-18.959-8.732-3.152-2.104-6.269-4.513-9.17-7.446-2.125-2.143-3.724-5.428-5.808-7.523-7.699-7.76-16.589 16.901-24.813 16.431-5.043-.29-3.216-8.384-1.121-12.907 3.789-8.171 10.39-13.208 15.375-19.169-4.64-6.97-9.888.343-14.307 3.98-5.521 4.562-11.265 10.151-17.435 11.856.461-12.979 11.283-19.94 17.255-25.215 2.655-2.352 5.982-4.533 6.636-9.703.496-3.886-.35-9.408-.595-13.332-.321-4.989-.555-6.589-3.806-7.989-3.952-1.714-7.927-1.219-11.884-3.352-10.828-5.827-19.245-14.483-28.526-25.1ZM41.616 695.022a90.76 90.76 0 0 1-8 3.162c-5.314 1.828-10.636 3.723-15.969 5.389-2.674.829-5.645.305-6.433 4.466-.405 2.133.615 5.971.79 8.189.314 4 .334 8.056.363 12.084.279 37.118-4.477 74.026-2.383 111.134 1.769 31.367 5.908 71.037 20.029 94.395 6.094 10.084 13.592 21.034 21.267 27.919 6.016 5.399 14.42-8.151 15.648-17.531.88-6.722-.588-13.826-1.544-20.301-1.226-8.313-2.467-16.607-3.681-24.92-2.592-17.74-4.95-35.642-5.694-53.877-.244-5.989-.192-11.76.015-17.721.112-3.247 1.047-11.046-.341-13.826-1.796-3.58-5.9-1.238-8.328-.933-2.664.333-5.264.076-7.866-1.029-6.195-2.647-7.28-10.684-.517-14.397 4.723-2.6 13.355 1.161 17.322-3.838 4.662-5.875-4.76-6.684-6.96-6.837-2.93-.2-12.645 1.048-12.15-7.856.367-6.608 8.732-7.046 11.658-7.332 6.252-.6 14.163 3.228 16.865-9.075 1.084-4.923-5.437-7.427-7.073-9.874-3.977-5.942-5.28-16.121-5.622-24.463-.336-8.208 4.612-36.642-2.928-37.394-2.315-.228-6.163 3.428-8.468 4.466ZM412.45 859.148c-4.436 8.618-8.271 18.064-12.41 27.072 9.696 8.732 19.613 15.75 29.635 23.253 4.559 3.409 7.751 6.113 12.164.943 3.164-3.714 5.54-8.989 8.627-12.846 4.436-5.551 9.077-10.626 13.624-15.921-13.425-7.989-27.055-15.007-40.48-23.015-5.02-2.99-7.535-6.532-11.16.514Zm-110.554-27.386c2.872 4.752-2.655 17.911-3.741 22.415 8.901-1.152 17.727-3.447 26.471-6.389 2.977-1.009 1.879 4.904.764 6.856-1.377 2.419-4.132 3.142-5.977 4.009-6.771 3.171-13.723 4.694-20.674 6.38 3.181 6.389 10.839 16.388 8.37 25.996-4.448-6.257-7.647-14.579-12.561-19.978-1.425 3.456-4.372 15.664-7.6 14.912-5.076-1.171.064-15.436 1.126-18.873-3.42 0-16.254 4.894-18.044-1.962-1.833-7.018 10.554-6.799 12.844-8.456l-.427-.847-.429-.848c-1.712-3.361-3.357-6.684-3.588-11.312 3.83 2.152 6.387 11.95 10.596 12.093 3.992.133 5.773-9.655 7.197-14.283.805-2.638 3.555-13.227 5.673-9.713Zm431.935-92.309c8.58 11.808 2.749 35.632-3.742 46.345-7.279 11.998-23.476 23.025-32.699 10.789-5.049-6.694-3.228-16.902-1.984-25.806 1.383-9.903 2.241-18.244 7.267-25.034 7.81-10.56 22.449-18.273 31.158-6.294Zm-17.424 6.866c-8.37 2.904-16.857 16.549-18.848 30.623-2.609 18.445 9.13 19.797 16.858 17.026 9.73-3.495 20.062-15.131 20.558-33.385.426-15.75-12.06-16.521-18.568-14.264ZM107.098 666.56c-12.539 7.608-24.325 18.026-37.48 22.549-4.015 1.381-5.664 2.885-6.657 8.989-1.39 8.541-2.708 17.197-1.715 26.119 2.06 18.531 17.863 16.264 26.638 15.531 4.505-.371 13.17.972 17.078-3.618 2.855-3.343 1.657-9.627 1.212-14.512-1.664-18.283.152-36.794.924-55.058Zm683.638-176.562c-4.617 1.419-12.596 7.561-5.977 15.255 4.413 5.132 10.985 5.751 16.174 7.027 10.133 2.476 20.949 4.609 29.746 13.941 16.291 17.283 14.295 49.896 9.421 76.587 3.514 3.371 13.822-18.682 15.765-22.272 7.88-14.55 15.79-29.053 23.734-43.508 3.397-6.18-24.469-27.538-26.973-29.461-13.238-10.161-25.601-16.855-40.451-18.597-7.039-.829-14.47-1.114-21.439 1.028Zm-57.477-54.096c-1.267 5.199.951 7.561 2.988 11.16 11.382 20.092 19.397 48.535 25.736 73.474 3.163 12.446 5.376 24.986 7.331 38.022 1.92 12.789 8.02 16.207 15.328 19.835 16.84 8.361 34.561 11.16 51.453 19.416 4.524 2.209 5.411-14.026 5.697-18.14.812-11.722.059-23.948-3.718-34.27-7.133-19.531-21.427-23.673-34.187-27.006-7.291-1.895-16.904-3.856-22.677-11.998-2.895-4.085-3.304-8.77-1.045-13.845 4.121-9.256 11.371-10.437 17.856-11.198 3.157-.362 22.7 2.856 23.342-.914-9.736-5.181-19.724-8.589-29.314-14.503-7.477-4.618-15.018-8.979-22.566-13.302l-7.553-4.314c-7.676-4.399-14.703-9.741-22.07-15.026-2.766-1.99-5.305-2.724-6.601 2.609Zm165.083 84.663c-2.434 5.351-4.857 9.846-6.684 15.854-2.13 7.009-5.668 11.474-8.621 17.502 15.351 4.418 30.002 10.027 44.793 18.13 7.6 4.162 15.445 6.209 23.214 9.189 6.52 2.505 13.46 6.371 20.214 4.086-7.688-17.283-28.187-12.503-33.586-33.443-3.672-14.236 5.352-25.596 12.736-28.071 12.888-4.314 26.628-4.647 39.727-6.18.134-8.18-47.397-12.408-52.096-13.074-8.341-1.172-17.05-3.733-25.379-4.2-7.734-.438-10.262 11.303-14.318 20.207Zm-181.369-59.781c-4.582 7.218-9.065 14.597-13.635 21.825-3.006 4.761-7.08 9.817-9.45 15.483-3.03 7.227 2.271 10.703 5.802 14.131 8.919 8.637 18.13 16.702 27.206 24.92 8.149 7.389 16.624 16.788 25.619 21.101 4.816 2.314 9.333 5.894 13.974 8.932-2.242-32.785-13.775-62.561-24.416-89.89-2.44-6.285-4.968-12.465-7.408-18.74-1.231-3.161-3.513-10.617-6.093-11.255-3.818-.962-9.287 9.846-11.599 13.493Zm233.26 83.434c5.58 5.218 11.166 7.865 17.458 3.923a89.87 89.87 0 0 0 4.594-3.266c-4.191-9.322-16.589-3.638-22.052-.657ZM488.354 430.131c-9.887 7.275-20.458 14.512-29.056 25.492-3.176 4.046-10.268 12.559-8.61 20.272 1.424 6.609 9.275 12.237 12.999 14.246 19.613 10.598 41.928 2.885 59.987 22.33 4.886 5.256 6.479 12.131 10.11 19.054 3.28 6.256 7.436 5.475 11.849 2.875 5.791-3.409 11.131-8.627 16.945-11.969 2.977-1.714 8.026-2.847 8.335-9.399 1.46-30.861-2.58-70.188-19.25-89.071-18.719-21.197-44.543-7.637-63.309 6.17Zm-10.605 71.932c-.479 3.913 18.077 10.998 20.091 11.903 11.207 5.037 21.673 17.006 33.277 18.939 2.019-7.341-14.056-19.035-16.601-20.549-11.598-6.875-24.58-8.113-36.767-10.293Zm364.335-13.712c14.067 9.408 27.703 20.92 39.494 36.937 4.062 5.522 13.944-20.683 16.156-24.701-18.736-1.276-37.199-7.104-55.65-12.236ZM579.19 303.99c-13.04 14.055-24.398 32.433-38.711 43.212 4.477 1.152 9.369-3.58 13.647-5.247 4.168-1.609 8.376-2.676 12.433-4.97 2.492-1.4 12.783-10.475 14.709-4.324 3.018 9.608-18.229 16.255-21.252 17.893-10.198 5.532-20.337 11.331-30.435 17.349-9.782 5.828-19.554 12.103-29.663 16.293-10.262 4.256-21.148 5.351-31.018 11.96-8.727 5.837-16.227 15.502-24.644 22.33-8.441 6.846-18.037 11.074-25.315 21.253 7.915 13.779 17.271 25.32 27.509 34.109 1.641-21.016 16.735-32.985 27.061-41.06 22.507-17.607 56.321-44.155 79.261-14.321 16.77 21.815 19.046 63.189 19.046 95.584 4.541-2.361 8.686-6.113 12.906-9.655 2.924-2.457 2.959-9.294 3.321-13.855.607-7.485 1.845-14.722 3.269-21.901 3.146-15.865 7.086-31.348 10.845-46.86 6.076-25.072 13.571-49.811 17.307-76.197 2.434-17.216 5.335-46.811-7.384-55.362-11.009-7.39-23.955 4.132-32.892 13.769Zm-56.946-70.084c-2.124 2.323-1.331 9.294-1.191 12.798.532 12.722.199 25.5.462 38.251.315 15.54.385 44.021 10.203 52.734 6.712 5.961 15.065-2.971 20.424-9.046 9.064-10.284 17.382-22.225 26.576-32.261 10.897-11.903 31.543-28.358 41.968-5.971 5.644 12.112 4.85 30.167 3.444 44.26-1.857 18.597-6.199 36.232-10.513 53.61-8.907 35.889-18.206 72.36-23.155 110.354 11.294-10.96 20.073-26.739 29.932-40.613 7.308-10.274 18.159-22.082 19.846-38.832.379-3.78 2.626-6.484 4.167-9.008 2.008-3.294 3.427-6.637 4.699-10.836 2.808-9.284 4.635-19.311 5.785-29.462 2.416-21.311 1.266-42.526-.963-63.704-1.004-9.589.472-19.864-.893-29.205-.952-6.485-3.759-6.094-7.489-7.57-13.431-5.313-26.892-10.465-40.334-15.721-5.464-2.143-11.4-6.152-17.068-6.018-4.652.104-8.563 4.637-12.578 7.913-6.596 5.389-17.074 14.807-24.644 9.446-8.826-6.237 1.459-20.321-2.966-26.986-3.035-4.571-12.1-1.829-16.215-2.962-2.253-.619-7.43-3.437-9.497-1.171Zm138.828 184.027c-6.415 1.648-10.127 6.19-13.664 15.103-3.59 9.055-4.016 13.54 1.103 20.625 5.522 7.646 11.3 15.188 17.161 22.073 7.43 8.722 15.678 15.33 23.021 24.272 3.216 3.914 17.815-26.777 20.348-30.986 3.496-5.799 7.08-11.626 10.828-16.968 1.371-1.952 5.667-6.475 5.667-9.799.006-8.398-11.399-15.902-15.071-18.216-8.224-5.18-16.846-7.265-25.607-7.484-7.769-.191-16.087-.6-23.786 1.38Zm28.596-36.927c-6.024 5.218-12.316 9.617-18.381 14.731-2.148 1.809-15.708 11.103-15.025 16.664 15.258-1.581 30.452-5.799 45.663-.981 6.83 2.171 13.344 5.799 19.053 12.493 4.319 5.076 7.617 14.817 11.907 6.142-8.761-8.103-16.653-18.844-24.428-29.271-3.397-4.571-6.899-8.865-10.349-13.303-2.055-2.637-5.446-9.075-8.44-6.475ZM328.729 259.664c-4.774 1.095-9.427 3.161-14.114 4.932-18.993 7.18-38.058 13.617-57 21.216-37.781 15.15-76.692 29.757-112.717 54.029 3.029 5.466 11.055 1.505 14.814.438 7.359-2.095 14.5-5.761 21.77-8.532 7.111-2.704 14.248-5.932 21.417-8.189 3.302-1.038 9.126-2.4 9.259 5.675.189 11.456-13.446 20.016-18.451 24.206-5.351 4.476-10.533 9.418-15.627 14.626-4.027 4.114-11.455 9.599-12.761 17.778 13.069-9.036 26.147-18.035 39.136-27.376 4.893-3.514 9.85-6.828 14.508-11.122 3.105-2.866 7.102-7.885 10.78-8.342 4.979-.609 5.804 6.771 3.707 12.722-2.626 7.456-8.044 11.655-12.029 16.873-5.081 6.647-9.577 14.493-14.151 22.016-3.798 6.256-8.687 12.407-10.669 20.854 6.826 3.723 14.582-8.218 19.598-14.122 7.882-9.274 15.224-19.368 22.744-29.385 3.847-5.133 8.433-13.436 13.496-14.969 6.417-1.943 5.886 10.036 4.33 16.635-3.478 14.74-11.621 27.043-12.203 43.669-.358 10.236 4.955 6.342 8.501 2.238 5.97-6.923 10.01-17.455 15.429-25.387 13.047-19.101 27.984-35.394 44.123-46.706 2.889-2.029 3.928-9.304 4.804-13.674 1.313-6.514 2.819-12.846 4.395-19.216 3.45-13.96 6.281-29.053 11.12-41.955 1.348-3.59 4.827-7.256 1.949-9.37-1.564-1.153-4.541.066-6.158.438Zm137.777-23.616c-4.891.934-9.835.848-14.732 1.686-7.997 1.381-4.512 17.245-5.796 26.805-3.794 28.148-22.076 33.461-35.933 20.187-7.793-7.475-12.474-18.187-16.665-30.709-2.387-7.142-4.167-8.294-9.111-6.504-3.392 1.229-6.48.962-9.929 1.371-4.343.515-4.722 2.019-4.81 8.761-.082 5.989-.607 10.141-3.053 14.998-4.658 9.236-12.468 15.321-19.122 19.968-6.66 4.656-14.213 8.113-17.873 19.111-1.844 5.542-3.823 12.16-4.354 18.464-.584 6.894.846 11.16-1.617 17.511-5.113 13.207-7.46 27.643-10.046 42.65-.84 4.895-1.179 6.904 2.096 8.247 4.693 1.933 11.359-1 16.174-1.305 3.432-.219 5.44-10.103 6.555-14.112 2.172-7.789 4.839-15.159 7.501-22.53 6.041-16.702 12.503-33.289 20.394-47.878 5.96-11.007 14.751-24.719 22.38-9.246 7.436 15.084 12.794 32.738 21.731 45.888 7.862 11.56 15.964 11.741 24.124.79 8.026-10.788 14.126-25.51 19.117-40.193 5.399-15.883 9.467-32.833 14.726-48.811 1.646-4.999 9.264-18.55 6.941-24.349-1.565-3.923-6.497-1.219-8.698-.8Zm40.941-3.466c-4.301.334-8.633-.457-12.934-.6-7.787-.247-14.301.2-18.212 12.379-3.456 10.741-6.397 22.178-9.544 33.185-6.846 23.911-13.565 48.374-24.071 68.723-9.311 18.016-21.341 27.1-33.452 9.884-5.371-7.637-9.451-17.483-13.303-27.167-3.088-7.761-6.613-21.425-11.791-25.948-5.767-5.047-12.374 6.532-15.9 12.807-5.936 10.56-10.892 22.968-15.655 34.956-3.45 8.694-6.753 17.578-10.11 26.377-1.36 3.561-6.905 15.226-5.06 19.673 1.85 4.456 10.88 1.409 13.489 1 6.234-.971 12.462-1.314 18.702-2.19 19.408-2.724 38.524-9.684 57.985-11.541 12.812-1.229 25.444-5.266 38.057-8.942 12.27-3.571 24.615-6.008 36.75-10.731 7.139-2.771 14.284-5.552 21.405-8.427 2.469-1 14.114-3.714 14.837-8.942-8.02-2.285-12.228-7.361-15.077-20.12-3.56-15.998-3.975-33.814-4.278-50.668-.117-6.476-.134-12.97-.134-19.445v-7.789c-.006-4.647 1.225-13.084-1.343-16.312-2.376-2.98-7.606-.371-10.361-.162Zm159.217 103.269c.339 21.073-1.973 42.308-7.273 61.552 5.545 1.457 12.147-9.903 16.799-13.712 1.792-1.466 13.665-8.503 9.69-13.883-7.314-9.894-12.107-23.73-19.216-33.957Zm159.106 17.131c1.628 5.237-.38 11.893-1.471 16.864 8.469 3.314 16.898 6.58 25.426 9.398 6.432 2.124 4.191 8.418-1.389 7.98-7.763-.6-14.984-5.97-22.706-6.666-7.355-.666-8.225 9.818-14.494 11.837.21-5.771 3.071-9.77 5.125-14.093-3.385-2.838-6.847-5.476-10.127-8.599-1.699-1.609-6.397-8.399-4.588-11.998 1.821-3.638 6.613 3.18 8.318 4.675 2.422 2.143 7.255 6.847 10.104 5.495 3.905-1.847 3.093-10.998 5.802-14.893ZM703.782 215.69c-3.438.39-7.174-1.495-10.425.971-3.246 2.457-7.116 7.846-9.83 11.579-2.626 3.619-3.928 8.008-7.197 10.141-3.257 2.133-6.602 1.943-7.856 8.456 2.959 1.324 8.767-.438 11.084 3.114 3.368 5.161-2.51 10.846-4.95 12.474-3.502 2.333-6.362 1.571-9.94 1.133-1.559-.181-1.541-.962-2.82.295-4.728 4.666-1.459 21.264.076 27.31 7.507 29.634 33.155 19.654 47.946 16.626-4.705-7.741-12.416-16.273-12.801-28.433-.117-3.619.432-10.084 3.281-10.389 2.276-.238 5.008 5.38 6.426 7.589 4.203 6.552 9.637 17.426 15.719 18.369 8.119 1.257 14.371-20.216 17.745-29.586-4.145-1.267-8.68-1.19-11.091-7.818-2.86-7.884-2.906-19.959-2.86-28.833.041-7.551 1.518-15.817-4.669-16.188-5.697-.333-12.083 2.542-17.838 3.19ZM158.24 235.068c-1.184 4.208-6.327 5.865-8.586 6.989-8.589 4.285-16.977 9.722-25.352 15.055-16.907 10.769-33.63 22.663-49.067 38.489-2.885 2.961-1.472-2.743-.722-4.809 1.68-4.609 5.21-7.875 7.846-10.703 7.134-7.646 14.69-13.027 22.58-18.14 15.785-10.246 31.811-21.101 48-29.395 1.878-.962 6.892-3.152 5.301 2.514Zm196.085 20.863c-3.141.533-6.818-.638-9.836 1.038-3.934 2.18-3.28 6.58-4.448 11.998-1.973 9.198-4.086 18.321-6.146 27.472 7.623-.581 14.931-10.437 21.393-16.102 3.66-3.209 16.378-13.865 12.543-23.616-2.428-6.18-10.022-1.38-13.506-.79Zm86.79-16.036c-4.722-.133-9.911 2.2-14.691 2.581-6.409.524-12.719 2.514-19.123 2.99-4.208.324-8.341 1.733-12.508 2.657 4.144 15.664 12.234 29.376 22.396 35.051 8.02 4.476 19.245 5.237 24.72-7.151 3.152-7.132 8.306-35.861-.794-36.128Zm245.897-64.718c-5.148 5.582-9.275 13.584-13.577 20.716-10.775 17.873-21.924 37.013-26.588 61.514-.642 3.352 4.215 6.323 5.534 6.456 2.778.267 3.339-2.019 4.43-5.847 2.703-9.484 3.736-20.082 8.055-28.176 5.265-9.856 11.598-19.473 17.71-27.948 4.15-5.751 14.324-13.855 15.52-23.376 1.407-11.252-7.967-6.718-11.084-3.339Zm-132.828 65.109c-2.912 1.381-3.14 5.78-3.805 10.512-2.679 19.035 24.393-1.733 28.163-4.837-1.255-6.113-13.594-4.999-16.448-5.237-2.23-.191-5.756-1.457-7.91-.438Zm159.912 9.884c-4.01.257-2.166-26.482 2.399-23.796 3.911 2.304.169 23.634-2.399 23.796Zm-563.948-30.747c-6.143 8.655-15.787 9.817-23.424 12.598-11.254 4.085-22.409 9.303-33.572 14.007-7.048 2.971-3.08-4.114.45-6.771 6.067-4.58 12.938-7.027 19.423-9.541 7.022-2.733 14.197-4.552 21.179-7.523 4.834-2.066 11.069-7.332 15.944-2.77Zm191.096-185.95c6.823 2.045 13.641 5.608 19.624 11.443 4.956 4.832 4.757 12.348-1.524 7.987-29.296-20.348-65.643-8.023-94.251 9.995-3.157 1.988-2.922-2.348-1.968-5.69 1.313-4.603 4.12-7.275 6.815-9.413 8.096-6.425 17.428-10.058 26.23-12.727 14.675-4.448 30.329-6.011 45.074-1.596Zm4.278-29.227c3.724 1.647 8.003 5.734 10.279 10.918 2.662 6.067.543 9.167-3.152 5.6-4.126-3.982-7.903-7.953-12.637-10.055-2.498-1.11-2.399-3.668-.601-5.915 1.681-2.103 4.29-1.357 6.111-.548Z" clip-rule="evenodd"/>
  <path fill="#FF5678" fill-rule="evenodd" d="M1184.86 507.71c39.23-5.095 76.66 18.768 108.02 55.952 40.41 47.926 74.67 116.477 97.85 188.703 2.47 3.095 4.9 6.276 7.31 9.485 12.9 17.159 25.51 35.28 36.69 55.448 6.23 11.255 22.6 38.632 15.5 55.895-1.51 3.667-3.99 5.771-6.47 7.218-6.95 4.066-14.2 6.123-21.05 10.875-8.47 5.866-17.25 14.083-22.67 26.605-1.55 3.561-1.95 7.77-4.02 9.341-2.2 1.667-6.35 1.01-8.75 1.4l-14.49 2.314c-11.35 1.819-23.22 2.019-34.33 6.494l-51.08 20.578c-10.45 4.218-22.46 6.532-32.36 13.455-14.79 10.322-28.9 25.443-43.04 37.907l-20.53 18.07c-3.34 2.95-5.63 2.98-9.54 3.48l-28.26 3.55c-4.56.57-6.75 3.56-7.34-3.87l-6.57-81.838-3.47-43.279c-.21-2.571-.15-15.321-1.44-16.864-.81-.962-5.57 1.114-6.45 1.295l-12.82 2.562c-9.24 1.847-18.48 3.694-27.71 5.532-.75.152-4.9.076-5.37 1.076-.54 1.171.5 7.904.59 9.351.97 15.197 1.96 30.386 2.94 45.583.11 1.762 1.43 9.932.73 11.379-.48 1.009-3.96 1.124-4.66 1.314-8.92 2.371-17.82 4.752-26.74 7.123-6.38 1.704-14.71 1.619-20.75 5.532-3.46 2.248-6.88 7.999-9.88 11.589l-43.455 52.185c-6.59 7.91-15.474 5.89-23.5 6.89l-92.581 11.51.228-14.11 1.225-74.777.531-32.595c.036-2.066-.472-8.094.357-9.627 1.097-2.018 6.006-2.894 7.529-3.637l15.328-7.399c14.99-7.246 29.979-14.483 44.969-21.72a90191.063 90191.063 0 0 1 44.443-21.473c5.066-2.447 10.139-4.894 15.205-7.342 1.174-.571 5.261-1.323 6.081-2.933 1.02-2.037.56-10.722.73-13.302.8-12.598 1.94-25.129 3.34-37.584 10.07-89.824 33.61-181.057 77.26-240.971 28.85-39.613 65.04-61.514 102.47-66.37Zm6.92 180.123c-3.89-7.447-10.41-19.587-17.27-17.569-5.58 1.638-8.62 12.922-10.56 20.416-7.81 30.148-10.24 64.694-12.67 96.918-1.52 20.216-2.75 40.517-3.53 60.838 27.83-3.486 55.66-6.98 83.49-10.475-1.31-14.474-2.36-29.081-3.95-43.479-.79-7.227-2.98-13.721-4.85-20.396-8.39-29.824-17.54-61.114-30.66-86.253Z" clip-rule="evenodd"/>
  <path fill="#000" fill-rule="evenodd" d="m1578.12 100.181.67.02c18.47.802 34.76 20.197 47.39 40.723 6.25 10.149 11.95 22.087 14.63 35.979 3.09 16.048 2.07 33.702-.28 49.804-5.21 35.594-11.56 71.37-18.71 106.05-3.52 17.064-8.62 33.794-11.28 51.258-2.19 14.388 7.03 24.872 7.38 39.66.36 14.912-5.79 28.929-14.24 34.252-3.6 2.276-7.95.381-11.27 2.704-3.03 2.124-4.1 8.399-4.68 13.217-.79 6.58-.65 13.141-.43 19.768.14 4.057-.47 10.675.73 14.293.84 2.486 2.36 3.305 3.66 5 1.78 2.323 2.97 5.208 4.54 7.875 2.58 4.399 5.06 6.779 5.76 13.197.37-1.457.75-2.913 1.11-4.37 1.93 5.742 3.36 8.494 1.53 13.94 5.67-.914 9.03 15.883 10.52 22.244 2.72 11.656 4.58 23.758 7.32 35.423 3.74 15.988 8.65 31.757 11.03 48.488 2.01 14.055 3.59 28.49 5.38 42.65 1 7.97 1.88 16.064 3.71 23.663.71 2.952 2.04 4.932 2.86 7.57 1.12 3.599.69 5.494.74 9.437.1 7.036 2.81 11.598 3.67 18.425.91 7.294 1.66 14.674 2.57 21.977 1.86 14.731 5.3 29.434 6.13 44.346.95 17.321 3.01 34.423 4.05 51.744.91 15.14-.63 31.395 1.3 46.04 1.73 12.988-.4 24.882-1.16 37.784-.2 3.276 2.9 22.778-2.07 19.035.93 4.6 2.24 6.79 2.31 11.837.07 4.713-.68 9.569-1.29 14.14-1.18 8.846-1.96 18.486-4.26 26.766-2.61 9.37-6.58 10.49-11.98 13.7-3.65 2.18-10.23 9.95-13.11 1.64-1.71 8.52-5.07 2.63-8.82 2.15.02.01-2.16 1.32-2.56 1.41-1.32.29-2.88-.72-4.2-.9-3.28-.45-6.49.26-9.7 1.35-7.38 2.5-14.52 5.95-22.03 7.69-14.63 3.4-28.98 1.79-43.64 3.29-28.71 2.9-57.87.47-86.59-.8-3.08-.13-6.4.57-9.45-.2-3.28-.84-3.99-3.37-6.54-5.9-4.25-4.21-8.96-.12-13.37 1.42-12.94 4.52-26.45 4.85-39.49 9.22-26.49 8.89-50.9 26.4-76.27 41.19-11 6.39-23.91 16.77-35.78 17.22-14.37.52-10.98-22.59-8.33-37.45-8.31 3.6-21.35 20.04-29.8 10.49-10.06-11.37 2.74-30.27 3.34-43.64-17.98 6.1-38.37 19.46-56.63 8.6-3.51-2.09-6.57-6.51-10.34-7.23-3.92-.74-8.06 1.52-12.02 1.48-9.03-.09-17.79-2.06-26.82-.24-20.12 4.04-39.96 6.26-60.24 7.13-20.42.87-40.84 2.85-61.27 2.77-10.37-.04-20.936-2.05-31.285-1.16-4.062.36-12.806 5.17-15.66-1.56-2.866 5.61-5.3 1.86-8.978 2.48.683-.12-1.914 2.34-2.305 2.57-1.932 1.17-3.742.82-5.762.78-5.375-.09-10.395 4.02-15.742 3.63-1.354-.11-2.376-.74-3.526-1.51-.274-.18-.204-2.08-.642-2.24-2.615-.96-1.938 1.65-3.601 2.98-1.845 1.45-4.565-.91-3.52 3.59-4.996-.37-9.73 2.39-14.277-2.45 2.148 7.75-5.359 1.31-7.32 1.18-3.263-.21-6.117 2.45-9.368 3.07-3.905.73-7.822-2.22-11.639-.42-2.989 1.41-4.016 4.81-7.127 3.06-2.645-1.46-4.296-4.67-5.581-8.17-1.768-4.83-1.996-6.99-6.263-7.07-3.169-.07-6.35 1.05-9.543 1.04-3.666-.01-7.688-.65-11.032 2.2-3.602 3.05-5.715 7.71-9.713 10.11-17.961 10.78-37.678 7.92-56.415 7.74-7.909-.08-13.711 1.1-15.929-13.61-1.874-12.43-2.627-25.44-4.419-37.97-2.189-15.37-4.599-29.616-9.462-43.357-4.722-13.312-8.691-27.072-12.8-40.908-8.546-28.776-20.436-53.258-33.697-76.635-5.038-8.884-10.816-18.787-11.05-31.576-.169-11.046 2.814-22.491 6.724-31.3 3.491-7.846 9.246-16.711 15.754-14.883 3.917 1.105 6.485 6.266 9.416 10.141 3.192 4.228 6.677 7.104 10.53 9.418 8.989 5.38 16.524 11.265 24.305 20.549 7.874 9.389 15.235 19.911 22.041 31.309 13.075 21.873 26.465 44.593 33.977 72.912 2.959 11.16 4.851 21.921 6.87 33.49 1.979 11.36 7.378 8.227 13.449 6.599 7.395-1.99 14.826-3.057 22.274-4.323 2.802-.476 6.753-.609 8.44-4.933 1.862-4.77-.274-10.941-.444-15.883-.087-2.637.45-4.589.584-7.16.152-2.933-.379-5.609-.379-8.523 0-6.275 1.798-11.855 4.786-15.654 5.592-7.114 13.752-11.351 20.371-15.265 9.042-5.342 18.731-7.97 28.041-11.779 10.49-4.294 21.031-8.16 31.573-12.065 10.361-3.827 20.698-7.77 31.17-10.722 6.14-1.733 12.8-1.095 18.754-4.266 6.322-3.361 5.277-13.74 5.253-22.948-.029-15.198 1.127-30.843 2.487-45.869 2.91-31.947 9.82-63.209 16.1-93.737 6.06-29.396 13.56-57.62 25.94-81.473 12.05-23.225 26.84-44.25 42.19-61.504 15.99-17.988 33.78-30.986 50.47-47.04-3.65-4.552-8-8.437-10.09-15.445-2.37-7.913-1.37-17.379-1.27-25.844.12-9.541.29-17.921 2.38-27.024 1.15-4.98 5.57-14.426 4.89-19.844-1.13-9.094-13.33-15.741-17.82-19.483-7.03-5.866-14.09-11.827-20.58-19.245-6.23-7.103-12.08-15.664-15.86-26.576a75.498 75.498 0 0 1-2.63-9.722c-.76-3.771-.23-5.047-2.54-5.323-3.68-.448-9.2 5.589-12.31 8.246-15.99 13.741-33.56 32.233-52.44 31.004-6.84-.447-14.543-3.961-16.96-15.616-3.193-15.341 3.467-31.195 9.304-42.279-11.388 2.923-32.395 12.055-41.384-4.533-5.989-11.055-1.471-28.595 3.549-38.174 6.636-12.665 16.098-20.369 24.842-28.424-10.728-6.676-22.601-10.941-32.028-22.102-9.024-10.684-7.909-27.081-.782-39.679 7.617-13.462 20.932-20.358 31.409-25.356 12.847-6.13 25.61-5.639 38.85-5.228 23.76.737 44.17 15.031 63.66 36.64 10.3 11.427 20.46 23.758 29.6 37.604 8.57 12.979 17.71 25.043 26.16 38.165 8.18 12.712 14.62 28.462 23.26 40.346 7.34 10.093 15.4 24.405 24.73 28.89 9.89 4.752 18.8 12.617 28.77 17.293 11.32 5.304 21.05 14.178 31.54 22.653 44.02 35.528 91.28 58.648 137.68 84.158 23.74 13.046 47.64 22.244 71.87 32.214 12.17 4.999 23.47 7.666 36.03 6.761 2.9-.2 5.66-.324 8.52.333 2.09.476 3.68 1.771 5.56-.276 2.69-2.933 3.7-10.57 5.3-14.912-8.93-4.523-17.68-9.417-21.76-24.367-2.57-9.418-3.91-20.407-5.04-30.51-.6-5.437-.61-10.922-1.13-16.369-.28-3.009-1.16-6.141-1.09-9.217-.2 1.714-6.86-3.904-7.83-4.952-3.73-4.028-4.4-12.15-4.37-19.006.04-7.742 1.47-16.245 4.69-22.12 1.52-2.781 3.34-4.857 5.55-5.904 1.57-.752 3.65.228 5.04-.524 6.15-3.323 6.84-28.167 7.71-37.213 1.92-19.93 3.84-38.956 7.99-58.067 7.57-34.832 17.32-68.684 28.91-100.396 9.95-27.176 19.88-60.404 41.74-60.791h.68Zm-188.98 836.745c-8.85 2.495-17.32 7.608-25.87 11.931-7.98 4.047-16.07 6.628-24.26 9.256-16.3 5.228-32.95 10.017-49.01 16.835-4.52 1.924-6.9 6.256-10.85 9.275-2.92 2.238-5.67-.028-8.72-.219-6.62-.409-13.97 3.114-20.34 5.742-15.04 6.199-28.38 16.964-41.99 28.884-1.22 1.06-9.46 7.21-9.07 9.76.32 2.07 10.79-3.51 12.45-3.92 8.43-2.1 16.67-6.43 25.03-9.13 6.87-2.21 13.82-3.7 20.66-6.16 7.6-2.73 23.82-12.235 24.46 8.28.69 22.17-14.3 28.99-23.32 39.33 1.01 2.83 15.47-6.5 17.26-7.44 6.15-3.24 11.86-9.08 18.13-11.56 10.89-4.33 9.57 15.32 3.56 24.06-6.69 9.7-17.74 12.63-21.44 27.58 4.86 2.85 11.22-2.52 15.67-5.19 5.87-3.51 11.75-6.97 17.66-10.31 13.23-7.51 25.81-17.85 39.12-25 27.31-14.68 56.18-18.89 84.74-21.49-2.55-16.12-5.33-32.124-7.61-48.34-.98-6.932-1.88-13.902-2.62-20.92-.52-4.885-.08-16.56-2.14-20.407-2.51-4.684-9.04 1.895-12.6 1.772-3.48-.124-6.02-3.057-9.24-3.981-3.05-.876-6.67.515-9.66 1.362Zm-513.183 93.224c0 7.7-.818 17.03 5.387 17.94 5.02.72 14.838 1.67 18.842-4.16-3.835-3.06-8.195-3.59-12.269-5.34-4.25-1.84-8.166-4.85-11.96-8.44Zm102.422-140.283c-1.885.028-5.072 3.456-6.794 4.409-3.152 1.742-6.351 3.218-9.567 4.608-9.666 4.181-22.117 4.828-26.553 21.768-2.218 8.447-3.753 30.177-11.452 30.1-6.841-.066-10.939-16.188-15.818-21.92-5.049-5.923-13.046-1.895-18.486.676-5.528 2.619-14.109 5.971-13.49 17.407.444 8.218 1.354 15.702 1.314 24.101-.053 10.693-.607 21.358-.607 32.054 3.881-8.687 7.267-26.131 14.143-29.626 6.952-3.523 10.88 16.283 12.684 23.882 2.241 9.404 5.054 20.074 5.229 30.274.053 3.2-1.138 11.99.228 14.62 1.208 2.34 5.866.64 7.366.38 9.316-1.58 18.58-3.54 27.919-4.86 4.798-.68 6.105-2.39 5.633-10.82-.368-6.62-.479-12.92.029-19.56 2.265-29.641 13.454-56.76 32.366-61.912 11.4-3.094 24.707-.828 36.087 2.152 4.39 1.143 9.15 4.609 13.6 4.314 3.3-.228 2.23-.533 2.91-5.59.47-3.532 1.48-6.551 3.13-8.998 1.3-1.933 2.95-.848 4.18-3.371.89-1.838.76-4.333 1.17-6.437.82-4.114 2.3-9.656 5.24-10.694 4.74-1.666 9.77 8.685 12.17 14.017 2.47 5.523 3.21 21.997 7.18 24.158 4.59 2.486 10.04-7.322 10.99-13.493 1.29-8.313-.33-17.292-1.1-25.519-.06-.591-.28-6.057-.53-6.418-.67-.962-5.71-.686-6.6-.762-4.39-.343-8.79-.362-13.18-.381-17.23-.067-34.11-2.828-51.22-5.78 2.49 6.618 6.74 17.473 2.37 24.453-3.24 5.171-9.072 2.581-13.141 3.647-5.744 1.505-15.427 10.398-20.896 3.895-7.717-9.17 1.009-24.92 3.875-33.585.613-1.857 2.884-8.39 1.921-10.57-.835-1.886-1.074-.629-2.3-.619ZM849.918 991.755c-3.935 1.962-7.904 3.847-11.931 5.295-4.717 1.704-12.036.057-14.33 8.52-1.751 6.45-.882 16.85.537 23.26 1.628 7.35 5.44 9.24 9.94 9.8 5.259.65 10.583-.73 15.772-1.9 2.049-.46 4.226-1.3 6.31-1.31 1.231 0 3.724 1.84 4.821.34 1.418-1.95.485-13.04.374-15.7-.28-6.57-1.045-13.07-1.255-19.67-.146-4.731.945-11.168-2.452-12.177-2.119-.629-5.942 2.628-7.786 3.542Zm318.042-130.293c-2.94.838-5.87 1.428-8.86 1.352-1.84-.048-4.05-1.066-5.75.581-3.14 3.047-2.67 11.065-2.57 16.074.14 6.075.46 12.236.86 18.282.38 5.771 2.32 15.293-.43 20.235-1.93-3.456-2.89-14.75-6.62-14.34-4.1.457-2.21 11.16-1.84 14.997 2.01 21.197 4.3 42.412 6.11 63.666.85 10.103 1.95 20.141 2.52 30.301.39 6.81.52 12.95 5.19 14.36 4.32 1.31 9.18-.93 13.56-1.1 4.5-.17 7.08-.67 9.67-7.31-6.21-2.22-16.03-.87-19.52-11.57-4.08-12.492 4.52-23.729 8.74-32.261 3.25-6.56 9.88-28.357 15.91-15.407 2.17 4.657 2.56 11.77 3.66 17.198 1.78 8.808 3.96 17.492 6.09 26.08 19.54-16.463 39.59-31.299 60.9-40.535-5.43-14.988-12.16-28.481-16.23-44.726-4.56-18.207-8.33-36.899-12.98-55.049-7.39 7.037-15.29-10.017-22.65-10.703-11.61-1.085-24.37 6.656-35.76 9.875Zm-115.74 122.723c-4.05 3.933-10.01 11.589-10.98 19.515-1.68 13.68 7.89 4.53 10.84 1.53 6.18-6.266 12.25-8.266 19.35-4.41 9.11 4.96 17.5 13.32 27.28 6.97 4.87-3.16 15.66-9.921 12.75-22.053-2.01-8.351-7.89-1.181-10.99 1.809-8.13 7.847-14.86 2.876-22.98-2.79-8.13-5.656-17.28-8.351-25.27-.571Zm-288.492-70.236c-3.251 7.522 3.362 5.894 6.263 6.627 6.071 1.533 12.322 9.427 10.647 20.606-1.629 10.894-8.02 17.712-9.234 29.148-1.051 9.818-.041 22.254 5.773 27.643 3.262 3.027 10.395 4.277 13.682.8 5.019-5.313-1.215-13.226-4.53-15.854-4.401-3.486-7.95-5.371-5.779-14.531 2.656-11.17 7.81-19.74 7.349-32.519-.373-10.589-3.8-22.615-10.04-27.015-4.465-3.152-11.084-1.952-14.131 5.095Zm444.002-32.452c5.62-.391 5.85 10.693 5.57 16.15-.39 7.446.43 15.397.53 22.872.13 9.913 1.4 42.346-9.34 37.527-6.9-3.094-12.58-13.893-18.13-20.825-5.1-6.389-18.08-14.045-18.92-26.148-.95-13.674 9.29-16.226 15.15-18.397 8.37-3.104 16.49-10.57 25.14-11.179Zm-27.38-360.333c-8.92 1.4-17.78 3.562-26.26 8.39-5.75 3.275-14.56 5.618-18.63 13.635-3.52 6.942-2 16.836-3.14 25.034-1.54 11.084-6.23 9.57-10.79 2.648-5.44-8.294-7.01-14.293-14.6-6.514-15.69 16.103-28.13 39.88-40.58 61.905 9.63 4.751 28.51 5.904 31.71 25.529 1.75 10.732-3.52 18.54-8.26 24.396-6.11 7.561-12.49 14.55-18.47 22.415-5.58 7.342-18.09 36.557-21.62 10.865-2.19-15.902 1.91-32.337.17-48.04-7.57 19.912-15.26 39.775-22.19 60.305-5.91 17.473-9.34 36.156-12.18 55.477 4.42.476 9.02-3.19 13.38-1.029 4.21 2.086 6.17 8.571 6.47 15.303.5 11.398-2.73 22.996-4.35 33.947-1.11 7.522-2.39 24.586-8 27.033-6.4 2.781-10.41-13.274-13.26-19.796-2.72 6.808-2.68 16.778-3.07 24.586-.27 5.361-2.11 15.398 1.59 18.369 3.46 2.78 10.76-.705 14.47-.962 6.87-.476 13.87-1.381 20.75-1.048 6.49.315 16.05 5.98 18.58-7.046 1.73-8.865 3.25-40.736 12.46-23.444 4.1 7.675 7.3 16.426 11.25 24.253 3.99 7.885 7.61 8.408 13.57 8.009 11.79-.791 23.3 2.904 34.84 5.884 10.12 2.619 8.79-11.398 8.64-23.882-.23-19.349 2.12-39.574 3.4-58.819 3.05-45.754 9.31-90.956 18.93-134.226-8.05-4.475-22.49 13.579-28.44-.133-4.89-11.274 1.4-26.805 3.96-37.337 3.19-13.15 4.8-26.891 10.01-38.536 1.64-3.686 3.98-8.609 7.17-7.371 2.72 1.067 3.81 6.742 5.35 9.951 4.87 10.179 11.1 17.807 15.44 28.9 2.65 6.79 4.71 14.046 5.57 22.016.24 2.19-.06 6.684.88 8.522 2.93 5.694 12.17 5.609 16.27 9.103 14.01 11.932 18.93 46.66 24.37 68.561 1.54 6.17 3.05 12.35 3.87 18.892.54 4.361.51 9.922 1.97 13.836 3.17 8.56 13.01.914 17.85-.41 8.1-2.218 16.16-4.332 24.3-6.199 4.96-1.133 12.18-4.075 15.96 3.105 3.92 7.437 1.66 19.149-.3 27.129-3.21 13.026-7.32 25.472-10.71 38.374-2.7 10.294-4.05 23.558-9.24 31.49-4.5 6.876-11.95 8.847-17.25 3.248-3.02-3.19-10.78-34.071-12.83-32.69 3.69 23.853 9.12 48.173 14.85 70.941 1.75 6.989 4.77 21.244 9.22 25.043 3.68 3.142 12.04-2.799 15.81-3.952 3.58-1.095 10.63-5.827 14.05-2.361 4.14 4.209 4.65 15.435 5.11 22.406.35 5.161-.28 9.017 3.57 8.76 2.72-.181 5.45-2.342 8.06-3.428 6.04-2.514 12.32-4.18 18.47-5.799 14.23-3.752 28.46-7.494 42.69-11.341 12.23-3.304 24.3-3.285 35.35-12.75 5.6-4.799 12.02-6.266 17.99-9.475 5.91-3.18 11.81-5.247 18-6.437 13.53-2.618 26.7-5.17 40.07-9.646a616.034 616.034 0 0 0 21.91-7.761c6.49-2.437 12.75-6.322 19.2-8.712 5.36-1.991 9.77-.496 12.07-10.437 1.65-7.123 1.26-15.112 1.69-22.568 1.93-34.08-5.38-68.351-6.88-102.25-.48-10.979-.63-21.987-1.14-32.956-.23-5.028-.09-19.654-3.68-22.368-.33 4.018-.08 10.779-2.87 12.779 1.36-.981-.43 10.893-.53 12.093-.38 4.733.57 9.808.07 14.455.4 1.638.22 2.875-.52 3.704-.5.666-.88 1.514-1.11 2.542-.03 3.314.56 1.362.59 2.505.28 11.407-.9 23.234-.39 34.918.53 12.35 2.22 24.463 3.5 36.642 1.15 10.931 2.39 21.882 3.36 32.871.67 7.703 1.17 16.549-1.37 23.567-4.83 13.322-18.8 11.874-26.93 14.046-13.52 3.628-27.06 6.894-40.63 9.969-5.21 1.181-10.49 3.876-15.76 4.009-5.63.153-8.64-3.561-12.19-10.341-7.15-13.664-11.76-29.186-17.72-44.041-3.35-8.351-6.13-10.55-11.76-13.102-5.24-2.362-9.44-8.599-13.69-13.779-8.94-10.884-20.49-22.72-26.36-38.746-6.17-16.864 2.52-22.473 10.86-27.072-2.03-8.789-6.01-15.854-9.28-23.425-3.72-8.598-7.1-17.53-11.11-25.815-8.18-16.864-16.34-33.651-24.27-50.839-6.78-14.693-13.63-28.605-22.28-40.508-8.7-11.95-18.37-21.749-27.92-31.756-4.98-5.228-13.73-18.588-20.03-17.217-6.12 1.324-8.53 19.902-10.06 27.71-1.75 8.961-2.37 21.454-6.45 28.51-6 10.36-12.23-5.961-15.09-13.493-5.25-13.779-10.61-27.443-15.85-41.241-2.38-6.294-5.83-12.274-7.24-19.407-.02-.085-.69-6.218-.01-5.361l.04.067-.04-.086c-1.5-2.418-7.03-2.923-9.1-3.209l-.19-.028c-4.35-.676-8.76-.143-13.09.542Zm-58.44 386.538c-5.01-.048-10.01.905-14.99 1.571-4.39.581-8.4-.514-12.78-.942-5.41-.534-8.09.399-6.84 9.512.91 6.637 1.99 15.483 6.17 18.283 5.64 3.79 13.24 3.285 19.25 4.723 4.41 1.048 8.81 2 13.21 3.2 2.91.8 4.41 1.638 5.78-3.762 1.14-4.523.4-10.56.01-15.235-.29-3.581-.12-9.884-1.15-13.074-1.55-4.762-5.61-4.247-8.66-4.276Zm233.63-90.947c7.37 10.979 12.33 25.024 17.88 38.337 3.4 8.132 10.04 21.101 5.22 30.956-4.11 8.399-13.66 6.476-19.41 6.885-9.03.638-16.41 7.294-25.01 10.732-21.64 8.655-3.66-50.725-.67-63.123 2.11-8.694 4.28-17.35 6.82-25.73 1.15-3.78 3.44-14.797 6.3-16.235 4.13-2.095 6.26 14.274 8.87 18.178Zm-185.99-124.856c-3.44 10.731-4 25.596-5.63 37.318-4.98 35.841-7.9 72.34-10.19 108.877 11.4-7.379 23.43-7.894 35.47-9.703 8.73-1.304 16.74-2.799 25.46-2.2 1.48.105 5.76 1.343 6.99-.723 1.64-2.771-.35-10.494-.84-13.408-2.64-15.826-3.8-32.166-6.81-47.897-3.06-16.035-6.79-32.042-10.75-47.544-2.89-11.341-6.88-22.397-13.9-27.958-6.15-4.866-15.98-8.665-19.8 3.238Zm-46.96 69.76c4.7 11.56 10.65 21.673 15.24 33.337 3.26 8.275 7.06 23.578-.75 28.834-2.74 1.847-5.98 1.047-8.85 1.133-4.45.124-8.85.752-13.3.571-4.21-.161-8.38-.99-12.58-1.352-2.65-.219-5.98.105-8.3-2.371-6.26-6.656-1.74-20.244.28-28.938 2.13-9.227 5.02-17.959 7.81-26.71 1.93-6.075 4.81-18.435 9.21-20.911 5.2-2.933 9.08 11.074 11.24 16.407Zm227.8-130.95c10.32 19.596 19.29 40.965 27.73 62.79 4.12 10.655 8.12 21.425 12.11 32.204 2.62 7.056 4.58 16.074 7.76 22.463 7.27 14.569 9.29-17.216 10.36-24.13 3.95-25.481 8.83-50.753 13.19-76.082h-4.46c-17.78-.01-34.81-.439-52.11-8.99-4.9-2.418-9.37-7.665-14.58-8.255Zm-37.54 4.942c5.62 6.77 41.61 46.554 26.47 61.904-3.13 3.171-8.25 1.733-11.79 2.19-4.53.581-9.14 1.305-13.62 2.609-5.8 1.705-11.44 4.666-17.27 6.171-4.63 1.19-10.77 2.58-14.91-2.124-6.83-7.77-2.69-23.025-.43-32.909 3.2-14.026 6.24-32.813 14.19-41.174 1.85-1.943 4.12-8.894 6.11-9.522 3.12-1 8.97 10.103 11.25 12.855Zm198.53-329.976c-2.71 3.39-2.84 10.427-3.54 15.398-2.37 16.702-5.67 32.956-7.63 49.839-1.92 16.464-2.51 32.681-1.58 49.364.63 11.131.7 24.824 4.85 34.299 4.96 11.341 14.78 10.76 22.21 14.122 7.15 3.228 14.24 13.236 6.44 23.644-2.77 3.694-6.41 4.294-9.15 7.855-3.37 4.4-5.32 12.275-6.75 18.712-1.18 5.304-1.15 6.313 2.38 8.189 1.61.847 3.24 1.39 4.94 1.162 3.87-.524 7.31-4.685 10.55-7.818 8.25-7.98 17.78-18.626 27.63-19.835 3.15-.381 6.73 1.723 9.79.047 2.85-1.552 1.97-2.504 2.47-6.837 1.96-17.159 2.76-34.004 8.12-49.534 2.65-7.656 9.65-23.33 14.33-11.408 1.97 4.98 2.67 7.418 7.02 5.885 3.53-1.238 7.42-5.799 6.71-12.465-.66-6.285-5.72-10.57-8.79-13.322-4.09-3.666-6.96-3.247-11.41-4.113-12.24-2.39-3.66-31.586-1.9-42.546 1.11-6.884 2.41-15.788-.5-22.006-4.43-9.465-14.08-6.351-20.16-5.008-8.4 1.856-17.59 2.847-25.45-3.381-8.33-6.589-11.88-21.444-19.68-28.671-2.88-2.667-7.94-5.276-10.9-1.572Zm36.53 120.648c5.78-.124 2.98 13.331 1.39 17.854-3.33 9.551-10.48 13.236-16.76 9.722-4.97-2.79-10.33-15.083-2.56-17.121 3.73-.981 7.42-.581 10.95-3.476 2.02-1.647 4.62-6.932 6.98-6.979Zm-14.51-71.57c3.59 3.562-2.54 26.301-3.57 30.9-1.68 7.513-3.18 12.36 1.09 18.149 2.98 4.028 8.85 7.504 6.05 15.531-2.6 7.428-11.49 4.314-15.11.676-5.26-5.285-3.71-15.397-2.55-23.701.76-5.446 7.69-47.897 14.09-41.555ZM967.464 205.434c11.078 7.723 22.414 14.703 34.136 19.359 10.25 4.066 20.33 8.456 30.89 7.504 9.78-.886 10.94 14.778 5.36 25.634-3.03 5.894-6.55 5.742-10.97 5.97-5.17.267-9.87 2.609-14.86 4.704-7.6 3.2-15.295 5.913-22.656 10.418-3.8 2.332-7.547 5.065-10.938 8.741-2.131 2.314-6.888 6.485-4.372 9.713 3.636 4.666 14.423-1.724 18.754-2.152 10.072-.981 20.122-2.457 30.132-4.514 4.91-1.009 10.18-2.009 14.82-4.923 3.05-1.895 6.41-6.618 9.85-5.418 7.26 2.533 3.67 20.292.37 26.072-4.9 8.589-12.33 12.379-18.66 17.254-4.41 3.409-8.81 7.018-13.1 10.837-2.03 1.799-11.48 8.551-11.18 13.683.32 5.39 7.77 2.666 9.62 2.181 12.31-3.276 23.42-11.037 34.8-18.988 4.98-3.485 10.02-6.827 14.9-10.684 3.41-2.694 6.75-6.808 10.52-8.027 8.86-2.895 8.48 13.274 11.97 22.006 10.38 25.958 30.43 37.032 46.04 52.03 5.9 5.675 11.54 12.207 16.95 19.044 3.87 4.876 5.42 11.598 9.74 5.161 3.6-5.361 5.33-13.236 7.64-20.054 2.69-7.951 6.28-14.959 9.03-22.844 4.07-11.636 5.29-22.739-3.65-27.024-9.38-4.494-16.8-11.198-24.78-20.768-19.57-23.472-35.81-53.458-55.32-77.111-18.08-21.92-37.25-42.489-59.92-48.373-21.48-5.59-45.043-4.209-65.116 10.569Zm586.326 168.592c-.46 6.466-1.44 20.254-6.94 20.768-6.69.629-2.2-32.499 1.59-36.232 6.06-5.97 5.73 9.989 5.35 15.464Zm-62.18-2.637c-8.35 1.133-10.72 16.035-2.39 21.32l2.39-21.32Zm30.93-13.084c-1.08 6.77-.69 17.626-4.02 22.815-4.69 7.323-6.74-3.418-6.7-9.541.03-6.056 1.87-21.206 6.84-22.006 4.24-.686.71 7.342 3.88 8.732Zm90.01-150.547c-3.05 10.351.23 20.577 2.05 30.757-3.74 1.961-8.78.476-11.07 6.932-1.44 4.066-1.18 10.198-.76 14.607.36 3.609 2.17 8.484.66 11.836-1.98 4.39-6.89 2.362-9.07 7.247-3.32 7.427-1.46 24.396 3.2 29.995 6.54 7.856 2.64-11.427 2.23-14.94-1-8.79 4.59-7.599 8.4-11.151 2.05-1.905 2.41-2.276 2.88-6.342.43-3.742.21-6.723-.34-10.76-1.86-13.703 1.39-11.465 8.06-14.483 5.75-2.6 5.29-10.104 3.83-17.998-1.15-6.179-4.57-16.321-.87-21.596 1.47-2.085 3.7-.762 4.03-5.133.21-2.942-2.22-7.779-3.49-9.474-4.38-5.847-7.95 4.447-9.74 10.503Z" clip-rule="evenodd"/>
</svg>