<svg xmlns="http://www.w3.org/2000/svg" width="1665" height="1118" fill="none">
  <mask id="a" width="707" height="714" x="0" y="0" maskUnits="userSpaceOnUse" style="mask-type:luminance">
    <path fill="#fff" d="M706.829 237.154 244.129 0 0 476.308l462.7 237.154 244.129-476.308Z"/>
  </mask>
  <g mask="url(#a)">
    <path fill="#ECF2FA" d="m257.96 409.153 78.046 40.002a18.202 18.202 0 0 1-10.606 9.015 18.2 18.2 0 0 1-13.874-1.126l-45.677-23.411a18.187 18.187 0 0 1-7.889-24.48Z"/>
    <path fill="#8BBACC" d="M335.64 450.684a18.183 18.183 0 0 1-15.335 8.897 17.554 17.554 0 0 1-3.558-.463l.13-.119a7.485 7.485 0 0 0 2.274-6.409 7.506 7.506 0 0 0-1.248-3.266 7.509 7.509 0 0 0-2.594-2.344l-58.037-31.872a17.878 17.878 0 0 1 1.161-4.043c.4.283.821.537 1.256.76l20.58 10.548-.737 1.439 4.315 2.212.738-1.439 11.018 5.647c-.245.192-.502.377-.747.568l16.35 8.365.37-.722 22.845 11.708c.394.205.801.383 1.219.533Z"/>
    <path fill="#274B5B" d="m268.721 417.398-1.439-.737-6.635 12.946 1.438.737 6.636-12.946Z"/>
    <path fill="#274B5B" d="m269.798 417.95-1.438-.737-5.714 11.147 1.439.737 5.713-11.147ZM278.79 422.559l-1.438-.737-5.713 11.147 1.438.737 5.713-11.147ZM296.775 431.777l-1.439-.738-5.713 11.147 1.438.737 5.714-11.146ZM305.767 436.385l-1.439-.737-5.713 11.147 1.438.737 5.714-11.147ZM314.759 440.995l-1.439-.738-5.713 11.147 1.439.737 5.713-11.146Z" opacity=".2"/>
    <path fill="#fff" d="m311.882 439.52-1.439-.737-5.713 11.147 1.439.737 5.713-11.147ZM303.251 435.096l-1.439-.737-5.713 11.147 1.439.737 5.713-11.147ZM294.259 430.487l-1.439-.737-5.713 11.147 1.439.737 5.713-11.147ZM285.267 425.878l-1.439-.737-5.713 11.147 1.438.737 5.714-11.147ZM276.274 421.27l-1.438-.738-5.713 11.147 1.438.737 5.713-11.146ZM267.282 416.661l-1.438-.738-5.713 11.147 1.438.737 5.713-11.146Z" opacity=".3"/>
    <path fill="#274B5B" d="m287.782 427.168-1.438-.737-5.713 11.146 1.438.738 5.713-11.147Z" opacity=".2"/>
    <path fill="#274B5B" d="m277.652 421.976-1.439-.738-6.635 12.947 1.438.737 6.636-12.946ZM286.589 426.556l-1.439-.737-6.635 12.946 1.438.737 6.636-12.946ZM295.52 431.134l-1.439-.738-6.635 12.947 1.438.737 6.636-12.946ZM313.382 440.289l-1.439-.738-6.636 12.947 1.439.737 6.636-12.946ZM322.313 444.866l-1.439-.737-6.636 12.946 1.439.737 6.636-12.946ZM304.445 435.708l-1.439-.738-6.636 12.947 1.439.737 6.636-12.946Z"/>
    <path fill="url(#b)" d="m598.721 432.576-88.079-45.144a197.32 197.32 0 0 0 2.166-5.251l34.53 17.698a7.069 7.069 0 0 0 9.518-3.068 7.073 7.073 0 0 0-3.068-9.518l-36.391-18.651c2.655-9.569 3.981-19.123 3.146-28.2-1.638-17.782-11.507-31.266-23.879-39.369-12.372-8.104-27.187-11.5-41.902-14.52-19.596-3.992-41.977-10.014-46.78-32.479-2.832-13.309 2.004-30.254 11.611-42.257a109.742 109.742 0 0 1 7.666-8.353l45.389 23.264a7.072 7.072 0 1 0 6.451-12.585l-42.072-21.564a39.82 39.82 0 0 0 3.471-5.625 36.323 36.323 0 0 0 .569-30.758c-3.941-8.582-10.731-14.381-17.662-19.587-15.456-11.678-32.508-21.554-52.019-24.235-6.995-24.91-26.111-41.92-49.438-43.79a41.887 41.887 0 0 0-19.452 2.8l37.523 19.232a6.879 6.879 0 1 1-6.274 12.243l-44.074-22.59c-7.534 7.733-13.006 18.47-18.058 28.672-.583 1.139-1.136 2.293-1.701 3.441l17.764 9.105a7.07 7.07 0 0 1-6.451 12.585l-17.537-8.988-3.404 6.881 41.178 21.106a7.067 7.067 0 0 1 3.067 9.517 7.067 7.067 0 0 1-9.518 3.068l-41.012-21.021c-.737 1.439-1.45 2.92-2.173 4.39-5.092 10.298-10.366 20.858-17.929 29.07-23.31 25.285-56.016 17.511-83.677 32.783l66.11 33.884a7.07 7.07 0 1 1-6.451 12.585l-72.518-37.169a77.202 77.202 0 0 0-3.958 3.877l46.736 23.954a7.073 7.073 0 0 1 3.067 9.518 7.069 7.069 0 0 1-9.518 3.067l-49.38-25.309a95.24 95.24 0 0 0-15.838 42.602c-3.584 33.293 14.016 60.121 37.551 71.628 23.536 11.507 52.19 10.402 80.219 7.246 21.186-2.397 43.74-5.639 60.482 5.037 17.076 10.885 24.622 33.999 35.534 52.701 17.772 30.457 46.357 50.557 79.539 55.94 14.672 2.379 30.708 1.826 46.176-5.643 15.027-7.285 28.142-20.358 39.202-35.767l24.099 12.352a6.876 6.876 0 0 0 9.259-2.984 6.88 6.88 0 0 0-2.984-9.259l-22.655-11.611c3.34-5.4 6.453-10.961 9.339-16.562l.37-.722 87.663 44.931a7.073 7.073 0 0 0 9.518-3.068 7.068 7.068 0 0 0-3.068-9.518l.007-.012Z" opacity=".4"/>
    <path fill="#26C8BC" d="M252.231 386.685s-48.137 21.533-78.423 70.805a2.53 2.53 0 0 1-4.662-1.717c5.639-35.81 29.675-135.38 124.079-155.252"/>
    <path fill="#F6DF9E" d="M171.811 460.316a2.504 2.504 0 0 0 .27 1.63 2.53 2.53 0 0 1-2.786-2.92c5.64-35.81 29.675-135.381 124.079-155.252l-.983 2.07c-91.502 21.567-115.009 119.113-120.58 154.472Z"/>
    <path fill="#1B5A6E" d="M171.311 445.096c7.12-14.314 18.389-27.359 29.988-38.271 5.95-5.577 11.959-10.605 17.567-14.957a136.674 136.674 0 0 0 40.705-51.399c5.322-11.679 11.454-24.699 17.296-36.096 8.615-3.824 7.122-5.331 17.311-7.475l-40.988 86.167s-48.137 21.533-78.423 70.805a2.444 2.444 0 0 1-1.685 1.177" opacity=".8"/>
    <path fill="#274B5B" d="M195.904 396.871a1.418 1.418 0 0 1 .212-2.609 1.413 1.413 0 0 1 1.514.431 1.41 1.41 0 0 1 .181 1.564 1.414 1.414 0 0 1-1.907.614Zm.923-1.799a.61.61 0 0 0-.853.725.613.613 0 0 0 .528.417.597.597 0 0 0 .343-.075.596.596 0 0 0 .277-.711.608.608 0 0 0-.299-.35l.004-.006Z"/>
    <path fill="#274B5B" d="M195.349 397.955a2.631 2.631 0 0 1-.862-3.97 2.625 2.625 0 0 1 2.78-.896 2.626 2.626 0 0 1 .086 5.028 2.63 2.63 0 0 1-2.004-.162Zm1.659-3.239a1.012 1.012 0 1 0-.92 1.802 1.012 1.012 0 0 0 .92-1.802Z" opacity=".2"/>
    <path fill="#274B5B" d="M224.714 353.058a1.417 1.417 0 1 1 1.295-2.52 1.417 1.417 0 0 1-1.295 2.52Zm.922-1.8a.606.606 0 1 0-.55 1.08.606.606 0 0 0 .55-1.08Z"/>
    <path fill="#274B5B" d="M224.162 354.134a2.625 2.625 0 0 1-.86-3.97 2.627 2.627 0 1 1 .86 3.97Zm1.66-3.238a1.014 1.014 0 0 0-1.116.129 1.012 1.012 0 1 0 1.554 1.232 1 1 0 0 0-.128-1.116 1.038 1.038 0 0 0-.31-.245Z" opacity=".2"/>
    <path fill="#274B5B" d="M401.312 443.572a1.414 1.414 0 0 1-.464-2.14 1.419 1.419 0 0 1 2.191-.038 1.415 1.415 0 0 1 .181 1.564 1.419 1.419 0 0 1-1.908.614Zm.923-1.799a.601.601 0 0 0-.346-.062.6.6 0 0 0-.513.435.62.62 0 0 0 .006.352.613.613 0 0 0 .528.417.597.597 0 0 0 .343-.075.605.605 0 0 0-.018-1.067Z"/>
    <path fill="#274B5B" d="M400.761 444.649a2.631 2.631 0 0 1-.861-3.971 2.627 2.627 0 1 1 .861 3.971Zm1.659-3.238a1.004 1.004 0 0 0-1.116.129 1.016 1.016 0 0 0-.307 1.08 1.006 1.006 0 0 0 1.454.573 1.01 1.01 0 0 0-.031-1.782Z" opacity=".2"/>
    <path fill="#274B5B" d="M400.235 443.02a1.414 1.414 0 0 1-.766-1.375 1.414 1.414 0 0 1 1.8-1.248c.27.076.511.231.692.445a1.41 1.41 0 0 1 .181 1.564 1.417 1.417 0 0 1-1.907.614Zm.922-1.799a.599.599 0 0 0-.668.077.608.608 0 0 0 .017.936.606.606 0 0 0 .914-.199.605.605 0 0 0-.263-.814Z"/>
    <path fill="#274B5B" d="M399.683 444.097a2.637 2.637 0 0 1-1.097-1.06 2.63 2.63 0 0 1 3.015-3.806 2.622 2.622 0 0 1 1.891 2.225 2.63 2.63 0 0 1-3.809 2.641Zm1.66-3.238a1.012 1.012 0 0 0-1.433.622c-.055.192-.052.397.01.587a1.006 1.006 0 0 0 1.454.574 1.018 1.018 0 0 0 .516-.802 1.022 1.022 0 0 0-.237-.737 1.022 1.022 0 0 0-.31-.244Z" opacity=".2"/>
    <path fill="#274B5B" d="m250.899 320.156-1.438-.738-60.464 117.969 1.438.738 60.464-117.969Z"/>
    <path fill="#274B5B" d="m253.812 318.016-1.438-.737-61.939 120.846 1.438.737 61.939-120.846Z" opacity=".2"/>
    <path fill="#fff" d="m249.461 319.418-1.439-.737-60.464 117.969 1.439.737 60.464-117.969Z" opacity=".3"/>
    <path fill="#274B5B" d="m267.097 308.926-1.438-.738-54.566 106.461 1.438.738 54.566-106.461Z"/>
    <path fill="#274B5B" d="m268.536 309.663-1.439-.737-54.566 106.461 1.439.737 54.566-106.461Z" opacity=".2"/>
    <path fill="#fff" d="m265.659 308.188-1.439-.737-54.566 106.461 1.439.737 54.566-106.461Z" opacity=".3"/>
    <path fill="#A7594E" d="M313.71 579.428a32.763 32.763 0 0 1-14.163-44.074l14.554-28.397 7.915 4.057-14.551 28.39a23.865 23.865 0 0 0 .626 22.92 23.865 23.865 0 0 0 31.222 9.35 23.875 23.875 0 0 0 13.12-18.803 23.868 23.868 0 0 0-1.678-11.715l8.214-3.403a32.765 32.765 0 0 1-7.105 35.7 32.767 32.767 0 0 1-35.701 7.101 30.896 30.896 0 0 1-2.453-1.126Z" opacity=".2"/>
    <path fill="#F08778" d="M316.725 565.416a19.746 19.746 0 0 1-2.461-1.501l5.163-7.239a10.602 10.602 0 0 0 16.474-6.272 10.587 10.587 0 0 0-.105-5.15 10.59 10.59 0 0 0-6.859-7.268 10.592 10.592 0 0 0-5.135-.401l-1.472-8.77a19.493 19.493 0 0 1 16.903 5.346 19.476 19.476 0 0 1 5.577 16.828 19.48 19.48 0 0 1-10.365 14.383 19.492 19.492 0 0 1-17.729.032l.009.012ZM344.727 517.208a6.466 6.466 0 1 0 5.898-11.509 6.466 6.466 0 0 0-5.898 11.509Z" opacity=".2"/>
    <path fill="#fff" d="M342.608 549.224a2.505 2.505 0 0 1-1.481.733 2.524 2.524 0 0 0 3.997.557c25.779-25.488 92.577-103.141 53.587-191.383l-1.106 2.007c35.931 86.852-29.535 162.915-54.997 188.086Z"/>
    <path fill="#26C8BC" d="M354.436 443.614s10.627 51.652-11.689 105.009a2.528 2.528 0 0 0 .913 3.085 2.53 2.53 0 0 0 3.203-.303c25.772-25.491 92.577-103.14 53.598-191.376"/>
    <path fill="#1B5A6E" d="M354.279 543.404c7.463-14.138 11.473-30.903 13.559-46.692 1.053-8.086 1.626-15.9 1.885-22.995a136.67 136.67 0 0 1 17.918-63.038c6.374-11.141 13.363-23.721 19.205-35.118-1.926-9.227.169-8.895-4.04-18.419l-46.025 83.585s10.627 51.653-11.689 105.01a2.44 2.44 0 0 0 .028 2.055" opacity=".8"/>
    <path fill="#274B5B" d="M380.597 491.966a1.414 1.414 0 0 1-.464-2.14 1.416 1.416 0 0 1 2.371 1.526 1.414 1.414 0 0 1-1.907.614Zm.922-1.799a.605.605 0 1 0 .263.815.605.605 0 0 0-.272-.797l.009-.018Z"/>
    <path fill="#274B5B" d="M380.032 493.069a2.631 2.631 0 0 1-1.42-2.551 2.623 2.623 0 0 1 1.812-2.288 2.627 2.627 0 1 1-.392 4.839Zm1.66-3.238a1.005 1.005 0 0 0-.578-.104 1.006 1.006 0 0 0-.856.727 1.012 1.012 0 1 0 1.434-.623Z" opacity=".2"/>
    <path fill="#274B5B" d="m412.569 402.562-1.438-.737-62.309 121.568 1.438.738 62.309-121.569Z"/>
    <path fill="#274B5B" d="m411.316 401.464-1.438-.737-57.33 111.854 1.438.737 57.33-111.854Z" opacity=".2"/>
    <path fill="#fff" d="m412.162 406.901-1.438-.737-60.465 117.969 1.439.737 60.464-117.969Z" opacity=".3"/>
    <path fill="#274B5B" d="m410.383 386.454-1.438-.737-54.566 106.461 1.438.737 54.566-106.461Z"/>
    <path fill="#274B5B" d="m408.945 385.717-1.439-.737-52.721 102.861 1.439.738 52.721-102.862Z" opacity=".2"/>
    <path fill="#fff" d="m411.822 387.191-1.439-.737-54.566 106.461 1.439.737 54.566-106.461Z" opacity=".3"/>
    <path fill="#274B5B" d="M343.856 552.053a5.808 5.808 0 0 1-.593-.351 5.502 5.502 0 0 1-2.021-6.763c21.723-51.884 11.62-102.719 11.518-103.227l5.937-1.224c.111.537 2.726 13.455 2.592 33.127-.118 17.647-2.585 44.147-13.514 71.364 12.779-12.866 34.45-37.654 48.694-69.487 18.048-40.341 18.878-79.66 2.501-116.76l5.546-2.452a139.096 139.096 0 0 1 11.958 64.949c-1.097 18.653-5.963 37.739-14.465 56.739-15.323 34.24-38.978 60.485-51.716 73.078a5.508 5.508 0 0 1-6.437 1.007Z"/>
    <path fill="#F08778" d="m57.264 505.659-25.532-13.086a4.449 4.449 0 0 1-1.929-5.986 4.445 4.445 0 0 1 5.986-1.929l25.532 13.086a4.447 4.447 0 0 1-4.057 7.915Z" opacity=".2"/>
    <path fill="#A7594E" d="M187.94 528.105a37.143 37.143 0 0 1 8.42-69.283l2.033 8.655a28.297 28.297 0 0 0-21.441 32.132 28.295 28.295 0 0 0 30.604 23.572 28.293 28.293 0 0 0 22.488-15.257l31.892-62.223 7.915 4.057-31.892 62.222a37.145 37.145 0 0 1-49.997 16.113l-.022.012Z" opacity=".2"/>
    <path fill="#F08778" d="M240.744 574.287a20.813 20.813 0 0 1-9.004-27.989l31.436-61.335 7.915 4.056-31.437 61.335a11.923 11.923 0 0 0 15.909 16.11 11.925 11.925 0 0 0 5.718-15.235l8.214-3.404a20.814 20.814 0 0 1-27.195 27.197 27.759 27.759 0 0 1-1.556-.735ZM285.849 458.417l-7.915-4.057-9.77 19.062 7.915 4.056 9.77-19.061ZM198.129 513.263a19.82 19.82 0 0 1-2.461-1.501l5.163-7.239a10.6 10.6 0 1 0 4.375-19.091l-1.472-8.77a19.479 19.479 0 0 1 16.903 5.345 19.483 19.483 0 0 1 2.125 25.267 19.48 19.48 0 0 1-15.774 8.093c-3.081.006-6.12-.72-8.868-2.116l.009.012Z" opacity=".2"/>
    <path fill="#F08778" d="M270.246 536.709a14.138 14.138 0 0 1-7.645-13.729 14.142 14.142 0 1 1 26.681 7.594 14.16 14.16 0 0 1-19.036 6.135Zm8.847-17.262a5.252 5.252 0 0 0-5.8.673 5.252 5.252 0 0 0-1.598 5.616 5.259 5.259 0 0 0 4.577 3.626 5.252 5.252 0 0 0 5.424-6.849 5.26 5.26 0 0 0-2.603-3.066ZM224.405 472.795a14.138 14.138 0 0 1-4.601-21.366 14.144 14.144 0 0 1 21.853-.365 14.142 14.142 0 0 1 1.812 15.602 14.162 14.162 0 0 1-19.064 6.129Zm8.848-17.262a5.247 5.247 0 0 0-5.801.673 5.25 5.25 0 0 0-1.598 5.616 5.252 5.252 0 0 0 4.577 3.626 5.257 5.257 0 0 0 5.428-6.852 5.264 5.264 0 0 0-2.603-3.07l-.003.007ZM395.268 560.369a14.143 14.143 0 0 1 2.113-26.045 14.138 14.138 0 0 1 15.113 4.301 14.14 14.14 0 0 1 1.81 15.61 14.164 14.164 0 0 1-19.036 6.134Zm8.848-17.262a5.261 5.261 0 0 0-5.801.673 5.26 5.26 0 0 0 .14 8.124 5.26 5.26 0 0 0 5.821.472 5.26 5.26 0 0 0-.157-9.275l-.003.006ZM140.421 450.636a3.233 3.233 0 1 0 2.95-5.755 3.233 3.233 0 0 0-2.95 5.755ZM275.573 582.128a3.232 3.232 0 1 0 2.95-5.752 3.232 3.232 0 0 0-2.95 5.752Z" opacity=".2"/>
    <path fill="#A7594E" d="m366.795 642.509-7.915-4.056a23.875 23.875 0 0 0-10.345-32.1l-5.393-2.764 4.057-7.915 5.392 2.764a32.774 32.774 0 0 1 14.204 44.071Z" opacity=".2"/>
    <path fill="#F08778" d="m77.921 496.376-7.914-4.057a64.43 64.43 0 0 1 86.624-27.917l11.422 5.854-4.056 7.915-11.417-5.851a55.528 55.528 0 0 0-74.659 24.056ZM423.869 671.764l-7.885-4.041a68.786 68.786 0 0 0-29.796-92.504l-13.944-7.147 4.047-7.896 13.944 7.147a77.68 77.68 0 0 1 38.408 45.268 77.682 77.682 0 0 1-4.774 59.173Z" opacity=".2"/>
    <path fill="#A7594E" d="m117.55 514.759-7.915-4.057a32.774 32.774 0 0 1 44.062-14.2l5.393 2.764-4.057 7.915-5.393-2.764a23.875 23.875 0 0 0-32.09 10.342Z" opacity=".2"/>
    <path fill="#F08778" d="M371.609 666.774 70.572 512.48a4.449 4.449 0 0 1-1.93-5.986 4.445 4.445 0 0 1 5.987-1.929L375.665 658.86a4.447 4.447 0 1 1-4.057 7.914ZM17.703 485.381a4.16 4.16 0 0 1-.73-.475 4.67 4.67 0 0 1-.628-.6 4.917 4.917 0 0 1-.5-.713 4.388 4.388 0 0 1-.397-3.388 4.3 4.3 0 0 1 .793-1.548c.18-.227.381-.437.6-.628.222-.187.46-.354.713-.501a4.45 4.45 0 0 1 1.657-.533c.29-.029.58-.032.87-.01.29.026.575.08.854.159a4.358 4.358 0 0 1 1.549.794c.227.18.438.381.628.6.187.222.354.461.5.713.285.512.467 1.075.534 1.656.029.29.032.582.01.871-.027.29-.078.576-.153.857a4.497 4.497 0 0 1-.794 1.549 5.144 5.144 0 0 1-.606.625 5 5 0 0 1-.713.5 4.415 4.415 0 0 1-.81.358 4.738 4.738 0 0 1-.865.182c-.29.028-.581.032-.871.01a4.762 4.762 0 0 1-.854-.159 4.206 4.206 0 0 1-.787-.319ZM411.887 687.419l-25.532-13.086a4.447 4.447 0 0 1 4.057-7.915l25.532 13.086a4.447 4.447 0 0 1-4.057 7.915ZM425.917 694.609a4.174 4.174 0 0 1-.73-.475 4.628 4.628 0 0 1-.628-.6 4.953 4.953 0 0 1-.5-.712 4.608 4.608 0 0 1-.358-.81 4.347 4.347 0 0 1-.182-.866 4.968 4.968 0 0 1-.01-.871 5.2 5.2 0 0 1 .153-.857 4.492 4.492 0 0 1 .794-1.548c.184-.225.387-.434.606-.625.223-.187.461-.355.713-.5a4.431 4.431 0 0 1 1.657-.534c.289-.029.581-.033.871-.01.288.026.574.079.853.159a4.33 4.33 0 0 1 1.549.794c.228.18.437.381.628.6.187.222.355.461.5.712.286.512.467 1.075.534 1.658.029.289.032.58.01.87a4.76 4.76 0 0 1-.159.854 4.305 4.305 0 0 1-.794 1.549 4.68 4.68 0 0 1-.6.627 4.426 4.426 0 0 1-1.522.859 4.682 4.682 0 0 1-.866.182c-.29.029-.581.032-.871.01a4.676 4.676 0 0 1-.854-.16 4.136 4.136 0 0 1-.794-.306Z" opacity=".2"/>
    <path fill="#274B5B" d="M168.361 461.648a5.505 5.505 0 0 1-2.929-5.807c2.779-17.698 10.27-52.219 29.123-84.658 10.46-17.996 23.138-33.079 37.616-44.874a139.104 139.104 0 0 1 59.709-28.216l1.248 5.934c-39.709 8.362-71.114 31.979-93.334 70.205-17.525 30.151-24.946 62.242-27.979 80.104 15.712-24.758 35.787-42.24 50.045-52.64 15.897-11.593 27.906-17.017 28.406-17.239l2.474 5.534c-.183.084-12.083 5.478-27.454 16.707-14.174 10.358-34.287 27.944-49.623 52.918a5.503 5.503 0 0 1-6.671 2.309 6.002 6.002 0 0 1-.631-.277Z"/>
    <path fill="#26C8BC" d="M462.903 119.475a8.986 8.986 0 0 0-4.609-5.772 8.986 8.986 0 0 0-7.377-.371c-27.286 10.694-108.156 48.617-153.187 136.476-44.077 85.998-45.22 134.176-43.987 149.687.265 3.313 2.819 6.67 6.51 8.562l74.722 38.298c3.71 1.901 7.914 2.023 10.752.286 13.312-8.056 51.775-37.106 95.853-123.104 45.031-87.858 28.579-175.663 21.323-204.062Z"/>
    <path fill="#274B5B" d="m420.121 189.356-1.438-.737-121.666 237.377 1.438.737 121.666-237.377Z"/>
    <path fill="#274B5B" d="m418.683 188.619-1.439-.737-121.666 237.376 1.439.738 121.666-237.377Z" opacity=".2"/>
    <path fill="#fff" d="m421.56 190.094-1.439-.738-121.666 237.377 1.439.737L421.56 190.094Z" opacity=".3"/>
    <path fill="#ECF2FA" d="m468.344 211.344-96.716-49.571a356.108 356.108 0 0 1 41.783-30.503 349.23 349.23 0 0 1 3.779-2.322c24.361-13.569 40.681-19.396 40.681-19.396s6.681 23.158 9.519 60.283l.038.545a430.395 430.395 0 0 1 .916 40.964Z"/>
    <path fill="#8BBACC" d="m468.155 209.934-4.9-3.47c-2.187-17.252-12.985-55.706-44.443-76.367 1.202-.837 4.855-1.932 6.028-2.714 8.81-5.41 15.869-8.462 22.005-11.67a11.68 11.68 0 0 1 5.307-1.346 11.684 11.684 0 0 1 9.538 4.732 11.698 11.698 0 0 1 2.138 5.04 317.265 317.265 0 0 1 4.321 41.998c.005.172.728.721.736.902.353 12.054 6.885 22.729-.73 42.895Z"/>
    <path fill="#fff" d="M390.892 160.035a2.012 2.012 0 0 1-.767-.692 2.013 2.013 0 0 1-.125-1.992c.153-.315.385-.584.674-.782 3.401-2.323 6.983-4.575 10.502-6.721 3.405-2.12 6.887-4.269 10.158-6.488a2.02 2.02 0 0 1 3.067 2.05 2.02 2.02 0 0 1-.79 1.289c-3.339 2.277-6.88 4.465-10.325 6.572-3.445 2.107-7.021 4.347-10.35 6.621a2.018 2.018 0 0 1-2.044.143Z"/>
    <g fill="#426270" opacity=".4">
      <path d="M405.352 261.228c4.234-2.56 7.503-4.896 7.697-4.658.195.239-2.865 2.937-7.164 5.534-4.299 2.596-8.104 4.063-8.215 3.812-.112-.25 3.46-2.106 7.682-4.688ZM407.772 266.738c2.794-1.759 4.936-3.38 4.784-3.621-.152-.242-2.54.989-5.333 2.748-2.794 1.759-4.936 3.38-4.784 3.621.151.241 2.54-.989 5.333-2.748Z" opacity=".4"/>
      <path d="M404.986 264.187c2.679 3.097 5.018 5.486 4.81 5.696-.208.211-2.901-1.881-5.601-5.027s-4.412-6.126-4.189-6.259c.223-.133 2.289 2.502 4.98 5.59ZM408.653 264.905c2.323 3.007 4.448 5.24 4.246 5.453-.202.214-2.674-1.749-5.058-4.818-2.385-3.07-3.672-5.971-3.437-6.083.235-.111 1.913 2.465 4.249 5.448Z" opacity=".4"/>
    </g>
    <path fill="#F6DF9E" d="m273.514 417.125-13.118-6.724c-3.709-1.901-6.26-5.249-6.507-8.568-1.211-15.538-.021-63.808 44.163-150.014C341.32 167.4 417.474 128.907 447.829 116.431c-27.321 11.427-91.455 45.878-134.516 129.892l37.095-19.216c-1.049.946-109.596 105.37-76.894 190.018Z"/>
    <path fill="#fff" d="m265.543 410.992-3.6-1.845c-3.709-1.902-6.26-5.249-6.507-8.568-1.21-15.538-.021-63.809 44.163-150.015 43.269-84.418 119.422-122.911 149.734-135.394-15.517 6.493-43.014 20.465-71.713 46.721-26.624 21.437-54.138 50.914-74.415 90.475-44.187 86.212-45.377 134.483-44.163 150.015.247 3.365 2.797 6.712 6.501 8.611Z"/>
    <path fill="#1B5A6E" d="m318.601 437.962 13.118 6.724c3.709 1.901 7.913 2.023 10.749.291 13.302-8.053 51.738-37.094 95.797-123.055 43.136-84.161 29.834-168.295 22.206-200.161 6.708 28.79 20.234 102.836-22.711 186.624l-3.202-39.763c-.18 1.392-28.216 146.618-115.957 169.34Z" opacity=".8"/>
    <path fill="#fff" d="M360.352 191.888a80.73 80.73 0 0 1 5.849-5.968 59.725 59.725 0 0 1 5.306-4.322c3.155-2.248 5.42-3.29 5.867-2.759.447.53-.933 2.544-3.395 5.432a234.731 234.731 0 0 1-4.372 4.987l-5.379 6.015-5.343 6.097a269.56 269.56 0 0 1-4.394 4.967c-2.559 2.808-4.357 4.445-4.962 4.057-.605-.387.129-2.739 1.987-6.169a59.658 59.658 0 0 1 3.63-5.784 80.865 80.865 0 0 1 5.206-6.553ZM344.442 219.028c2.031-2.66 2.76-5.517 1.628-6.381-1.132-.865-3.697.59-5.728 3.25-2.031 2.66-2.761 5.517-1.628 6.382 1.132.864 3.696-.591 5.728-3.251Z" opacity=".9"/>
    <g fill="#426270" opacity=".2">
      <path d="M437.272 127.377c4.089-.633 7.825-1.091 10.519-1.34 2.694-.25 4.387-.326 4.401-.172.014.154-1.632.455-4.316.88l-10.438 1.606-10.461 1.695c-2.681.404-4.35.615-4.383.483-.032-.133 1.591-.6 4.242-1.189a176.593 176.593 0 0 1 10.436-1.963Z" opacity=".2"/>
      <path d="M436.579 131.444c7.845.845 14.21 1.44 14.192 1.733-.011.141-1.632.168-4.203.071-2.571-.096-6.177-.36-10.098-.777-3.921-.418-7.487-.939-10.033-1.402-2.546-.462-4.117-.834-4.094-.97.034-.292 6.397.504 14.236 1.345Z" opacity=".2"/>
    </g>
    <path fill="#274B5B" d="M392.001 226.938a1.414 1.414 0 0 1-.766-1.376 1.418 1.418 0 0 1 2.82-.048 1.416 1.416 0 0 1-2.054 1.424Zm.923-1.8a.61.61 0 0 0-.668.078.602.602 0 0 0-.184.647.602.602 0 0 0 .87.343.596.596 0 0 0 .244-.253.6.6 0 0 0 .038-.462.61.61 0 0 0-.3-.353Z"/>
    <path fill="#274B5B" d="M391.448 228.017a2.631 2.631 0 0 1-1.42-2.551 2.623 2.623 0 0 1 1.813-2.288 2.624 2.624 0 0 1 3.416 2.198 2.628 2.628 0 0 1-3.809 2.641Zm1.66-3.238a1.006 1.006 0 0 0-1.116.129 1.012 1.012 0 1 0 1.555 1.232 1.005 1.005 0 0 0 .071-.778 1.001 1.001 0 0 0-.504-.595l-.006.012Z" opacity=".2"/>
    <path fill="#274B5B" d="M404.629 202.3a1.42 1.42 0 0 1-.766-1.376 1.418 1.418 0 1 1 2.674.761 1.417 1.417 0 0 1-1.908.615Zm.923-1.8a.61.61 0 0 0-.668.078.602.602 0 0 0-.184.647.602.602 0 0 0 .87.343.596.596 0 0 0 .278-.712.603.603 0 0 0-.299-.349l.003-.007Z"/>
    <path fill="#274B5B" d="M404.074 203.384a2.631 2.631 0 0 1-.861-3.971 2.634 2.634 0 0 1 2.779-.895 2.626 2.626 0 0 1 .086 5.028 2.63 2.63 0 0 1-2.004-.162Zm1.66-3.239a1.022 1.022 0 0 0-.578-.105 1.014 1.014 0 0 0-.846 1.315.998.998 0 0 0 .335.482 1.003 1.003 0 0 0 1.119.091 1.008 1.008 0 0 0-.03-1.783Z" opacity=".2"/>
    <path fill="#274B5B" d="M413.158 216.665a1.413 1.413 0 0 1 .212-2.609 1.413 1.413 0 0 1 1.515.43 1.422 1.422 0 0 1-.163 1.998 1.427 1.427 0 0 1-1.032.333 1.44 1.44 0 0 1-.532-.152Zm.923-1.8a.601.601 0 0 0-.346-.062.6.6 0 0 0-.513.435.599.599 0 0 0 .207.64.604.604 0 1 0 .652-1.013Z"/>
    <path fill="#274B5B" d="M412.603 217.748a2.623 2.623 0 0 1-1.42-2.55 2.63 2.63 0 0 1 1.812-2.289 2.636 2.636 0 0 1 2.809.8 2.627 2.627 0 0 1-3.201 4.039Zm1.66-3.238a1.017 1.017 0 0 0-1.117.13 1.012 1.012 0 1 0 1.117-.13Z" opacity=".2"/>
    <path fill="#274B5B" d="M367.258 306.22a1.42 1.42 0 0 1-.465-2.141c.174-.22.41-.383.676-.468a1.414 1.414 0 0 1 1.696 1.994 1.422 1.422 0 0 1-.826.703 1.42 1.42 0 0 1-1.081-.088Zm.922-1.8a.61.61 0 0 0-.668.077.605.605 0 1 0 .93.738.605.605 0 0 0-.265-.809l.003-.006Z"/>
    <path fill="#274B5B" d="M366.702 307.303a2.625 2.625 0 0 1-.861-3.97 2.627 2.627 0 1 1 .861 3.97Zm1.66-3.238a1.006 1.006 0 0 0-1.116.129 1.012 1.012 0 1 0 1.665.852 1 1 0 0 0-.236-.741 1.002 1.002 0 0 0-.31-.246l-.003.006Z" opacity=".2"/>
    <path fill="#274B5B" d="M358.247 324.765a1.421 1.421 0 0 1 .212-2.61 1.42 1.42 0 0 1 1.695 1.995 1.416 1.416 0 0 1-1.907.615Zm.922-1.8a.606.606 0 1 0-.55 1.08.606.606 0 0 0 .55-1.08Z"/>
    <path fill="#274B5B" d="M357.694 325.844a2.631 2.631 0 0 1-1.42-2.551 2.623 2.623 0 0 1 1.813-2.288 2.624 2.624 0 0 1 3.415 2.198 2.626 2.626 0 0 1-3.808 2.641Zm1.66-3.238a1.006 1.006 0 0 0-1.117.129 1.02 1.02 0 0 0-.307 1.081 1.013 1.013 0 0 0 1.862.151 1.01 1.01 0 0 0-.448-1.343l.01-.018Z" opacity=".2"/>
    <path fill="#274B5B" d="M356.149 294.173a1.414 1.414 0 0 1-.464-2.14 1.414 1.414 0 0 1 2.19-.038 1.41 1.41 0 0 1 .181 1.563 1.415 1.415 0 0 1-1.907.615Zm.922-1.8a.606.606 0 0 0-.858.374.6.6 0 0 0 .207.64.606.606 0 1 0 .651-1.014Z"/>
    <path fill="#274B5B" d="M355.597 295.25a2.631 2.631 0 0 1-1.42-2.551 2.624 2.624 0 0 1 1.813-2.288 2.624 2.624 0 0 1 3.416 2.197 2.63 2.63 0 0 1-3.809 2.642Zm1.66-3.238a1.004 1.004 0 0 0-1.116.129 1.004 1.004 0 0 0-.307 1.08 1.006 1.006 0 0 0 1.454.573 1.01 1.01 0 0 0-.031-1.782Z" opacity=".2"/>
    <path fill="#274B5B" d="M346.75 312.511a1.417 1.417 0 1 1 1.292-2.525 1.417 1.417 0 0 1-1.292 2.525Zm.923-1.8a.601.601 0 0 0-.346-.062.6.6 0 0 0-.513.435.612.612 0 0 0 .207.641.604.604 0 0 0 .914-.199.604.604 0 0 0-.265-.809l.003-.006Z"/>
    <path fill="#274B5B" d="M346.207 313.57a2.627 2.627 0 0 1 1.918-4.865 2.626 2.626 0 1 1-1.918 4.865Zm1.66-3.238a1.012 1.012 0 1 0-.543 1.908 1.014 1.014 0 0 0 .982-.547 1.014 1.014 0 0 0-.452-1.336l.013-.025Z" opacity=".2"/>
    <path fill="#274B5B" d="M379.373 251.576a1.418 1.418 0 0 1 .212-2.609 1.421 1.421 0 0 1 1.515.43 1.419 1.419 0 0 1-1.727 2.179Zm.922-1.799a.608.608 0 0 0-.858.372.612.612 0 0 0 .207.641.606.606 0 1 0 .651-1.013Z"/>
    <path fill="#274B5B" d="M378.82 252.655a2.631 2.631 0 0 1-1.42-2.551 2.623 2.623 0 0 1 1.813-2.288 2.624 2.624 0 0 1 3.416 2.198 2.628 2.628 0 0 1-3.809 2.641Zm1.66-3.238a1.006 1.006 0 0 0-1.116.129 1.009 1.009 0 0 0 .027 1.563 1.012 1.012 0 0 0 1.59-1.103 1.007 1.007 0 0 0-.501-.589Z" opacity=".2"/>
    <path fill="#274B5B" d="M446.671 191.152a1.417 1.417 0 1 1 1.29-2.522 1.417 1.417 0 0 1-1.29 2.522Zm.922-1.799a.609.609 0 0 0-.668.077.612.612 0 0 0-.184.647.606.606 0 0 0 1.152-.371.603.603 0 0 0-.3-.353Z"/>
    <path fill="#274B5B" d="M446.118 192.231a2.625 2.625 0 0 1-.861-3.97 2.627 2.627 0 1 1 .861 3.97Zm1.66-3.238a1.006 1.006 0 0 0-1.116.129 1.014 1.014 0 0 0 .026 1.563 1.008 1.008 0 0 0 1.12.091 1.006 1.006 0 0 0 .47-1.193 1.005 1.005 0 0 0-.5-.59Z" opacity=".2"/>
    <path fill="#274B5B" d="M401.355 167.926a1.42 1.42 0 0 1 1.034-2.624 1.414 1.414 0 0 1 1.02 1.2 1.416 1.416 0 0 1-2.054 1.424Zm.922-1.799a.608.608 0 0 0-.858.373.608.608 0 0 0 .534.769.613.613 0 0 0 .587-.328.603.603 0 0 0-.263-.814Z"/>
    <path fill="#274B5B" d="M400.802 169.005a2.631 2.631 0 0 1-1.42-2.551 2.623 2.623 0 0 1 1.813-2.288 2.624 2.624 0 0 1 3.416 2.198 2.626 2.626 0 0 1-1.804 2.803 2.631 2.631 0 0 1-2.005-.162Zm1.66-3.239a1.014 1.014 0 0 0-1.424 1.211 1.015 1.015 0 0 0 1.454.573 1.01 1.01 0 0 0-.03-1.784Z" opacity=".2"/>
    <path fill="#274B5B" d="M424.016 179.541a1.417 1.417 0 1 1 1.295-2.52 1.417 1.417 0 0 1-1.295 2.52Zm.922-1.8a.612.612 0 0 0-.668.077.612.612 0 0 0-.184.647.611.611 0 0 0 .528.418.604.604 0 0 0 .324-1.142Z"/>
    <path fill="#274B5B" d="M423.463 180.619a2.631 2.631 0 0 1-1.42-2.55 2.623 2.623 0 0 1 1.813-2.289 2.632 2.632 0 0 1 2.808.8 2.63 2.63 0 0 1 .336 2.9 2.629 2.629 0 0 1-3.537 1.139Zm1.66-3.238a1.007 1.007 0 0 0-1.434.623 1.015 1.015 0 0 0 .345 1.07 1.012 1.012 0 1 0 1.089-1.693Z" opacity=".2"/>
    <path fill="#274B5B" d="M333.84 340.413a1.413 1.413 0 0 1 .212-2.609 1.421 1.421 0 0 1 1.515.43 1.422 1.422 0 0 1 .18 1.565 1.414 1.414 0 0 1-1.907.614Zm.922-1.799a.597.597 0 0 0-.345-.063.616.616 0 0 0-.323.14.612.612 0 0 0-.183.647.598.598 0 0 0 .527.418.611.611 0 0 0 .587-.328.602.602 0 0 0-.266-.808l.003-.006Z"/>
    <path fill="#274B5B" d="M333.287 341.492a2.625 2.625 0 0 1-.861-3.97 2.627 2.627 0 1 1 .861 3.97Zm1.66-3.238a1.014 1.014 0 0 0-1.116.129 1.012 1.012 0 1 0 1.617.46 1.01 1.01 0 0 0-.501-.589Z" opacity=".2"/>
    <path fill="#274B5B" d="M320.327 366.778a1.42 1.42 0 0 1-.766-1.376 1.421 1.421 0 0 1 .978-1.234 1.416 1.416 0 0 1 1.696 1.995 1.42 1.42 0 0 1-1.908.615Zm.923-1.8a.618.618 0 0 0-.346-.063.614.614 0 0 0-.513.436.608.608 0 0 0 .877.695.601.601 0 0 0 .244-.253.606.606 0 0 0-.269-.803l.007-.012Z"/>
    <path fill="#274B5B" d="M319.768 367.869a2.625 2.625 0 0 1-1.42-2.551 2.637 2.637 0 0 1 .559-1.42 2.634 2.634 0 0 1 2.779-.895 2.633 2.633 0 0 1 1.891 2.224 2.63 2.63 0 0 1-3.809 2.642Zm1.66-3.238a1.015 1.015 0 0 0-.578-.106 1.016 1.016 0 0 0-.856.728c-.055.193-.051.397.011.587a.996.996 0 0 0 .334.482 1.003 1.003 0 0 0 1.12.091 1.007 1.007 0 0 0 .47-1.193 1.007 1.007 0 0 0-.501-.589Z" opacity=".2"/>
    <path fill="#274B5B" d="M306.802 393.166a1.42 1.42 0 0 1-.766-1.375 1.421 1.421 0 0 1 .978-1.234 1.414 1.414 0 0 1 1.842 1.185 1.415 1.415 0 0 1-.973 1.512 1.416 1.416 0 0 1-1.081-.088Zm.923-1.8a.611.611 0 0 0-.669.078.61.61 0 0 0-.184.647.611.611 0 0 0 .528.417.604.604 0 0 0 .325-1.142Z"/>
    <path fill="#274B5B" d="M306.249 394.244a2.629 2.629 0 0 1-.861-3.969 2.63 2.63 0 0 1 4.062-.07 2.626 2.626 0 0 1-3.201 4.039Zm1.66-3.238a1.014 1.014 0 0 0-1.434.623 1.015 1.015 0 0 0 .891 1.286c.199.015.399-.028.574-.125a1.012 1.012 0 0 0-.031-1.784Z" opacity=".2"/>
    <path fill="#274B5B" d="M293.286 419.538a1.42 1.42 0 0 1-.465-2.141 1.416 1.416 0 1 1 .465 2.141Zm.922-1.8a.601.601 0 0 0-.668.078.598.598 0 0 0-.184.647.61.61 0 0 0 .871.343.603.603 0 0 0-.019-1.068Z"/>
    <path fill="#274B5B" d="M292.718 420.645a2.625 2.625 0 0 1-.861-3.97 2.627 2.627 0 1 1 .861 3.97Zm1.66-3.238a1.007 1.007 0 0 0-1.116.129 1.012 1.012 0 1 0 1.554 1.232 1.019 1.019 0 0 0 .08-.783 1.008 1.008 0 0 0-.506-.603l-.012.025Z" opacity=".2"/>
    <path fill="#5C7869" d="M369.025 292.139c16.786 8.603 37.367 1.97 45.97-14.815 8.603-16.785 1.97-37.367-14.815-45.97-16.785-8.603-37.366-1.97-45.969 14.815-8.603 16.785-1.971 37.366 14.814 45.97Z" opacity=".6"/>
    <path fill="#94E0F7" d="M375.1 281.176c16.785 8.603 37.366 1.97 45.97-14.815 8.603-16.785 1.97-37.366-14.815-45.969-16.785-8.603-37.367-1.97-45.97 14.815-8.603 16.785-1.97 37.366 14.815 45.969Z"/>
    <path fill="#274B5B" d="M375.658 279.199a29.713 29.713 0 0 1-12.405-11.984 29.715 29.715 0 0 1 2.669-32.902 29.712 29.712 0 0 1 31.418-10.125 29.7 29.7 0 0 1 21.378 25.152 29.7 29.7 0 0 1-3.072 16.971 29.731 29.731 0 0 1-17.329 14.715 29.731 29.731 0 0 1-22.659-1.827Zm26.175-51.07a27.687 27.687 0 0 0-38.979 33.13 27.687 27.687 0 0 0 50.989 4.136 27.714 27.714 0 0 0-12.007-37.272l-.003.006Z" opacity=".2"/>
    <path fill="#fff" d="m414.737 228.891-47.194 49.355a33.972 33.972 0 0 1-8.719-12.515l43.037-44.985a34.257 34.257 0 0 1 12.876 8.145ZM421.688 239.11l-43.653 45.644a34.393 34.393 0 0 1-6.699-3.518l46.535-48.673a34.146 34.146 0 0 1 3.817 6.547Z"/>
    <path fill="#fff" d="M364.523 248.201a.808.808 0 0 1-.396-.976 32.733 32.733 0 0 1 13.333-17.281c3.542-2.266 6.752-3.071 9.542-2.375a.811.811 0 1 1-.388 1.571c-2.339-.58-5.127.155-8.279 2.172a31.124 31.124 0 0 0-12.669 16.424.802.802 0 0 1-1.032.507l-.111-.042Z" opacity=".8"/>
    <path fill="#274B5B" d="M409.069 265.405a1.417 1.417 0 1 1 1.295-2.52 1.417 1.417 0 0 1-1.295 2.52Zm.923-1.8a.61.61 0 0 0-.668.077.607.607 0 0 0 .015.936.605.605 0 0 0 .915-.198.607.607 0 0 0 .022-.451.608.608 0 0 0-.297-.339l.013-.025Z"/>
    <path fill="#274B5B" d="M408.504 266.507a2.631 2.631 0 0 1-1.42-2.55 2.623 2.623 0 0 1 1.813-2.289 2.632 2.632 0 0 1 2.808.799 2.623 2.623 0 0 1 .336 2.9 2.63 2.63 0 0 1-3.537 1.14Zm1.66-3.238a1.004 1.004 0 0 0-.577-.104 1.005 1.005 0 0 0-.856.727 1.007 1.007 0 0 0 .89 1.285c.199.016.399-.027.574-.124a1.018 1.018 0 0 0 .47-1.194 1.01 1.01 0 0 0-.501-.59Z" opacity=".2"/>
    <path fill="#274B5B" d="M371.699 286.923a38.39 38.39 0 0 1-20.757-37.272 38.396 38.396 0 1 1 72.439 20.616 38.436 38.436 0 0 1-51.682 16.656Zm31.154-60.784a29.91 29.91 0 0 0-33.01 3.827 29.91 29.91 0 0 0 .797 46.231 29.905 29.905 0 0 0 45.187-9.801 29.942 29.942 0 0 0-12.977-40.251l.003-.006Z"/>
    <path fill="#ECF2FA" d="m280.799 416.771 26.9-52.484a79.051 79.051 0 0 1 43.266-38.283 79.102 79.102 0 0 1-5.989 56.925l-27.054 52.784"/>
    <path fill="#fff" d="M349.906 334.327a76.989 76.989 0 0 0-39.412 36.178l-26.435 51.577-4.316-2.211 26.436-51.578a76.973 76.973 0 0 1 42.845-37.463 93.62 93.62 0 0 1 .882 3.497Z"/>
    <path fill="#8BBACC" d="m339.767 384.224-26.586 51.871-14.903-7.599c28.122-20.74 42.953-60.504 49.944-81.066a76.949 76.949 0 0 1-8.455 36.794Z"/>
    <g fill="#426270" opacity=".4">
      <path d="M314.064 316.173c4.234-2.56 7.503-4.896 7.697-4.658.195.239-2.865 2.937-7.164 5.534-4.299 2.596-8.104 4.063-8.215 3.812-.111-.25 3.463-2.112 7.682-4.688ZM316.516 320.429c2.787-1.77 4.922-3.4 4.769-3.641-.153-.24-2.535 1-5.322 2.77s-4.922 3.399-4.769 3.64c.153.24 2.535-.999 5.322-2.769Z" opacity=".4"/>
      <path d="M313.702 319.126c2.68 3.096 5.018 5.485 4.81 5.696-.208.21-2.9-1.881-5.601-5.028-2.7-3.146-4.412-6.125-4.189-6.259.223-.133 2.289 2.503 4.98 5.591ZM317.365 319.851c2.324 3.007 4.449 5.24 4.247 5.453-.202.214-2.675-1.749-5.059-4.819-2.384-3.069-3.672-5.97-3.437-6.082.235-.111 1.914 2.465 4.249 5.448Z" opacity=".4"/>
    </g>
    <path fill="#274B5B" d="M325.538 357.501a1.417 1.417 0 1 1 1.29-2.523 1.417 1.417 0 0 1-1.29 2.523Zm.922-1.799a.604.604 0 1 0 .263.814.605.605 0 0 0-.266-.808l.003-.006Z"/>
    <path fill="#274B5B" d="M324.983 358.585a2.627 2.627 0 1 1 2.396-4.679 2.627 2.627 0 0 1-2.396 4.679Zm1.659-3.238a1.01 1.01 0 1 0 .439 1.361 1.004 1.004 0 0 0-.121-1.126 1.012 1.012 0 0 0-.311-.248l-.007.013Z" opacity=".2"/>
    <path fill="#274B5B" d="M298.622 410.015a1.42 1.42 0 0 1-.765-1.376 1.412 1.412 0 0 1 .977-1.234 1.413 1.413 0 0 1 1.514.431 1.416 1.416 0 0 1-1.726 2.179Zm.923-1.8a.609.609 0 0 0-.859.373.608.608 0 0 0 .877.695.607.607 0 0 0-.018-1.068Z"/>
    <path fill="#274B5B" d="M298.071 411.091a2.631 2.631 0 0 1-1.421-2.55 2.624 2.624 0 0 1 .56-1.419 2.62 2.62 0 0 1 2.778-.896 2.622 2.622 0 0 1 1.892 2.225 2.63 2.63 0 0 1-3.809 2.64Zm1.659-3.238a1.002 1.002 0 0 0-.577-.104 1.002 1.002 0 0 0-.856.727 1.007 1.007 0 0 0 .345 1.07 1.006 1.006 0 0 0 1.12.091 1.018 1.018 0 0 0 .47-1.194 1.014 1.014 0 0 0-.502-.59Z" opacity=".2"/>
    <path fill="#274B5B" d="M312.079 383.76a1.414 1.414 0 0 1-.766-1.375 1.421 1.421 0 0 1 .977-1.234 1.416 1.416 0 1 1-.211 2.609Zm.922-1.799a.599.599 0 0 0-.668.077.603.603 0 0 0-.184.647.616.616 0 0 0 .2.289.612.612 0 0 0 .671.054.607.607 0 0 0 .281-.714.603.603 0 0 0-.3-.353Z"/>
    <path fill="#274B5B" d="M311.527 384.837a2.631 2.631 0 0 1-1.42-2.551 2.624 2.624 0 0 1 .56-1.419 2.622 2.622 0 0 1 2.778-.896 2.635 2.635 0 0 1 1.891 2.225 2.625 2.625 0 0 1-1.804 2.804 2.632 2.632 0 0 1-2.005-.163Zm1.66-3.238a1.012 1.012 0 0 0-1.433.623 1.006 1.006 0 0 0 .89 1.285 1.01 1.01 0 0 0 1.045-1.318 1.011 1.011 0 0 0-.502-.59Z" opacity=".2"/>
    <path fill="#274B5B" d="M337.046 363.4a1.416 1.416 0 0 1 .212-2.61c.267-.086.553-.091.822-.015a1.42 1.42 0 0 1 .873 2.01 1.42 1.42 0 0 1-1.907.615Zm.922-1.8a.597.597 0 0 0-.345-.063.616.616 0 0 0-.323.14.612.612 0 0 0-.184.647.606.606 0 0 0 1.115.091.605.605 0 0 0-.266-.809l.003-.006Z"/>
    <path fill="#274B5B" d="M336.491 364.483a2.627 2.627 0 1 1 2.396-4.679 2.627 2.627 0 0 1-2.396 4.679Zm1.659-3.238a1.014 1.014 0 0 0-1.116.129 1.012 1.012 0 1 0 1.555 1.232 1.005 1.005 0 0 0 .071-.777 1.02 1.02 0 0 0-.503-.596l-.007.012Z" opacity=".2"/>
    <path fill="#274B5B" d="M310.13 415.914a1.417 1.417 0 1 1 1.295-2.52 1.417 1.417 0 0 1-1.295 2.52Zm.923-1.8a.61.61 0 0 0-.668.077.608.608 0 0 0 .343 1.065.607.607 0 0 0 .325-1.142Z"/>
    <path fill="#274B5B" d="M309.579 416.989a2.622 2.622 0 0 1-.861-3.969 2.627 2.627 0 1 1 2.865 4.132 2.625 2.625 0 0 1-2.004-.163Zm1.659-3.238a1.013 1.013 0 0 0-1.423 1.211 1.012 1.012 0 1 0 1.423-1.211Z" opacity=".2"/>
    <path fill="#274B5B" d="M323.587 389.659a1.417 1.417 0 1 1 1.295-2.52 1.417 1.417 0 0 1-1.295 2.52Zm.922-1.8a.6.6 0 0 0-.858.373.603.603 0 0 0 .534.769.604.604 0 0 0 .324-1.142Z"/>
    <path fill="#274B5B" d="M323.035 390.735a2.62 2.62 0 0 1-1.097-1.06 2.624 2.624 0 0 1 1.49-3.779 2.626 2.626 0 1 1-.393 4.839Zm1.66-3.238a1.022 1.022 0 0 0-.578-.105 1.022 1.022 0 0 0-.538.234 1.004 1.004 0 0 0-.307 1.081 1.006 1.006 0 0 0 1.454.573 1.01 1.01 0 0 0 .278-1.537 1.01 1.01 0 0 0-.309-.246Z" opacity=".2"/>
    <path fill="#274B5B" d="m348.413 329.263-1.439-.737-49.957 97.469 1.439.737 49.957-97.469Z"/>
    <path fill="#274B5B" d="m345.487 332.302-1.438-.737-47.56 92.792 1.438.737 47.56-92.792Z" opacity=".2"/>
    <path fill="#fff" d="m348.364 333.776-1.438-.737-47.375 92.431 1.438.738 47.375-92.432Z" opacity=".8"/>
    <path fill="#274B5B" d="m309.243 459.733-45.677-23.411a21.241 21.241 0 0 1-9.205-28.563l1.384-2.7 83.445 42.769-1.384 2.7a21.241 21.241 0 0 1-28.563 9.205Zm-50.597-46.37a15.18 15.18 0 0 0 7.685 17.566l45.676 23.411a15.184 15.184 0 0 0 18.747-4.018l-72.108-36.959Z"/>
    <path fill="#fff" d="M447.977 227.315a10.944 10.944 0 0 1 8.067 13.201l-2.6 10.772a10.937 10.937 0 0 1-4.931 6.765 10.939 10.939 0 0 1-8.27 1.301 10.94 10.94 0 0 1-8.066-13.201l2.599-10.772a10.944 10.944 0 0 1 13.201-8.066Z" opacity=".15"/>
    <path fill="#fff" d="M441.504 218.65a10.943 10.943 0 0 1 9.946 17.6 10.94 10.94 0 0 1-7.289 4.121 10.941 10.941 0 0 1-2.657-21.721Z" opacity=".15"/>
    <g fill="#426270" opacity=".4">
      <path d="M411.685 296.72c4.234-2.56 7.503-4.897 7.697-4.658.195.239-2.865 2.937-7.164 5.534-4.299 2.596-8.104 4.063-8.215 3.812-.111-.25 3.46-2.106 7.682-4.688ZM414.134 300.979c2.786-1.77 4.922-3.399 4.769-3.64-.153-.24-2.536.999-5.322 2.769-2.787 1.77-4.922 3.4-4.769 3.641.153.24 2.535-1 5.322-2.77Z" opacity=".4"/>
      <path d="M411.302 299.67c2.679 3.097 5.018 5.486 4.809 5.696-.208.21-2.9-1.881-5.6-5.027-2.701-3.147-4.412-6.126-4.189-6.259.222-.133 2.309 2.505 4.98 5.59ZM414.987 300.398c2.323 3.007 4.448 5.24 4.246 5.453-.202.213-2.675-1.749-5.059-4.819-2.384-3.069-3.672-5.97-3.437-6.082.235-.111 1.926 2.44 4.25 5.448Z" opacity=".4"/>
    </g>
    <g fill="#426270" opacity=".4">
      <path d="M439.331 171.013c4.234-2.56 7.503-4.896 7.698-4.657.194.238-2.866 2.937-7.165 5.533-4.299 2.597-8.103 4.063-8.215 3.812-.111-.25 3.454-2.109 7.682-4.688ZM441.774 175.275c2.786-1.77 4.921-3.399 4.769-3.64-.153-.24-2.536.999-5.323 2.769-2.786 1.77-4.922 3.4-4.769 3.64.153.241 2.536-.999 5.323-2.769Z" opacity=".4"/>
      <path d="M438.96 173.97c2.679 3.096 5.018 5.485 4.81 5.695-.208.211-2.901-1.88-5.601-5.027-2.7-3.146-4.412-6.125-4.189-6.259.223-.133 2.298 2.5 4.98 5.591ZM442.634 174.691c2.323 3.007 4.447 5.24 4.245 5.453-.202.213-2.674-1.749-5.058-4.819-2.384-3.069-3.672-5.971-3.437-6.082.235-.112 1.914 2.465 4.25 5.448Z" opacity=".4"/>
    </g>
    <path fill="#8BBACC" d="m464.333 205.432-89.915-46.085-.923 1.8 89.915 46.085.923-1.8Z"/>
    <path fill="#274B5B" d="m468.946 216.113-100.45-51.485 3.988-4.766 98.614 50.544-2.152 5.707Z"/>
    <path fill="#274B5B" d="m332.876 448.687-74.747-38.311c-4.671-2.394-7.794-6.615-8.15-11.018-1.326-16.911.315-65.46 44.365-151.403 43.17-84.228 119.153-123.157 149.819-135.983a16.427 16.427 0 0 1 22.355 11.457c7.488 32.382 20.257 116.801-22.932 201.02-44.04 85.924-82.51 115.635-97.007 124.421-3.749 2.291-9.021 2.217-13.703-.183Zm122.343-330.794a10.37 10.37 0 0 0-8.718-.333c-30.049 12.571-104.504 50.706-146.765 133.159-18.89 36.857-31.93 70.713-38.763 100.633-5.63 24.662-5.522 40.361-4.95 47.525.177 2.248 2.143 4.701 4.873 6.1l74.747 38.311c2.748 1.409 5.875 1.566 7.788.398 6.156-3.732 18.943-12.83 35.704-31.779 20.3-23.017 40.171-53.372 59.061-90.228 42.258-82.448 29.767-165.147 22.414-196.887a10.327 10.327 0 0 0-1.659-3.692 10.333 10.333 0 0 0-3.732-3.207Z"/>
    <path fill="#274B5B" d="m281.649 418.203-5.393-2.764 26.436-51.578a79.684 79.684 0 0 1 44.534-38.947l3.047-1.074.882 3.104a79.737 79.737 0 0 1-5.766 58.33l-26.586 51.872-5.393-2.764 26.58-51.86a73.678 73.678 0 0 0 6.149-50.722 73.598 73.598 0 0 0-38.063 34.813l-26.427 51.59ZM401.682 442.851a1.417 1.417 0 1 1 1.295-2.52 1.417 1.417 0 0 1-1.295 2.52Zm.923-1.8a.6.6 0 0 0-.345-.062.6.6 0 0 0-.513.435.6.6 0 0 0 .206.64.605.605 0 0 0 .914-.198.6.6 0 0 0-.265-.809l.003-.006Z"/>
    <path fill="#274B5B" d="M401.127 443.934a2.631 2.631 0 0 1-1.42-2.551 2.623 2.623 0 0 1 1.813-2.289 2.632 2.632 0 0 1 2.808.799 2.63 2.63 0 0 1-3.201 4.041Zm1.66-3.238a1.004 1.004 0 0 0-1.116.129 1.011 1.011 0 1 0 1.116-.129Z" opacity=".2"/>
  </g>
  <path fill="#FF5678" fill-rule="evenodd" d="M1199.09 417.476c14.61-8.199 23.13-22.896 31.57-37.445 1.27-2.188 2.54-4.372 3.82-6.53.86-1.445 1.8-2.935 2.76-4.453v-.002c2.54-4.012 5.2-8.227 6.85-12.354.73-1.805 1.36-4.453 1.99-7.129.75-3.157 1.51-6.353 2.45-8.246 2.05-4.135 17.62-6.017 28.22-7.299 3.5-.423 6.47-.781 8.22-1.134 18.64-3.74 40.92-5.983 56.15 8.609 3.62 3.468 7.67 6.667 11.74 9.876 4.88 3.847 9.78 7.71 13.97 12.071 6.73 7.004 15.8 18.786 18.99 28.142-16.4 3.163-43.67 12.85-50.2 30.068-24.05-22.077-34.2 14.695-39.53 33.99-.33 1.177-.63 2.291-.92 3.321-13.1-5.669-12.42-22.917-11.92-35.547v-.001c.07-1.77.13-3.448.16-4.992.03-2.289.38-4.675.72-7.002 1.13-7.802 2.18-14.944-8.97-15.573-10.81-.608-21.31 3.796-31.07 7.918-12.16 5.146-24.93 12.843-34.76 21.684l-10.24-7.972Zm-23.63-34.394c0 .42-.01.838-.01 1.256-.04 3.72-.07 7.427 1.06 11.013.65 2.073.66 5.104.67 8.014.01 2.11.01 4.157.26 5.731-10.56-3.215-30.18-7.985-40.97-3.648-10.31 4.144-11.6 23.314-11.97 32.638-.09 2.356.24 5.185.58 8.122.59 4.983 1.2 10.278-.14 14.106-1.04 2.951-1.01 3.824-.94 4.036-.18-.104-.98-.135-3.95 2.004-1.32.951-2.76 1.709-4.2 2.47-1.72.906-3.45 1.818-5.01 3.071-4.13 3.336-5.54 7.025-7.24 11.453a91.769 91.769 0 0 1-1.42 3.582c-2.49 5.907-9.13 11.157-16.55 10.944.94-1.711 1.95-3.402 2.94-5.09 5.31-8.972 10.55-17.811 6.55-28.491-3.52-9.393 2.46-20.384 7.35-29.385l.29-.528c.3-.552 1.15-1.779 2.3-3.426 5.1-7.331 15.99-22.968 9.43-24.297-4.66-.945-14.73 18.53-18.45 25.731-.44.855-.79 1.539-1.03 1.992-6.39-4.32-9.26-9.646-4.35-16.153 1.74-2.302 3.67-4.449 5.59-6.602 2.26-2.522 4.52-5.051 6.51-7.843 1.75-2.461 3.48-5.063 5.24-7.698 4.25-6.357 8.62-12.911 13.64-18.184 12.45-13.098 34.19-22.015 52.12-22.095-.4 5.102.18 10.005.77 14.973.48 4.012.96 8.066.93 12.304Zm-51.41 81.326c0-.008-.01-.035-.05-.058.02.054.04.065.05.058Zm101.99 127.951c3.53-7.425 6.62-13.914 8.44-17.193 11.02-19.831 21.94-39.495 32.27-59.694-8.19 3.124-15.13 7.915-22.17 12.768-1.06.732-2.12 1.464-3.19 2.194-3.7 2.526-7.75 4.806-11.81 7.098-6.1 3.442-12.24 6.912-17.37 11.277-1.16.988-2.1 2.082-3 3.127-2.04 2.383-3.86 4.498-7.55 4.461-2.52-.024-6.1-2.63-9.29-4.962-1.86-1.357-3.59-2.621-4.92-3.227-2.6-1.191-4.75-2.751-6.87-4.293-2.4-1.739-4.76-3.456-7.72-4.601-1.83-.713-3.34-.951-4.72-1.17-2.34-.371-4.34-.689-7.05-3.157-1.75 10.333-26.04 5.466-41.8 2.308-5.23-1.049-9.53-1.908-11.74-1.961-.84-.018-1.71-.044-2.61-.071-7.87-.229-17.66-.513-24.52 2.433-5.26 2.255-11.47 7.351-16.86 11.772-2.08 1.709-4.04 3.315-5.77 4.619-8.55 6.429-14.64 14.625-20.94 23.524-8.08 11.418 3.99 10.316 12.69 9.522.6-.055 1.18-.108 1.74-.156 19.84-1.684 39.11 1.657 58.24 6.188 17.07 4.046 32.61 10.26 48.96 16.824 3.03 1.215 8.53 4.072 14.74 7.296 12.66 6.569 28.24 14.659 31.75 13.462 3.34-1.142 13.29-22.036 21.07-38.388Z" clip-rule="evenodd"/>
  <path fill="#000" fill-rule="evenodd" d="M1336.87 463.721c6.88-.352 13.74 1.185 20.62.516-5.97-5.207-11.95-10.413-17.93-15.618-2.64 4.637-2.83 9.913-2.69 15.102Zm-163.34-107.029c-17.82.079-39.56 9.03-51.94 22.102-6.56 6.928-11.98 16.232-17.53 24.015-3.72 5.223-7.35 10.264-11.87 14.853-6.58 6.689-4.7 8.218 2.72 13.254 2.35-4.4 14.8-27.928 20.02-26.87 7.93 1.61-7.38 26.462-9.06 29.557-4.95 9.161-12.95 21.956-9.36 31.617 4.75 12.753-2.13 20.021-8.1 30.888 6.27.181 6.89-2.264 9.05-7.613 2.77-6.874 5.8-12.616 11.67-17.368 4.55-3.681 11.98-5.23 14.12-9.674 2.64-5.492.98-16.337 1.19-22.448.33-9.285.35-31.232 10.58-35.358 10.72-4.322 30-.249 40.48 2.952-1.31-8.182-5.44-13.525-5.38-22.618.06-9.518 2.68-18.009 3.41-27.289Zm-136.91 151.842c9.33-2.952 18.16-6.061 27.75-8.072 10.04-2.105 10.71-4.514 16.37-13.121 4.29-6.525 9.49-11.61 8.27-19.6-.77-5.125-3.58-7.622-2.74-13.386.53-3.572 2.19-7.472 3.4-10.87 1.48-4.167 4.54-8.894-2.58-9.099-3.93-.115-4.12 1.959-6.78 5.44-4.91 6.432-10.56 12.272-15.79 18.441-9.07 10.71-18.69 22.105-28.82 32.018-11.15 10.908-20.77 24.063-27.98 38.027-1.33 2.579-9.425 17.768-5.97 20.746 3.17 2.736 20.8-3.644 24.02-4.39 13.88-3.221 29.63-4.372 42.75-10.224 6.68-2.982 21.42-6.541 26.7-11.153 4.9-4.288 4.68-14.678 1.84-20.722-7.97 4.956-65.57 23.658-60.44 5.965Zm173.42-85.241c9.3-8.402 20.3-15.142 31.78-20.136 10.27-4.467 23.03-9.446 34.46-8.671 14.24.965 8.29 12.435 8.24 22.202-.06 12.962-5.74 31.632 9.73 38.357 5.05-17.946 15.7-60.383 41.21-36.868 6.52-17.255 29.77-23.095 46.14-26.264-2.97-8.718-11.98-16.61-18.23-23.153-7.81-8.185-13.98-17.779-21.81-25.81-15.47-15.86-43.49-10.766-63.08-6.813-6.53 1.318-25.48 2.974-28.65 7.775-1.99 3.011-.88 10.367-2.35 14.048-2.03 5.072-5.49 9.774-8.27 14.458-10.15 17.094-20.47 34.299-37.83 44.088l8.66 6.787Zm56.77 92.09c-9.19 3.523-15.95 9.416-24.09 14.378-9.88 6.017-21.46 11.653-30.32 19.084-3.25 2.719-5.07 7.414-9.55 7.719-3.89.265-9.82-4.259-13.28-5.84-5.79-2.659-11.32-6.687-17.14-9.057-4.78-1.947-6.9-1.549-11.04-5.336-2.32 13.816-44.55.902-53.41.691-8.19-.195-19.44.777-27.07 4.07-7.26 3.139-12.95 10.047-19.17 14.753-8.53 6.454-16.66 12.982-22.94 21.915-8.62 12.25 4.38 8.783 13.05 8.043 19.78-1.691 39.02 3.022 58.09 7.568 17.05 4.063 33.88 8.939 50.2 15.528 9.18 3.708 18.84 7.115 27.47 11.932 4.55 2.541 11.93 8.76 17.15 6.967 4.79-1.642 9.56-15.368 12.46-20.851 5.64-10.642 11.57-21.105 17.39-31.643 11-19.905 21.89-39.645 32.2-59.921Zm-113.02 263.454c5.66-3.25 14.89-2.375 21.14-3.737 7.08-1.539 14.19-4.048 20.93-6.662 6.83-2.646 13.28-5.354 19.52-8.666 2.86-1.515 6.66-3.006 9.3-5.107 2.12-1.694 2.9-4.842 4.86-6.377 5.11-4.01 6.61-1.494 7.3-9.229.74-8.401-3.97-13.159-9.84-19.447-5.25-5.626-12.08-10.489-18.68-14.448-2.92-1.75-6.03-3.72-9.01-5.391-4.51-2.53-10.55-6.737-12.92-1.306 4.93 1.257 6.01 7.549 1.57 9.81-2.45 1.243-6.14-.581-8.9.738-4.25 2.039-8.33 7.725-11.97 10.787-11.95 10.055-23.37 13.825-39 14.633-32.66 1.684-66.87-2.042-98.9-6.882-8.25-1.248-16.48.102-24.8-.195-8.096-.289-16.538-2.06-24.497-3.428-15.331-2.633-31.49-4.801-46.583-8.675-18.252-4.687-36.567-10.749-53.705-18.599-16.437-7.533-35.017-19.978-53.48-20.937 7.879 7.714 19.685 10.687 29.162 15.768 7.745 4.15 19.859 6.815 24.753 13.655 3.185 4.452 4.783 12.629 7.19 17.849 2.66 5.777 5.116 11.646 7.58 17.509 2.475 5.9 5.053 11.802 7.062 17.879 1.245 3.769 1.781 11.584 4.72 14.162 4.688 4.113 20.379 5.939 26.698 7.307 11.797 2.556 25.252 2.216 37.284 2.393 4.973.073 9.985.751 14.735.843 6.673.129 6.037-1.027 5.942-6.819-.056-3.479.015-9.805 4.667-6.94 3.17 1.952.989 10.598.402 13.671 26.56 2.646 54.27 3.976 80.7 3.091 26-.872 51.09-4.223 76.77-7.25Zm119.94-60.966c4.69-33.652 10.4-67.865 16.79-101.082 6.46-33.565 14.23-66.826 22.96-100.265-5.77-1.382-11.54-2.759-17.31-4.138-.21 7.045-2.6 13.166-3.61 20.179-1.4 9.68-4.08 19.08-5.69 28.729-3.05 18.34-8.69 36.287-13.67 54.172-5.07 18.233-6.77 37.018-11.43 55.344-3.84 15.096-5.8 31.726-7.94 47.246-5.2 37.654-12.62 75.38-18.26 113.052-5.29 35.319-5.82 71.355-5.51 107.004.18 21.765 3.5 43.467 3.33 65.258-.04 5.39.41 10.76.69 16.14.2 3.79-1.84 14.31-.11 17.49 1.09 2.01 5.79 3.87 7.46 6.67 2.63 4.42 3.18 9.7 7.41 13.05 3.43-13.83 1.81-32.07 1.06-46.18-.72-13.593.68-27.643.96-41.444.54-27.076 1.98-53.756 3.37-80.845 1.52-29.708 5.85-60.138 10.07-89.622 3.85-26.809 6.41-54.094 9.43-80.758ZM1148.3 295.85c-1.86-.175-3.72-.347-5.58-.52.28 3.916-.55 10.258 2.21 12.301 2.1 1.548 6.33 1.039 8.87 1.533 8.31 1.625 17.94 2.985 26.19.025 3.21-1.15 1.15-2.951 5.56-2.203 5.32.904 3.38 1.745 4.91 5.062 1.18 2.56 1.79 6.917 3.14 9.991 1.79 4.112 5.43 11.473 3.88 16.223-1.52 4.617-7.16 6.012-9.56 11.24-1.79 3.888-1.36 9.538-2.29 13.819-1.24 5.711-2.8 11.399-3.49 17.215-.87 7.327-.58 15.924 8.5 17.06 8.43 1.057 14.45-1.651 20.1-7.787 10.79-11.714 23.11-28.249 29.45-42.985.74-1.721 2.57-4.594 2.31-6.437-.5-3.645-.72.045-1.88-2.487-1.1-2.42-2.83-4.616-3.85-7.302-3.66-9.649-6.25-19.764-7.72-29.979-.66-4.627-.89-9.198-.77-13.87.03-1.596.99-6.386.42-7.479-.58-1.107-3.62-1.617-4.56-2.716-1.76-2.036-4.77-7.785-6.71-9.31-2.4-1.873-7.74-.389-8.72-4.115-1.55-5.962 35.22-15.673 18.04-23.629-12.82-5.94-32.49 24.087-36.98.459-.78-4.093.71-9.648-1.09-13.399-1.99-4.146-7.39-5.695-11.16-7.713-4.81-2.572-9.68-5.215-14.35-8.032-3.21-1.931-7.84-7.058-11.25-7.527 1.34 6.959-1.24 13.857-1.28 20.802 7.4-2.002 12.49-2.045 19.79 1.516 3.48 1.694 16.59 11.31 9.95 15.935-5.38-3.179-11.14-5.937-17.13-7.806-2.37-.738-5.32-1.742-7.83-1.793-5.84-.117-5.02.493-7.21 4.896-2.12 4.241-1.66 15.301-6.3 18.009-4.8 2.8-1.1-1.119-5.19-.214-2.34.517-4.89 2.254-7.03 3.235 2.94 3.181 8.85 6.085 10.79 9.618 2.84 5.151 1.86 15.804 2.3 21.44 3.71-1.329 7.62-1.383 11.38-2.369 3.54-.93 8.44-4.949 8.81.96.41 6.584-10 8.333-14.67 8.333Zm48.3 173.367c.29-5.689.61-11.378 1.24-17.045.43-3.805 4.04-14.841 2-18.183-2.22-3.636-9.66-3.867-13.25-4.74-6.86-1.674-13.45-3.044-20.43-4.15-6.42-1.016-12.46-1.23-18.93-1.525-7.04-.318-8.79-2.186-10.35 5.575-1.22 6.104-2.86 12.461-3.09 18.71-.22 5.865 1.56 10.957-4.26 14.909 12.77 0 29.39-11.364 41.04-1.202 16.66 14.532-12.33 18.719-19.98 21.927 6.36 3.089 15.79 5.515 18.78 12.57 3.36 7.909-1.51 11.272-8.97 11.905.7 3.048 3.39 5.028 4.19 8.694 1.17 5.373-2.63 3.594 2.22 7.752 6.38 5.472 19.52 9.13 27.34 12.616 1.84.82 3.69 1.589 5.57 2.308 2.93 2.609 5.09 2.113 6.49-1.492 4.02-2.541 7.59-8.211 11.15-11.508 7.92-7.34 16.67-13.779 26.08-19.078-3.9-1.617-8.57 2.037-12.31.259-3.03-1.437-1.89-4.053-3.7-6.011.72-2.553-.04-3.487-2.3-2.801-1.14.121-2.19-.072-3.16-.574-1.89-2.347-2.75-3.116-2.87-6.741-.13-3.845 2.09-5.202 2.95-8.282 2.78-1.893 2.71-3.754-.19-5.578a13.032 13.032 0 0 1-1.95-6.355c-.56-8.483 7.19-11.902 13.09-16.389-10.57-1.163-10.17-13.564-2.85-18.984 7.58-5.621 23.63-3.32 32.8-2.052 1.91.261 7.06 2.721 8.99 1.153 1.18-.961.35-9.086.4-10.52.13-3.256.92-7.138.4-10.377-1.09-6.782 1.21-3.367-3.67-3.555-11.62-.451-26.41 9.692-36.64 14.474-11.44 5.353-18.79 6.176-18.91 19.449-.11 12.566-3.64 25.088-5.18 37.455-.67 5.4-1.15 33.46-11.03 23.106-3.84-4.017-1.38-10.193-1.1-15.147.39-6.815.16-13.738.39-20.573ZM557.403 889.892c5.658 1.004 14.87-2.243 21.041-2.584 10.79-.593 21.902-1.621 32.474-3.866 8.27-1.758 17.694-3.303 22.154-11.309 3.988-7.154 5.396-16.113 7.544-23.922 1.14-4.145 4.083-10.156 4.082-14.444-.001-5.577-.752-4.478-6.567-7.53-7.359-3.861-14.52-9.242-22.459-11.433a925 925 0 0 0-7.209-1.379c-3.111-1.805-4.866-.917-5.273 2.659-3.036 3.202-4.816 9.102-7.364 12.845-5.807 8.537-12.704 14.354-21.714 19.277-16.215 8.856-31.322 15.69-48.688 21.482-9.571 3.19-18.396 7.668-27.75 11.186-7.495 2.818-17.838 3.675-23.595 9.949-6.495 7.078 3.489 9.652 9.038 14.437 4.547 3.921 4.636 4.821 10.855 2.917 4.634-1.418 8.742-4.13 13.192-5.969 15.242-6.296 33.691-10.485 50.239-12.316Zm348.35 112.268c-5.68-1.23-11.362-2.456-17.042-3.683 5.585 10.433 17.336 25.693 8.903 37.763-3.153 4.51-8.395 5.79-13.078 8.08-5.668 2.77-10.902 6.32-16.26 9.62-22.097 13.6-44.553 27.4-67.836 39.07 7.289 2.36 18.496 3.98 26.003 1.93 8.741-2.38 16.835-7.87 25.809-10.26 16.101-4.3 33.047-7.96 49.405-10.16 13.37-1.8 46.838 2.27 45.213-17.84-1.544-19.09-12.947-37.31-16.34-56.18-8.327 1.85-16.27 1.53-24.777 1.66Zm338.597-305.559c6.48-31.779 10.35-64.098 17.98-95.648 3.82-15.74 6.5-31.696 10.22-47.439 1.73-7.325 3.04-14.722 4.73-22.033 1.71-7.402 5.38-14.232 6.22-21.884-6.18 1.532-7.61 15.703-9.49 21.034-3.44 9.781-7.19 19.179-11.61 28.544-7.03 14.884-14.49 29.244-22.42 43.675-8.36 15.221-17.19 29.857-27.63 43.757-3.43 4.568-8.09 8.147-10.3 13.156-3.48 7.882-4.94 17.274-8.26 25.475 2.34 1.188 8.38 1.483 11.25 2.05 5.34 1.053 9.08 1.989 14.2 4.526 9.03 4.471 16.62 9.77 22.65 17.812 1.52-4.128 1.91-8.655 2.46-13.025ZM992.68 939.069c-.107-30.607-.542-61.474-.04-91.852.139-8.436.826-17.537 2.049-25.907.767-5.262 5.288-16.447 2.317-18.969-2.54-2.157-15.943-.737-19.232-.814-6.379-.147-12.738-.431-19.13-.912 0 11.343 4.431 24.224 6.49 35.444 1.919 10.466 3.497 20.991 5.081 31.506 3.429 22.768 4.405 45.851 8.127 68.681 3.373 20.7 7.824 41.313 10.277 62.01 1.346 11.364 4.07 22.084 6.188 33.434 1.105 5.92 5.138 30.31 10.213 32.71 1.08-8.75-3.31-19.31-4.1-28.16-.8-9.13-1.434-18.33-2.914-27.51-1.739-10.777-2.617-21.821-3.284-32.732-.408-6.677-.531-13.333-1.109-20.005-.416-4.841-2.249-12.178-.933-16.924Zm159.5-409.265c.21-3.332-8.42-3.198-10.02-7.029-3.26-7.779 4.17-6.379 8.73-7.184-1.63-4.326-32.12-2.751-25.01-14.428 4.92-8.102 23.61 4.299 28.61-3.4 3.28-5.057-5.65-5.754-9.2-6.26-5.33-.764-17.89 1.705-17.48-5.213.52-8.693 24.94-14.692 31.79-17.246-.76-5.952-30.14 2.509-34.4 4.922-9.62 5.461-17 15.26-18.41 26.15-1.65 12.67 4.78 22.65 17.43 25.759 5.28 1.296 9.18 1.441 14.06 3.39 3.22 1.281 13.61 4.477 15.82 1.243l-1.92-.704Zm172.52-78.812c.49-5.411 5.04-15.597-.21-19.152-7.34-4.975-10.38 3.223-12.05 8.149-2.03 6.013-10.59 20.732-3.11 24.479 1.74.871 9.99-.142 11.44-.717 4.06 1.055 5.36-.462 3.93-4.556v-8.203Zm-179.23 436.97c-.46-14.789 6.16-32.569 9.91-47.054 4.26-16.412 6.5-33.15 11-49.382-5.01.605-10.07 1.098-15.02 2.103-6.76 1.374-6.88 1.157-6.4 7.786.73 9.955-.22 19.715-.73 29.667-1.03 19.925 1.47 40.177-.19 59.975 1.48.378 1.96-.654 1.43-3.095Zm187.1-387.588c16.24 2.486 31.8 7.633 46.57 14.549 8.15 3.812 17.12 7.909 26.22 9.431 10.11 1.693 20.83.899 31.16 1.551 3.64.23 13.21 1.998 16.76-.142 3.51-2.122 3.24-5.716 3.4-10.001.43-11.021-4.56-21.812-9.05-31.701-3.84-8.484-6.75-14.961-12.72-22.259-7.67-9.373-14.35-19.487-21.53-29.27-5.42-7.373-10.89-14.642-16.41-22.007-3.94-5.275-3.76-7.089-9.71-6.499-5.86.582-11.76 4.046-17.28 5.88-8.19 2.726-18.11 4.221-25.58 8.578-4.83 2.817-5.04 3.335-4.99 8.251.06 4.579 1.53 10.165 4.27 13.746 5.69 7.437 15.13 11.373 23.22 15.083 4.68 2.145 8.73 5.19 12.9 8.149 4.49 3.191 13.55 5.07 16.99 8.707 10 10.592-8.21 8.499-13.3 8.18-10.98-.692-21.91-.586-32.97-.594-12.08-.008-24.06-.57-35.96-.177-6.98.23-14.98-3.307-19.5-9.203-2.19-2.856-3.04-5.556-5.9-8.519-3.75-3.88-7.01-7.967-11.57-10.97-7.46-4.913-21.02-7.692-29.9-5.859 3.18.444 18.14 5.537 11.55 11.939-.8.779-10.42 1.289-12.51 2.25-3.78 1.733-8.54 4.253-10.75 7.913 6.45-1.08 30.35-2.33 18.16 10.039-3 3.036-11.59 6.066-4.28 9.294 1.68.742 5.05-.308 7.21.36 3.21.996 5.84 3.658 8.85 5.077 8.54 4.03 20.32 6.514 29.23 5.632 12.33-1.224 25.18.978 37.42 2.592Zm-326.91 372.682c.42 17.767-.22 35.639.16 53.489.4 19.062 2.85 37.743 4.01 56.613 1.05 16.912 3.33 33.502 5.19 50.332 1.07 9.7 2.3 18.97 3.94 28.59 1.53 9 1.8 16.94-8.97 19.36-20.575 4.63-23.774-24.98-27.751-37.45-5.936-18.62-9.744-38.16-12.685-57.461-5.476-35.941-12.759-71.382-15.6-107.629-1.75-22.32-4.287-44.411-5.727-66.71-.283-4.371.832-11.102-3.005-13.05-2.308-1.167-8.665-1.178-11.579-2.025-8.117-2.361-15.604-5.838-23.523-9.446 5.62 29.391 7.477 58.636 11.693 88.284 2.237 15.731 6.518 32.032 10.228 47.517 3.844 16.044 4.698 33.32 9.132 49.015 1.954 6.919 3.608 9.737.773 16.838-3.477 8.716-1.17 10.797 3.191 19.357 8.022 15.75 14.147 34.34 12.787 52.09-1.11 14.5-12.065 22.09-25.636 26-16.977 4.9-34.752 4.32-51.831 9.87-14.879 4.84-29.998 8.42-44.448 14.81-5.826 2.57-11.362 5.63-17.831 6.1-8.874.65-14.857-4.5-23.237-5.57-5.238-.67-12.907 1.83-15.925-3.67-2.392-4.35.314-13.85 3.318-17.35 8.435-9.85 25.329-18.43 36.705-24.24 13.111-6.7 25.798-15.08 37.946-23.72 7.364-5.24 14.872-10.27 22.231-15.52 4.867-3.48 6.717-3.5 6.22-9.02-.396-4.4-2.38-8.67-2.728-13.18-.265-3.45.945-8.159-.687-10.412-1.2-1.661-5.706-2.834-7.478-4.093-6.478-4.592-7.95-10.274-10.892-17.26-6.683-15.868-14.361-31.29-20.814-47.285-13.856-34.342-22.31-70.454-33.796-105.498-11.735-35.802-22.228-73.386-28.691-110.53-8.647 2.631-16.809 14.276-23.697 20.038-9.304 7.787-18.838 15.317-27.962 23.318-14.956 13.114-30.1 25.869-42.459 41.576-5.955 7.564-10.83 15.705-16.221 23.652-3.114 4.591-6.018 9.789-9.389 14.157-.542.7-.558 2.14-1.141 2.737-1.284 1.311-3.737-.436-4.56.429-5.082 5.313-5.016 20.402-6.599 27.414-2.183 9.664-4.633 20.774-12.178 27.434-11.656 10.287-33.15 11.881-47.901 12.415-18.93.685-37.293 5.961-55.253 11.626-8.377 2.641-16.535 5.733-24.943 8.297-4.836 1.479-10.353 4.424-15.518 3.857-6.228-.682-11.146-5.923-15.708-9.818-7.299-6.232-14.056-12.373-13.815-22.598.257-10.822 6.12-18.989 15.355-24.365 17.854-10.393 37.824-17.055 57.069-24.237 7.375-2.754 13.688-5.801 20.739-9.507 9.965-5.239 21.434-9.515 30.275-16.432 2.606-2.041 12.186-8.295 13.002-11.519.107-.421-2.287-5.345-2.298-6.126-.023-2.009 1.167-4.185 1.899-5.905 4.604-10.825 12.328-21.249 18.233-31.457 10.814-18.699 21.67-37.495 34.208-55.08 25.001-35.06 53.087-69.39 83.399-99.995 14.778-14.921 27.547-31.844 42.533-46.558 5.937-5.828 12.205-10.574 19.52-14.358 8.155-4.216 17.309-5.043 26.656-6.331 22.651-3.118 41.568 3.583 62.833 9.414 20.105 5.511 40.231 10.16 60.448 15.901 22.202 6.305 44.176 12.352 66.303 19.223 11.83 3.671 24 5.924 35.88 9.447 5.72 1.694 27.35 12.316 32.12 8.827-15.03-7.051-30.42-13.477-46.5-17.733-4.73-1.253-7.76.134-7.58-5.303.09-2.965 3.43-6.967 4.63-9.408 2.87-5.843 6.12-11.554 8.93-17.415-10.19 2.895-37.58 12.91-45.263 2.556-8.036-10.838-1.328-32.086 3.71-42.697 13.153-27.7 35.513-50.815 57.303-71.696 4.71-4.514 14.87-10.41 17.39-16.16.76-1.749-.9-4.317.82-6.587 1.03-1.352 5.14-2.275 6.79-3.731 5.99-5.304 10.77-16.465 14.91-23.418 4.34-7.283 8.24-15.169 13.69-21.703 8.92-10.684 18.12-22.01 32.55-24.509 7.08-1.224 14.59-.571 21.38-3.016 8.2-2.956 16-7.614 24.28-10.676-2.06-4.224-3.72-10.944-7.71-11.405-3.84-.445-9.47 2.855-13.86 2.83-6.42-.035-11.9-1.06-18.09-2.284-6.86-1.355-9.11-1.109-11.61-8.545-2.62-7.788-1.96-16.835-1.94-24.925.01-3.953.8-8.86.46-12.741-.51-5.847-1.64-6.072-6.23-9.79-5.72-4.645-12.78-10.792-5.77-18.864 3.79-4.362 11.58-.97 14.94-5.656 3.42-4.774 3.25-16.764 4.29-22.371-10.54 5.181-6.67-14.189-6.67-18.849-.01-6.783-4.55-18.979 1.99-24.621 3.04-2.62 5.3-.453 8.78-1.958 3.97-1.718 6.46-6.225 10.68-7.972 8.39-3.473 16.96.71 25.57.019 9.88-.791 19.58-2.318 29.51-.733 4.71.748 6.69 2.536 10.67 4.54 3.83 1.927 7.72 2.455 11.87 3.695 3.71 1.104 6.95 1.662 9.45 4.887 1.98 2.552 1.17 6.843 3.17 9.043 1.97 2.167 5.86 1.852 8.21 4.426 2.25 2.47 3.6 6.552 4.77 9.626 1.58 4.141 1.77 5.695 4.56 9.009 2.43 2.892 5.92 5.217 7.95 8.516 4.77 7.775 4.9 19.019 3.37 27.766-.52 2.978-4.83 10.677-4.16 13.212.65 2.412 4.69 1.778 6.53 3.304 1.58 1.318 2.98 7.192 4.22 7.55 2.7.774 6.03-4.555 8.08-5.355 3.55-1.39 5.04-2.815 7.01 2.423 1.45 3.886-.58 9.162-1.65 12.871-1.36 4.722-2.86 10.41-6.47 13.98-4.24 4.198-7.64 1.903-12.32 4.164-7.01 3.388-4.94 13.983-13.57 17.011-8.22 2.885-17.28-6.191-23.5-10.364 1.29 10.129 6.14 19.89 3.81 30.271 18.91-7.409 37.62-17.926 58.23-20.242 10.51-1.183 21.13-2.582 31.04 1.78 11.62 5.107 18.73 16.372 26.59 25.731 14.78 17.591 29.93 34.687 44.11 52.845 13.01 16.655 23.97 35.953 38.28 51.549 14.52 15.814 25.47 41.473 23.88 63.372-.14 1.977-1.67 6.468-1.43 8.599.19 1.633 1.67 3.704 1.65 5.02-.08 4.432-1.55 6.984-5.77 9.441-7.33 4.265-18.24 6.423-26.51 7.481-11 1.407-24.46 1.559-35.46.057-11.35-1.552-21.32-7.902-31.75-11.74-9.15-3.367-18.35-5.47-27.96-7.619-5.31-1.185-11.18-4.467-14.46-1.291-3.01 2.919-3.63 17.895-4.33 21.877-7.61 43.163-16.65 84.864-24.66 127.806-9.08 48.674-15.28 97.329-21.59 146.416-5.74 44.622-7.61 89.747-8.9 134.327-.61 21.265-.7 42.302-.57 63.589.07 11.91 6.03 51.7-11.64 53.22-10.38.9-18.68-13.99-21.47-22.11-4.18-12.19-6.35-25.33-7.02-38.14-1.35-25.937-3.12-51.894-4.16-77.841-1.13-28.112.31-56.743 2.62-84.762 2.32-28.207 8.18-56.003 9.98-84.251-5.39 7.695-7.12 9.141-16.1 12.491-9.4 3.51-18.44 7.66-27.92 10.932-3.23 1.113-8.26 1.809-10.91 3.632-4.88 3.361-1.67-.453-3.23 6.089-1.67 6.99-1.98 15.381-2.42 22.563-2.08 33.706-11.42 67.173-15.72 100.702-1.04 8.094.44 42.459-13.49 31.629-10.73-8.341-10.52-34.539-12.04-46.81-2.04-16.358-.9-33.176-.58-49.632.36-18.742.68-38.4 5.15-56.7-8-1.369-19.13 2.362-27.19 2.989-6.97.543-13.92.888-20.85 1.27-16.54.908-33.57 1.631-50.39 1.307-3.06-.06-23.06-2.859-25.62-.602-.83.733-1.08 10.818-1.24 12.049-.59 4.633-1.38 9.262-1.98 13.869-1.9 14.73-3.61 30.547-3.07 45.272Z" clip-rule="evenodd"/>
  <path fill="#000" fill-rule="evenodd" d="M1302.67 1013.04c12.62 4.93 26.02 6.72 38.74 11.21 11.38 4.02 21.95 9.42 33.15 13.5.66-5.19 1.01-14-.91-18.89-2.72-6.94-9.87-7.11-16.91-9.58-17.14-6.01-35.17-7.28-52.18-14.306 2.91 5.606 1.61 13.036-1.89 18.066Zm217.87-18.142c-27.26.8-53.31 7.142-80.17 11.062-13.08 1.91-26.16 3.62-39.25 5.4-5.03.68-14.21-.13-17.87 4.23-3.03 3.61.29 15.94-1.05 21.23 5.5.41 15.29-4.74 21.27-5.59 9.31-1.33 18.5-3.18 27.91-3.77 14.9-.94 29.54-1.74 44.41-3.4 15.13-1.68 29.76-4.82 45.01-5.96 7.41-.56 10.39.83 10.83-6.99.17-3.06.59-8.18-.27-11.201 1.37-3.709.16-5.509-3.65-5.403-2.41-.272-4.8-.141-7.17.392Zm-52.72-24.972c7.37-.691 14.77-1.683 22.16-2.098 1.5-.085 9.1.373 10.34-1.02 1.76-1.971-.2-9.18-.52-11.41-1.1-7.584-2.31-11.995-10.58-12.011-6.99-.018-14.21 1.46-21.17 2.14-31.57 3.095-62.98 4.4-94.21 10.277 1.9 8.094 4.06 16.444 1.79 24.721 14.97.773 31.42-2.109 46.06-5.066 14.96-3.021 30.83-4.522 46.13-5.533Zm-49.97-76.204c-11.29.05-23.21 5.019-34.34 3.91-.16 2.072 3.4.353 4.38 2.291 2.1.006 2.84.69 2.19 2.061.04.934-.43 1.482-1.43 1.64l-1.47.127c-2.15.071-2.51 1.521-1.06 4.358-.62 3.516.31 7.981.45 11.509 20-2.721 39.43-5.553 59.58-6.769 9.51-.572 19.01-.571 28.51-1.353 10.45-.862 21.86.985 32.08-.971 5.46-1.047 4.89-.974 4.49-8.077-.25-4.315-.15-9.438-3.67-12.585-5.87-5.257-19.23-2.219-26.24-2.034-21.14.559-42.62 2.522-63.47 5.893Zm11.54 101.431c30.22-2.745 60.21-8.756 90.6-8.756-2.15-2.146-6.83-2.7-9.5-3.872-3.05-1.334-5.93-4.177-8.91-5.344-5.98-2.341-12.06.912-18.2 2.317-14.82 3.393-30.02 3.508-44.86 6.836-15.34 3.439-30.88 6.61-46.51 8.359-7.43.832-15.42 2.519-22.77.554-.59-.426-1.19-.854-1.79-1.278-.64-2.736-2.43-3.467-5.35-2.192-3.72-.708-8.45.205-12.19.299-.15 1.493 13.67 6.179 16.3 7.34 6.35 2.794 10.66 4.844 17.44 3.644 15.26-2.7 30.28-5.916 45.74-7.907Zm-106.3-88.349c1.18 4.603 6.14 2.508 10.41 3.016 5.73.679 11.43 2.656 16.98 4.146 10.08 2.709 20.16 5.38 30.2 8.243-.4-4.054.5-13.281-1.64-16.877-2.25-3.77-12.91-5.422-17.87-6.573-12.51-2.894-25.87-1.247-38.58-.638.23 2.891.4 5.783.5 8.683Zm120.15 28.801c11.87-1.006 23.75-1.788 35.65-2.206 13.61-.476 3.72-2.651 3.43-10.949-17.88 2.852-35.92 3.415-53.75 5.853-14.77 2.023-32.37 7.303-47.44 4.467-7.1-1.337-14.36-1.852-21.92-2.609-7.13-.713-13.86-4.035-20.9-4.86-7.91-.927-15.99 3.518-23.86 4.692-3.33.498-4.11 2.759-5.68-1.254-1.64-4.163 3.04-7.565 4.88-10.055 2.15-2.908 1.26 1.813 2.45-2.728.34-1.272-.57-4.469-.74-5.84-.42-3.465-1.51-7.225-1.68-10.684-.15-3.177-.18-8.027 3.27-9.88 2.1-1.132 3.6.518 5.43.198 14.32-2.491 31.17-2.695 45.7-.29 15.74 2.604 29.29-4.293 44.81-7.089 18.21-3.282 36.61-3.773 54.97-5.16 15.71-1.184 44.4-7.33 50.38 12.726 1.69 5.683 4.16 21.328-.4 26.163-5.98 6.35-19.83 4.323-27.56 5.974 1.16 3.289 4.6 5.527 3.41 9.446 10.84.511 12.75 10.747 14.45 20.303 1.76 9.887-1.67 13.817 7.78 18.965 13.17 7.176 27.12 14.422 26.86 31.512-.13 8.59-1.09 21.55-9.91 26.01-8.63 4.36-22.68 3.62-32.19 5.2-18.42 3.07-36.91 6.67-55.44 8.51-19.73 1.96-39.79 3.57-59.55 4.45-10.77.48-20.07 2.1-30.47-1.52-10.23-3.56-20.23-6.17-30.78-8.81-10.42-2.61-42.3-6.12-33.01-23.94 1.49-2.85 6.57-5.11 7.39-7.81 1.32-4.34-3.15-7.737-2.96-11.665.34-7.188 8.45-8.089 14.05-8.089-9.6-6.002 3.25-13.109 3.17-18.205-.13-8.977-11.3-14.805-11.93-22.331-1.53-18.316 56.57.755 65.51 4.717-6.88 10.206-38.82 1.374-48.33-.174 1.3 3.409 2.54 6.472 2.92 9.962.3 2.843-.79 6.093.21 8.955 1.57 4.525 1.51 3.659 7.07 4.893 4.11.912 8.18 1.966 12.27 2.933 6.3 1.485 16.2 5.47 22.44 5.252 5.47-.191 4.38 1.506 5.39-4.57.54-3.265-.38-6.736-.93-9.934-1.15-6.704-2.83-13.048 3.02-17.857 5.58-4.587 17.35-6.771 24.2-8.388 15.19-3.59 32.73-4.47 48.32-4.284Z" clip-rule="evenodd"/>
  <path fill="#000" fill-rule="evenodd" d="M1515.55 821.19c-16.5-2.766-33.27-3.447-49.97-2.609.91 4.132 1.81 8.263 2.72 12.393 15.64-4.028 31.51-6.39 47.25-9.784Zm-134.19 32.052c-6.62-.484-2.02 2.475-.38 6.808 2.01 5.321 1.58 12.05 2.04 17.652 19.36-7.384 41.89-11.705 62.48-14.191 9.76-1.177 19.67-1.516 29.49-2.019 2.9-.149 13.38 1.066 15.51-.886 1.57-1.452.47-9.463-1.05-11.231-8.24-9.606-40.09-1.311-51.62-.451-18.9 1.412-37.45 4.788-56.47 4.318Zm27.5-25.742c17.15 1.647 33.7 1.49 50.85 4.06-1.3-10.9.25-13.682-12.11-14.261-11.02-.514-22-.931-32.97-.925-24.66.013-49.27-.458-73.96-.458v11.077c22.84-2.338 45.31 1.885 68.19.507Zm-82.45 40.733c10.82-.046 21.05 4.037 31.87 5.095 6.48.633 4.44 1.437 8.93 4.69 7 5.066 9.02 2.366 8.14-4.517-2.97-23.287-32.45-18.066-49.44-19.359 1.11 5.553-1.45 10.262-5.24 14.091h5.74Zm116.96-29.897c-15.56.252-31.14 1.137-46.6.813-6.92-.144-15.88-1.515-22.66-.335-4.97.863-9.12 3.393-14.57 4.334 8 4.31 12.06 1.398 20.47.417 8.41-.979 16.94-.96 25.38-1.471 13.86-.839 28.63-4.16 42.29-3.256.25-1.924-1.19-2.092-4.31-.502Zm-123.45 50.433c-7.14-.016 2.69-8.137 3.97-8.942-7.9 0-9.82-4.743-7.53-12.361 2.16-7.176 3.76-4.979-1.67-10.955-4.09-4.499-4.71-7.814.11-12.845 4.91-5.117 14.84-3.67 19.18-7.894 7.4-7.19-2.15-21.51 8.1-27.019 6.93-3.721 18.1-3.261 25.75-4.047 7.39-.761 15.05-.907 22.49-1.008 16.22-.222 33.08 2.499 49.23 3.997 5.89.544 12.51 2.924 18.31 2.928 5.92.007 12.12-1.312 18.22-1.16 7.11.179 13.95-.345 21.27.82 5.61.895 18.72 1.364 23.01 5.536 14.29 13.902-19.6 20.286-25.44 21.847 5.94 6.502 5.69 15.097 4.8 23.282 2.82 0 7.69-1.23 9.16 1.939 1.81 3.934-4.91 4.957-6.5 5.415-9.14 2.642-19.85 1.918-29.27 2.877-18.84 1.917-37.45 3.023-56.09 6.592-9.09 1.739-18.12 3.892-27.2 5.585a65.35 65.35 0 0 1-4.73.705c-2.43-.207-3.21 1.316-2.36 4.581-2.52 1.232-11.91-1.836-14.82-2.305-16.63-2.699-31.51-1.578-47.99 2.432ZM1655.79 1050.28c-10.73 8.45-20.7 16.41-32.32 23.75 8.21-.26 35.53-13.36 32.32-23.75Zm-4.19-13.76c-5.85-5.03-11.67-4.51-18.92-6.04-6.67-1.4-13.16-3.82-19.82-5.43-5.23-1.26-10.4-2.97-15.61-4.16-7.35-1.69-8.08.17-14.84 4.02-23.99 13.67-50.83 23.07-76.09 34.17 7.42 6.53 24.1 6.81 33.37 8.89 6.77 1.52 13.21 3.6 19.7 6 6.03 2.24 15.76 7.4 22.13 7.57 5.37.15 9.74-5.14 14.37-7.99 6.08-3.75 12.14-7.43 18.27-11.09 12.99-7.73 25.12-17.21 37.44-25.94Zm-108.4 55.37c-2.77-2.66-11.1-2.54-14.57-3.36-6.84-1.59-13.58-3.25-20.51-4.45-11.25-1.95-29.01-2.82-30.23-17.41-1.02-12.13 13.63-15 22.2-19.11 12.88-6.18 26.03-11.88 39.24-17.33 12.39-5.11 24.96-9.43 37.57-13.84 2.46-.87 4.46-.75 6.47-2.72 1.58-1.55 1.1-4.57 2.83-6.19 3.98-3.72 9.14-1.76 13.91-.81 10.85 2.17 22.12 5.01 32.47 9.02 10.75 4.17 20.36 5.05 22.94 17.23 5.5-2.58 9.63-2.95 8.98 4.63-.2 2.22-1.81 4.65-2.2 6.94-.57 3.39.43 6.96-.14 10.35-2.05 12.34-18.69 21.48-29.01 26.33-12.71 5.98-29.12 14.8-43.32 15.97-15.12 1.24-31.61-4.7-46.63-5.25Z" clip-rule="evenodd"/>
  <path fill="#000" fill-rule="evenodd" d="m1350.64 887.142-13.53.085c4.5-.846 9.02-.855 13.53-.085ZM1086.79 409.929c-1.36 2.254-2.71 4.509-4.06 6.766.46-2.907 1.49-5.398 4.06-6.766ZM1350.64 951.816c2.71.025 5.43.045 8.12.071-2.72-.021-5.41-.045-8.12-.071ZM1358.76 887.208l-8.12-.076c2.72-.74 5.43-.715 8.12.076ZM1466.45 503.294c-.08-2.707-.15-5.415-.23-8.118.08 2.708.15 5.412.23 8.118ZM1006.36 911.935c-.06-2.256-.11-4.513-.17-6.766.06 2.258.11 4.511.17 6.766ZM1080.02 801.653c1.81 0 3.62.003 5.41.006-1.81 0-3.61-.003-5.41-.006ZM1322.23 315.643l-6.77.49 6.77-.49ZM1264.82 976.884c-.07-1.807-.13-3.616-.2-5.413.07 1.81.13 3.612.2 5.413ZM1267.5 907.875l-.15-5.412.15 5.412ZM1221.32 938.997c.07 1.806.13 3.614.2 5.412-.07-1.809-.13-3.608-.2-5.412ZM1090.85 800.331l4.05-.057-4.05.057ZM1483.25 870.753l4.06-.176-4.06.176ZM1224.01 982.296c.08 1.807.16 3.615.23 5.413-.07-1.812-.15-3.612-.23-5.413ZM1369.05 972.825c-.09 1.807-.19 3.614-.28 5.412.09-1.808.19-3.61.28-5.412ZM1213.09 166.568c-1.91-.244-3.82-.486-5.74-.729 1.9.438 3.98-1.187 5.74.729ZM1130.84 860.516c-.05 1.807-.1 3.613-.16 5.413.05-1.811.11-3.612.16-5.413ZM1014.53 1025.6l-.27-5.42.27 5.42ZM1452.13 873.413c1.36-.029 2.71-.058 4.06-.084-1.37.03-2.71.057-4.06.084ZM992.73 545.241c.011 1.807.021 3.614.029 5.412-.012-1.809-.02-3.61-.029-5.412ZM964.34 951.175c-.005 1.806-.012 3.615-.022 5.412.006-1.809.014-3.611.022-5.412ZM1301.58 940.35c-.05 1.806-.09 3.614-.14 5.412-.75-1.855-.66-3.653.14-5.412ZM1266.1 932.231c-.02-1.806-.03-3.611-.05-5.412.02 1.81.03 3.61.05 5.412ZM1542.79 1092.52c1.35.04 2.71.07 4.05.11-1.36-.04-2.71-.07-4.05-.11ZM1494.07 920.753l2.71-.047-2.71.047ZM1460.25 924.792l2.7-.006-2.7.006ZM933.289 933.584c-.054-1.353-.11-2.709-.163-4.059.056 1.356.11 2.709.163 4.059ZM1487.31 932.557c-1.18 1.19-2.69.487-4.06.563l4.06-.563ZM1326.29 889.266c-1.79.844-3.6.961-5.42.058l5.42-.058ZM1444.01 935.637l-5.41-.046 5.41.046ZM954.91 882.166c-.032 1.357-.069 2.712-.105 4.059.034-1.358.069-2.71.105-4.059ZM1265.97 955.234ZM1452.13 877.203l-5.42.455 5.42-.455ZM1006.33 872.694c-.04-1.356-.07-2.712-.11-4.059.04 1.358.07 2.709.11 4.059ZM1232.41 768.504c-.11 1.356-.22 2.711-.32 4.06.1-1.356.21-2.706.32-4.06ZM1479.19 809.45c-1.81.936-3.61.819-5.41-.01l5.41.01ZM1264.84 997.181l-.24-4.06.24 4.06ZM1264.81 1008.01c-.06-1.36-.12-2.71-.17-4.06.05 1.35.11 2.7.17 4.06ZM1008.95 829.395l.06-4.06-.06 4.06ZM1393.94 1045.25c.91-.02 1.81-.05 2.71-.07-.91.03-1.81.05-2.71.07ZM957.673 1056.72l-.219-4.06c.074 1.35.146 2.71.219 4.06ZM1250.51 1068.19l2.71.06-2.71-.06ZM1251.08 952.528c.07-4.061.15-8.12.22-12.178-.07 4.061-.15 8.119-.22 12.178ZM1145.58 803.686c.04 3.159.09 6.319.14 9.471-.05-3.162-.1-6.317-.14-9.471ZM912.234 1001.87l-6.765.09 6.765-.09ZM1097.61 732.7ZM1039.43 785.421c2.25 0 4.51-.003 6.76-.005-2.25 0-4.51.004-6.76.005ZM1069.2 731.249l-5.42.09 5.42-.09ZM923.059 1001.93l-5.412-.03 5.412.03ZM1166.62 310.711l6.77-.471-6.77.471ZM1196.94 469.466c.08-2.255.17-4.511.25-6.765-.08 2.257-.17 4.511-.25 6.765ZM1142.26 490.438l-4.06.003c1.37 0 2.71-.001 4.06-.003ZM1027.25 727.213c-1.36.015-2.72.03-4.06.043 1.36-.012 2.71-.028 4.06-.043ZM996.127 782.493l5.413.44-5.413-.44ZM992.701 851.044c.029-1.806.06-3.61.086-5.412l-.086 5.412ZM1147.68 778.918l5.41-.53-5.41.53ZM1271.33 746.855c.1-1.805.21-3.613.32-5.413-.11 1.808-.22 3.61-.32 5.413ZM1111.14 734.02l-4.06-.039c1.37.012 2.71.026 4.06.039ZM992.843 952.528l-.198-4.059c.066 1.355.131 2.707.198 4.059ZM1144.55 883.519c2.96 7.334 1.3 2.141 1.38 3.833-2.52.339-2.98-.94-1.38-3.833ZM1020.48 727.308l-4.06-.148 4.06.148ZM1297.07 589.893c.08-1.805.17-3.61.25-5.412-.08 1.806-.17 3.61-.25 5.412ZM992.751 938.997l-.013-5.413.013 5.413ZM992.604 898.403l.281-4.059-.281 4.059ZM1274 721.146c.13-1.355.26-2.709.38-4.06-.12 1.356-.25 2.709-.38 4.06ZM974.973 902.463l.362 4.059-.362-4.059ZM972.248 891.638c.134 1.354.266 2.71.4 4.059l-.4-4.059ZM1242.92 706.261l.3-4.059-.3 4.059ZM552.306 889.822c1.802-.142 3.607-.286 5.413-.426-1.81.14-3.612.284-5.413.426ZM1230.97 922.759c-.05 1.356-.11 2.715-.16 4.06.06-1.36.11-2.709.16-4.06ZM1252.39 926.819l.3-4.06-.3 4.06ZM1244.21 700.849c.14-1.355.29-2.708.43-4.059-.14 1.355-.29 2.707-.43 4.059ZM563.131 888.522l5.412-.533-5.412.533ZM1136.85 732.632l-2.7.03 2.7-.03ZM992.751 886.225l-.013-4.059.013 4.059ZM1255.35 883.519c-.48-1.399-.71-2.778.22-4.059a563.83 563.83 0 0 0-.22 4.059ZM1232.3 857.81c-.03 1.355-.07 2.71-.11 4.059.04-1.357.08-2.709.11-4.059ZM1233.47 991.768c.09 1.353.17 2.711.26 4.06-.09-1.356-.17-2.709-.26-4.06ZM1333.05 499.623ZM1327.64 499.749c1.82.11 3.81-.763 5.41.516l-5.41-.516ZM1136.85 498.323l5.41.471-5.41-.471ZM1047.55 785.065l5.41.025c-1.81.871-3.62.956-5.41-.025ZM998.311 1012.06ZM1195.68 500.588l.06-4.059-.06 4.059ZM1081.37 785.636c1.81-.145 3.61-.289 5.42-.437-1.81.148-3.61.292-5.42.437ZM1234.91 1024.24ZM1263.18 811.804c.13-1.354.25-2.709.37-4.059-.12 1.355-.24 2.706-.37 4.059ZM1325.46 450.523l.3-4.06-.3 4.06ZM1197.03 334.155c.02 1.354.05 2.71.07 4.059-.02-1.357-.05-2.709-.07-4.059ZM1149.03 308.896c1.8.151 3.61.302 5.41.451l-5.41-.451ZM878.406 1077.96c1.806-.18 3.608-.36 5.413-.53-1.805.17-3.607.35-5.413.53ZM1151.74 295.593l-2.71-.003c.91.003 1.81.003 2.71.003ZM818.87 1095.58c1.806-.93 3.608-.67 5.412.01-1.804-.01-3.61-.01-5.412-.01ZM1521.14 993.736c-1.81.04-3.62.082-5.42.124 1.82-.04 3.62-.084 5.42-.124ZM1494.07 966.899l6.77-.515c-2.11 1.322-4.51.343-6.77.515ZM1468.36 969.687l6.77-.49c-2.25.164-4.51.326-6.77.49ZM1446.71 992.684c1.81-.159 3.61-.318 5.42-.479l-5.42.479ZM1456.19 946.427c-1.36.009-2.72.019-4.06.024 1.36-.011 2.71-.017 4.06-.024ZM1490.01 1020.97c1.81-.15 3.61-.3 5.42-.46-1.69 1.19-3.59.51-5.42.46ZM1431.83 890.964c-1.36-.001-2.72-.004-4.06-.006l4.06.006ZM1418.3 893.661c-.91.007-1.81.009-2.71.012l2.71-.012ZM1385.82 897.431c-.45 1.112-2.84.97-2.7-.172l2.7.172ZM1322.82 902.463c.06 1.353.11 2.709.17 4.059-.06-1.356-.11-2.709-.17-4.059ZM1507.6 909.636l4.06-.068c-1.33.955-2.69.821-4.06.068ZM1456.19 889.589ZM1421.01 975.107l5.41-.506-5.41.506ZM1439.95 1026.56c1.81-.66 3.61-.89 5.41.01-1.8 0-3.61-.01-5.41-.01ZM1437.08 840.041l-2.54-.879c3.15-.04 6.31-.079 9.47-.117 0 .002-6.57 1.024-6.93.996ZM1412.89 816.543l-6.77-.006c2.26.003 4.52.006 6.77.006ZM1327.64 868.266c2.25-.902 4.51-.726 6.77-.025l-6.77.025ZM1464.3 846.284l-4.05.049c1.36-.018 2.71-.033 4.05-.049ZM1435.89 828.496c2.26.148 4.51.295 6.76.444-2.25-.15-4.51-.296-6.76-.444ZM1410.18 827.143l5.41.444c-1.8-.149-3.61-.296-5.41-.444ZM1384.47 853.102l-2.71-.056 2.71.056ZM1412.89 839.627l-2.71-.168c.91.055 1.81.112 2.71.168ZM1395.3 839.58c-.91-.026-1.82-.052-2.71-.075l2.71.075ZM1444.01 838.321c0 .351 4.07-1.427 4.06.226l-4.06-.226ZM1429.12 816.537l-2.7.006 2.7-.006ZM948.768 752.37c1.466-5.98 1.067-10.659 6.286-6.837 2.863 2.098 7.585 12.736 7.227 16.34-.441 4.445-2.468 6.216-6.652 4.802-4.809-1.629-6.717-9.832-6.861-14.305ZM1212.4 716.067c12.11 0 6.83 12.897-3.27 13.185-4.65.134-11.32-.782-9.82-6.996.8-3.316 12.58-7.787 13.09-6.189ZM1082.42 741.442c8.75 4.233-3.56 22.818-11.51 18.217-10.18-5.889 7.91-15.565 11.51-18.217ZM1061.14 759.033c2.86 3.123 15.76 13.711 8.65 17.969-8.75 5.235-15.4-12.048-8.65-17.969ZM914.505 750.914c-2.846-5.503 1.07-19.904 9.76-17.272 8.744 2.65-4.948 15.811-9.76 17.272ZM1107.54 754.086c5.68-2.284 4.6 4.473 5.45 6.653.97 2.476 5.97 8.508 4.72 11.144-1.86 3.912-6.31 1.418-8.72-1.12-4.23-4.453-3.93-11.595-1.45-16.677ZM1021.08 760.349c-4.73 0-16.02-13.634-9.39-15.922 8.24-2.839 15.12 16.924 9.39 15.922ZM1184.49 738.736c4.33 1.067 10.06 13.329 3.54 14.751-7.23 1.577-8.52-11.36-3.54-14.751ZM1158.23 761.739c-3.39-6.541-4.23-20.543 4.06-9.304 1.8 2.434 3.65 1.449 2.73 5.465-.8 3.506-4.02 3.839-6.79 3.839ZM979.328 727.911c3.462 5.211 2.44 21.55-4.794 11.886-3.077-4.108-.958-11.691 4.794-11.886ZM1153.34 236.863c6.72-1.734 8.33 14.102 4.41 15.847-5.48 2.443-4.79-13.198-4.41-15.847ZM1578.18 1041.36c-6.24-.37-14.97-2.07-5.53-6.49 5.99-2.8 14.9-3 21.23-1.85 4.36.79 10.9 4.41 4.25 9.09-3.9 2.74-15.22-.62-19.95-.75ZM1571.19 1052.66c-1.8-.2-3.6-.41-5.4-.61 1.44-2.62 5.64-3.17 5.4.61ZM1579.32 1041.1l5.41.12-5.41-.12Z" clip-rule="evenodd"/>
  <defs>
    <linearGradient id="b" x1="158.069" x2="620.769" y1="167.906" y2="405.06" gradientUnits="userSpaceOnUse">
      <stop stop-color="#C3F6EE"/>
      <stop offset=".38" stop-color="#C6EBFD"/>
    </linearGradient>
  </defs>
</svg>